<svg width="27" height="25" viewBox="0 0 27 25" fill="none" xmlns="http://www.w3.org/2000/svg">
<path d="M6.41012 10.8998C6.0494 10.4021 5.32926 10.3446 4.89411 10.7787L3.65496 12.015C3.26336 12.4058 3.26336 13.0402 3.65496 13.4309L9.87975 19.6415C10.2705 20.0313 10.9031 20.0309 11.2933 19.6406L26.4005 4.52823C26.7464 4.18227 26.7912 3.63689 26.5064 3.23913L25.285 1.53303C24.9082 1.00667 24.1382 0.971605 23.715 1.46153L11.4124 15.7071C10.9909 16.1952 10.2243 16.1625 9.84587 15.6403L6.41012 10.8998Z" fill="white"/>
<path d="M20.6182 21.5606C20.6182 22.0915 20.1685 22.5402 19.6364 22.5402H2.94545C2.41331 22.5402 1.96364 22.0915 1.96364 21.5606V4.90753C1.96364 4.37659 2.41331 3.92793 2.94545 3.92793H19.546L21.1022 2.37528C20.6584 2.1123 20.1525 1.97198 19.6364 1.96875H2.94545C1.32545 1.96875 0 3.2912 0 4.90753V21.5606C0 23.1769 1.32545 24.4994 2.94545 24.4994H19.6364C21.2564 24.4994 22.5818 23.1769 22.5818 21.5606V11.9322L20.6182 13.8914V21.5606Z" fill="white"/>
</svg>
