<svg width="24" height="24" viewBox="0 0 24 24" fill="none" xmlns="http://www.w3.org/2000/svg">
<path fill-rule="evenodd" clip-rule="evenodd" d="M3.13043 0H20.8696C22.5913 0 24 1.4087 24 3.13043V20.8696C24 22.5913 22.5913 24 20.8696 24H3.13043C1.4087 24 0 22.5913 0 20.8696V3.13043C0 1.4087 1.4087 0 3.13043 0ZM21.913 3.13043C21.913 2.56487 21.4351 2.08696 20.8696 2.08696H3.13043C2.56487 2.08696 2.08696 2.56487 2.08696 3.13043V20.8696C2.08696 21.4351 2.56487 21.913 3.13043 21.913H20.8696C21.4351 21.913 21.913 21.4351 21.913 20.8696V3.13043Z" fill="white"/>
</svg>
