<svg width="798" height="619" viewBox="0 0 798 619" fill="none" xmlns="http://www.w3.org/2000/svg">
<path d="M574.912 130H645.13V133.874H574.912V130Z" fill="white"/>
<path d="M151.912 134H222.13V137.874H151.912V134Z" fill="white"/>
<path d="M308.319 59.232L320.991 0.479994H328.095L311.967 72H297.759L280.383 6.432C276.991 7.776 274.399 9.88799 272.607 12.768C270.815 15.648 269.919 19.072 269.919 23.04C269.919 24.96 270.047 26.56 270.303 27.84C270.623 29.12 270.943 30.176 271.263 31.008C271.647 31.84 272.031 32.512 272.415 33.024C272.799 33.472 273.087 33.888 273.279 34.272C269.439 34.272 266.399 33.408 264.159 31.68C261.919 29.888 260.799 26.88 260.799 22.656C260.799 19.584 261.599 16.704 263.199 14.016C264.799 11.264 266.911 8.864 269.535 6.816C272.223 4.704 275.263 3.04 278.655 1.824C282.111 0.607996 285.663 -5.72205e-06 289.311 -5.72205e-06C290.015 -5.72205e-06 290.687 0.0319958 291.327 0.0959988C292.031 0.0959988 292.703 0.127998 293.343 0.191998L308.319 59.232ZM351.941 24V56.64C351.941 59.328 352.293 61.12 352.997 62.016C353.765 62.848 355.077 63.264 356.933 63.264C358.789 63.264 360.325 62.464 361.541 60.864C362.821 59.264 363.557 57.248 363.749 54.816H367.781C367.269 58.72 366.373 61.856 365.093 64.224C363.813 66.528 362.373 68.32 360.773 69.6C359.173 70.816 357.541 71.616 355.877 72C354.213 72.384 352.741 72.576 351.461 72.576C346.533 72.576 343.077 71.232 341.093 68.544C339.109 65.792 338.117 62.176 338.117 57.696V24H351.941ZM346.757 -5.72205e-06H356.837L349.061 18.144H341.861L346.757 -5.72205e-06ZM383.535 8.832V24H389.391V27.84H383.535V56.64C383.535 59.328 383.887 61.12 384.591 62.016C385.359 62.848 386.671 63.264 388.527 63.264C390.383 63.264 391.919 62.464 393.135 60.864C394.415 59.264 395.151 57.248 395.343 54.816H399.375C398.863 58.72 397.967 61.856 396.687 64.224C395.407 66.528 393.967 68.32 392.367 69.6C390.767 70.816 389.135 71.616 387.471 72C385.807 72.384 384.335 72.576 383.055 72.576C378.127 72.576 374.671 71.232 372.687 68.544C370.703 65.792 369.711 62.176 369.711 57.696V27.84H366.639V24H369.711V10.752L383.535 8.832ZM423.192 64.512C425.112 64.512 426.808 64.256 428.28 63.744C429.752 63.232 431.064 62.56 432.216 61.728C433.368 60.832 434.424 59.808 435.384 58.656C436.344 57.44 437.272 56.16 438.168 54.816H441.432C440.536 57.056 439.448 59.232 438.168 61.344C436.952 63.456 435.416 65.344 433.56 67.008C431.768 68.672 429.656 70.016 427.224 71.04C424.792 72.064 421.944 72.576 418.68 72.576C415.928 72.576 413.4 72.16 411.096 71.328C408.792 70.496 406.776 69.216 405.048 67.488C403.384 65.696 402.072 63.424 401.112 60.672C400.216 57.856 399.768 54.496 399.768 50.592C399.768 47.84 400.056 44.896 400.632 41.76C401.272 38.56 402.36 35.616 403.896 32.928C405.432 30.24 407.512 28 410.136 26.208C412.76 24.416 416.088 23.52 420.12 23.52C423.192 23.52 425.56 24 427.224 24.96C428.888 25.92 430.104 27.04 430.872 28.32C431.704 29.6 432.184 30.848 432.312 32.064C432.504 33.28 432.6 34.144 432.6 34.656C432.6 37.536 432.056 40.064 430.968 42.24C429.944 44.416 428.536 46.272 426.744 47.808C425.016 49.28 423 50.432 420.696 51.264C418.456 52.032 416.152 52.48 413.784 52.608C413.848 56.896 414.552 59.968 415.896 61.824C417.304 63.616 419.736 64.512 423.192 64.512ZM425.208 34.752C425.208 32.512 424.824 30.944 424.056 30.048C423.288 29.088 422.456 28.608 421.56 28.608C420.472 28.608 419.48 29.152 418.584 30.24C417.688 31.264 416.888 32.672 416.184 34.464C415.544 36.192 415 38.24 414.552 40.608C414.168 42.976 413.912 45.44 413.784 48C415.384 47.872 416.888 47.456 418.296 46.752C419.704 45.984 420.92 45.024 421.944 43.872C422.968 42.656 423.768 41.28 424.344 39.744C424.92 38.208 425.208 36.544 425.208 34.752ZM457.972 24V68.544C459.316 68.032 460.5 67.424 461.524 66.72C462.548 66.016 463.444 65.152 464.212 64.128C464.98 63.04 465.588 61.76 466.036 60.288C466.548 58.752 466.932 56.928 467.188 54.816H471.22C470.9 58.016 470.292 60.672 469.396 62.784C468.564 64.832 467.508 66.528 466.228 67.872C465.012 69.216 463.668 70.272 462.196 71.04C460.788 71.808 459.38 72.416 457.972 72.864V79.68C457.972 83.072 457.556 85.824 456.724 87.936C455.892 90.112 454.804 91.776 453.46 92.928C452.18 94.144 450.74 94.944 449.14 95.328C447.604 95.776 446.1 96 444.628 96C442.772 96 441.044 95.744 439.444 95.232C437.78 94.72 436.372 93.984 435.22 93.024C434.004 92.128 433.044 91.008 432.34 89.664C431.636 88.32 431.284 86.816 431.284 85.152C431.284 83.424 431.668 81.856 432.436 80.448C433.204 79.104 434.196 77.92 435.412 76.896C436.628 75.872 438.004 74.976 439.54 74.208C441.076 73.504 442.612 72.896 444.148 72.384V24H457.972ZM443.284 11.232C443.284 9.12 444.02 7.328 445.492 5.856C446.964 4.32 448.756 3.55199 450.868 3.55199C452.98 3.55199 454.772 4.32 456.244 5.856C457.78 7.328 458.548 9.12 458.548 11.232C458.548 13.344 457.78 15.136 456.244 16.608C454.772 18.08 452.98 18.816 450.868 18.816C448.756 18.816 446.964 18.08 445.492 16.608C444.02 15.136 443.284 13.344 443.284 11.232ZM436.372 84.288C436.372 85.568 436.82 86.592 437.716 87.36C438.548 88.128 439.412 88.512 440.308 88.512C441.46 88.512 442.388 87.808 443.092 86.4C443.796 84.992 444.148 82.848 444.148 79.968V77.184C441.972 78.08 440.148 79.104 438.676 80.256C437.14 81.408 436.372 82.752 436.372 84.288ZM487.035 8.832V24H492.891V27.84H487.035V56.64C487.035 59.328 487.387 61.12 488.091 62.016C488.859 62.848 490.171 63.264 492.027 63.264C493.883 63.264 495.419 62.464 496.635 60.864C497.915 59.264 498.651 57.248 498.843 54.816H502.875C502.363 58.72 501.467 61.856 500.187 64.224C498.907 66.528 497.467 68.32 495.867 69.6C494.267 70.816 492.635 71.616 490.971 72C489.307 72.384 487.835 72.576 486.555 72.576C481.627 72.576 478.171 71.232 476.187 68.544C474.203 65.792 473.211 62.176 473.211 57.696V27.84H470.139V24H473.211V10.752L487.035 8.832ZM525.444 63.456C527.3 63.456 529.156 62.944 531.012 61.92C532.868 60.896 534.436 59.712 535.716 58.368C535.716 61.12 535.364 63.424 534.66 65.28C534.02 67.072 533.092 68.512 531.876 69.6C530.66 70.688 529.22 71.456 527.556 71.904C525.956 72.352 524.164 72.576 522.18 72.576C519.428 72.576 516.868 72.192 514.5 71.424C512.196 70.592 510.212 69.28 508.548 67.488C506.884 65.696 505.572 63.392 504.612 60.576C503.652 57.76 503.172 54.336 503.172 50.304C503.172 47.616 503.46 44.704 504.036 41.568C504.676 38.432 505.732 35.552 507.204 32.928C508.676 30.24 510.66 28 513.156 26.208C515.716 24.416 518.916 23.52 522.756 23.52C525.956 23.52 528.42 24 530.148 24.96C531.876 25.856 533.156 26.976 533.988 28.32C534.82 29.6 535.3 30.944 535.428 32.352C535.556 33.696 535.62 34.784 535.62 35.616C535.62 37.92 535.14 40.096 534.18 42.144C533.22 44.128 531.908 45.888 530.244 47.424C528.58 48.896 526.628 50.112 524.388 51.072C522.212 51.968 519.844 52.48 517.284 52.608C517.604 56.768 518.532 59.616 520.068 61.152C521.604 62.688 523.396 63.456 525.444 63.456ZM528.132 35.04C528.132 32.608 527.748 30.944 526.98 30.048C526.276 29.088 525.476 28.608 524.58 28.608C523.428 28.608 522.404 29.216 521.508 30.432C520.676 31.648 519.94 33.216 519.3 35.136C518.66 36.992 518.148 39.072 517.764 41.376C517.444 43.68 517.252 45.888 517.188 48C518.788 47.872 520.26 47.456 521.604 46.752C522.948 45.984 524.1 45.024 525.06 43.872C526.02 42.72 526.756 41.376 527.268 39.84C527.844 38.304 528.132 36.704 528.132 35.04Z" fill="#C7665A"/>
<path d="M276.978 129.52C277.794 129.52 278.378 129.92 278.73 130.72C279.098 131.52 279.282 132.624 279.282 134.032C279.282 134.944 279.202 135.88 279.042 136.84C278.882 137.8 278.61 138.672 278.226 139.456C277.842 140.24 277.33 140.888 276.69 141.4C276.066 141.896 275.282 142.144 274.338 142.144C273.186 142.144 272.29 141.784 271.65 141.064C271.01 140.344 270.69 139.376 270.69 138.16V130H274.146V138.16C274.146 138.736 274.226 139.16 274.386 139.432C274.546 139.688 274.81 139.816 275.178 139.816C275.642 139.816 276.042 139.632 276.378 139.264C276.714 138.896 276.986 138.424 277.194 137.848C277.418 137.272 277.578 136.632 277.674 135.928C277.786 135.224 277.842 134.536 277.842 133.864C277.842 133.128 277.778 132.44 277.65 131.8C277.618 131.88 277.514 131.944 277.338 131.992C277.162 132.024 277.026 132.04 276.93 132.04C276.754 132.04 276.594 131.992 276.45 131.896C276.322 131.8 276.202 131.68 276.09 131.536C275.994 131.376 275.914 131.208 275.85 131.032C275.802 130.856 275.778 130.688 275.778 130.528C275.778 130.24 275.874 130 276.066 129.808C276.274 129.616 276.578 129.52 276.978 129.52ZM310.576 137.92C310.4 138.64 310.112 139.28 309.712 139.84C309.328 140.384 308.856 140.848 308.296 141.232C307.752 141.616 307.136 141.904 306.448 142.096C305.776 142.288 305.064 142.384 304.312 142.384C302.248 142.384 300.64 141.656 299.488 140.2C298.352 138.744 297.784 136.544 297.784 133.6C297.784 132.512 297.88 131.4 298.072 130.264C298.264 129.128 298.6 128.096 299.08 127.168C299.56 126.24 300.2 125.48 301 124.888C301.816 124.296 302.84 124 304.072 124C304.664 124 305.24 124.08 305.8 124.24C306.36 124.384 306.848 124.616 307.264 124.936C307.696 125.24 308.04 125.632 308.296 126.112C308.552 126.592 308.68 127.152 308.68 127.792C308.68 128.272 308.584 128.664 308.392 128.968C308.216 129.272 307.88 129.424 307.384 129.424C307.192 129.424 306.96 129.392 306.688 129.328C306.432 129.248 306.16 129.072 305.872 128.8C306.08 128.672 306.248 128.44 306.376 128.104C306.504 127.752 306.568 127.408 306.568 127.072C306.568 126.56 306.416 126.112 306.112 125.728C305.808 125.328 305.4 125.128 304.888 125.128C304.344 125.128 303.872 125.36 303.472 125.824C303.072 126.288 302.736 126.904 302.464 127.672C302.208 128.424 302.016 129.288 301.888 130.264C301.76 131.224 301.696 132.208 301.696 133.216C301.696 134.544 301.8 135.656 302.008 136.552C302.232 137.448 302.528 138.168 302.896 138.712C303.264 139.256 303.696 139.64 304.192 139.864C304.704 140.088 305.248 140.2 305.824 140.2C306.736 140.2 307.552 139.976 308.272 139.528C309.008 139.064 309.576 138.448 309.976 137.68L310.576 137.92ZM302.272 118L304.12 119.92L307.48 118H308.536L304.408 122.536H303.904L301.504 118H302.272ZM321.373 140.128C321.853 140.128 322.277 140.064 322.645 139.936C323.013 139.808 323.341 139.64 323.629 139.432C323.917 139.208 324.181 138.952 324.421 138.664C324.661 138.36 324.893 138.04 325.117 137.704H325.933C325.709 138.264 325.437 138.808 325.117 139.336C324.813 139.864 324.429 140.336 323.965 140.752C323.517 141.168 322.989 141.504 322.381 141.76C321.773 142.016 321.061 142.144 320.245 142.144C319.557 142.144 318.925 142.04 318.349 141.832C317.773 141.624 317.269 141.304 316.837 140.872C316.421 140.424 316.093 139.856 315.853 139.168C315.629 138.464 315.517 137.624 315.517 136.648C315.517 135.96 315.589 135.224 315.733 134.44C315.893 133.64 316.165 132.904 316.549 132.232C316.933 131.56 317.453 131 318.109 130.552C318.765 130.104 319.597 129.88 320.605 129.88C321.373 129.88 321.965 130 322.381 130.24C322.797 130.48 323.101 130.76 323.293 131.08C323.501 131.4 323.621 131.712 323.653 132.016C323.701 132.32 323.725 132.536 323.725 132.664C323.725 133.384 323.589 134.016 323.317 134.56C323.061 135.104 322.709 135.568 322.261 135.952C321.829 136.32 321.325 136.608 320.749 136.816C320.189 137.008 319.613 137.12 319.021 137.152C319.037 138.224 319.213 138.992 319.549 139.456C319.901 139.904 320.509 140.128 321.373 140.128ZM321.877 132.688C321.877 132.128 321.781 131.736 321.589 131.512C321.397 131.272 321.189 131.152 320.965 131.152C320.693 131.152 320.445 131.288 320.221 131.56C319.997 131.816 319.797 132.168 319.621 132.616C319.461 133.048 319.325 133.56 319.213 134.152C319.117 134.744 319.053 135.36 319.021 136C319.421 135.968 319.797 135.864 320.149 135.688C320.501 135.496 320.805 135.256 321.061 134.968C321.317 134.664 321.517 134.32 321.661 133.936C321.805 133.552 321.877 133.136 321.877 132.688ZM341.288 137.704C340.792 138.456 340.264 139.072 339.704 139.552C339.144 140.032 338.624 140.44 338.144 140.776C337.728 141.272 337.208 141.624 336.584 141.832C335.96 142.04 335.36 142.144 334.784 142.144C334.08 142.144 333.464 142.032 332.936 141.808C332.408 141.584 331.968 141.304 331.616 140.968C331.264 140.616 331 140.232 330.824 139.816C330.648 139.384 330.56 138.976 330.56 138.592C330.56 138.16 330.64 137.792 330.8 137.488C330.976 137.184 331.192 136.968 331.448 136.84C331.912 135.64 332.296 134.456 332.6 133.288C332.92 132.104 333.144 130.92 333.272 129.736L336.728 129.256C337.128 130.808 337.464 132.072 337.736 133.048C338.008 134.008 338.224 134.816 338.384 135.472C338.544 136.112 338.656 136.672 338.72 137.152C338.784 137.632 338.816 138.168 338.816 138.76V138.904C339.392 138.504 339.88 138.104 340.28 137.704H341.288ZM333.344 137.92C333.344 138.16 333.272 138.384 333.128 138.592C332.984 138.784 332.776 138.88 332.504 138.88C332.376 138.88 332.24 138.864 332.096 138.832C331.968 138.784 331.864 138.696 331.784 138.568C331.912 139.128 332.112 139.552 332.384 139.84C332.672 140.112 333.08 140.248 333.608 140.248C334.072 140.248 334.472 140.128 334.808 139.888C335.144 139.632 335.312 139.192 335.312 138.568C335.312 138.136 335.288 137.752 335.24 137.416C335.192 137.064 335.112 136.672 335 136.24C334.904 135.808 334.768 135.296 334.592 134.704C334.432 134.112 334.232 133.368 333.992 132.472C333.832 133.24 333.632 133.984 333.392 134.704C333.168 135.408 332.928 136.144 332.672 136.912C332.848 136.992 333 137.12 333.128 137.296C333.272 137.456 333.344 137.664 333.344 137.92ZM355.972 130L351.892 133.312C352.004 133.296 352.108 133.288 352.204 133.288C352.316 133.288 352.428 133.288 352.54 133.288C352.988 133.288 353.42 133.344 353.836 133.456C354.252 133.552 354.612 133.728 354.916 133.984C355.236 134.224 355.492 134.544 355.684 134.944C355.876 135.344 355.972 135.84 355.972 136.432C355.972 136.576 355.964 136.76 355.948 136.984C355.948 137.192 355.94 137.408 355.924 137.632C355.908 137.84 355.892 138.04 355.876 138.232C355.876 138.424 355.876 138.576 355.876 138.688C355.876 139.024 355.956 139.296 356.116 139.504C356.276 139.712 356.588 139.816 357.052 139.816C357.34 139.816 357.572 139.776 357.748 139.696C357.924 139.6 358.068 139.472 358.18 139.312C358.308 139.136 358.404 138.92 358.468 138.664C358.548 138.392 358.628 138.072 358.708 137.704H359.716C359.588 138.648 359.396 139.416 359.14 140.008C358.9 140.584 358.62 141.032 358.3 141.352C357.98 141.672 357.628 141.888 357.244 142C356.86 142.096 356.476 142.144 356.092 142.144C355.484 142.144 354.964 142.056 354.532 141.88C354.1 141.704 353.74 141.464 353.452 141.16C353.18 140.856 352.972 140.504 352.828 140.104C352.7 139.704 352.636 139.28 352.636 138.832C352.636 138.64 352.644 138.368 352.66 138.016C352.676 137.664 352.684 137.344 352.684 137.056C352.684 136.496 352.604 136.048 352.444 135.712C352.3 135.376 351.972 135.208 351.46 135.208C350.964 135.208 350.58 135.352 350.308 135.64C350.052 135.912 349.86 136.248 349.732 136.648V142H346.276V125.68L349.732 125.2V133.648L353.596 130H355.972ZM369.858 139.864C370.322 139.864 370.786 139.736 371.25 139.48C371.714 139.224 372.106 138.928 372.426 138.592C372.426 139.28 372.338 139.856 372.162 140.32C372.002 140.768 371.77 141.128 371.466 141.4C371.162 141.672 370.802 141.864 370.386 141.976C369.986 142.088 369.538 142.144 369.042 142.144C368.354 142.144 367.714 142.048 367.122 141.856C366.546 141.648 366.05 141.32 365.634 140.872C365.218 140.424 364.89 139.848 364.65 139.144C364.41 138.44 364.29 137.584 364.29 136.576C364.29 135.904 364.362 135.176 364.506 134.392C364.666 133.608 364.93 132.888 365.298 132.232C365.666 131.56 366.162 131 366.786 130.552C367.426 130.104 368.226 129.88 369.186 129.88C369.986 129.88 370.602 130 371.034 130.24C371.466 130.464 371.786 130.744 371.994 131.08C372.202 131.4 372.322 131.736 372.354 132.088C372.386 132.424 372.402 132.696 372.402 132.904C372.402 133.48 372.282 134.024 372.042 134.536C371.802 135.032 371.474 135.472 371.058 135.856C370.642 136.224 370.154 136.528 369.594 136.768C369.05 136.992 368.458 137.12 367.818 137.152C367.898 138.192 368.13 138.904 368.514 139.288C368.898 139.672 369.346 139.864 369.858 139.864ZM368.97 124H371.49L369.546 128.536H367.746L368.97 124ZM370.53 132.76C370.53 132.152 370.434 131.736 370.242 131.512C370.066 131.272 369.866 131.152 369.642 131.152C369.354 131.152 369.098 131.304 368.874 131.608C368.666 131.912 368.482 132.304 368.322 132.784C368.162 133.248 368.034 133.768 367.938 134.344C367.858 134.92 367.81 135.472 367.794 136C368.194 135.968 368.562 135.864 368.898 135.688C369.234 135.496 369.522 135.256 369.762 134.968C370.002 134.68 370.186 134.344 370.314 133.96C370.458 133.576 370.53 133.176 370.53 132.76ZM394.849 130V131.488C395.201 131.072 395.593 130.704 396.025 130.384C396.457 130.048 396.929 129.88 397.441 129.88C397.745 129.88 398.017 129.944 398.257 130.072C398.513 130.2 398.729 130.368 398.905 130.576C399.097 130.784 399.241 131.016 399.337 131.272C399.449 131.512 399.505 131.76 399.505 132.016C399.505 132.368 399.393 132.696 399.169 133C398.961 133.288 398.609 133.432 398.113 133.432C397.745 133.432 397.489 133.352 397.345 133.192C397.201 133.032 397.089 132.864 397.009 132.688C396.929 132.496 396.841 132.32 396.745 132.16C396.665 132 396.513 131.92 396.289 131.92C396.049 131.92 395.809 132.016 395.569 132.208C395.345 132.384 395.105 132.608 394.849 132.88V142H391.393V130H394.849ZM411.888 140.128C412.368 140.128 412.792 140.064 413.16 139.936C413.528 139.808 413.856 139.64 414.144 139.432C414.432 139.208 414.696 138.952 414.936 138.664C415.176 138.36 415.408 138.04 415.632 137.704H416.448C416.224 138.264 415.952 138.808 415.632 139.336C415.328 139.864 414.944 140.336 414.48 140.752C414.032 141.168 413.504 141.504 412.896 141.76C412.288 142.016 411.576 142.144 410.76 142.144C410.072 142.144 409.44 142.04 408.864 141.832C408.288 141.624 407.784 141.304 407.352 140.872C406.936 140.424 406.608 139.856 406.368 139.168C406.144 138.464 406.032 137.624 406.032 136.648C406.032 135.96 406.104 135.224 406.248 134.44C406.408 133.64 406.68 132.904 407.064 132.232C407.448 131.56 407.968 131 408.624 130.552C409.28 130.104 410.112 129.88 411.12 129.88C411.888 129.88 412.48 130 412.896 130.24C413.312 130.48 413.616 130.76 413.808 131.08C414.016 131.4 414.136 131.712 414.168 132.016C414.216 132.32 414.24 132.536 414.24 132.664C414.24 133.384 414.104 134.016 413.832 134.56C413.576 135.104 413.224 135.568 412.776 135.952C412.344 136.32 411.84 136.608 411.264 136.816C410.704 137.008 410.128 137.12 409.536 137.152C409.552 138.224 409.728 138.992 410.064 139.456C410.416 139.904 411.024 140.128 411.888 140.128ZM412.392 132.688C412.392 132.128 412.296 131.736 412.104 131.512C411.912 131.272 411.704 131.152 411.48 131.152C411.208 131.152 410.96 131.288 410.736 131.56C410.512 131.816 410.312 132.168 410.136 132.616C409.976 133.048 409.84 133.56 409.728 134.152C409.632 134.744 409.568 135.36 409.536 136C409.936 135.968 410.312 135.864 410.664 135.688C411.016 135.496 411.32 135.256 411.576 134.968C411.832 134.664 412.032 134.32 412.176 133.936C412.32 133.552 412.392 133.136 412.392 132.688ZM425.083 129.112V130.912C425.355 130.624 425.699 130.384 426.115 130.192C426.531 129.984 427.035 129.88 427.627 129.88C428.171 129.88 428.683 129.984 429.163 130.192C429.659 130.4 430.091 130.736 430.459 131.2C430.843 131.648 431.147 132.248 431.371 133C431.595 133.752 431.707 134.664 431.707 135.736C431.707 136.504 431.635 137.272 431.491 138.04C431.363 138.808 431.131 139.496 430.795 140.104C430.459 140.712 430.003 141.208 429.427 141.592C428.867 141.96 428.163 142.144 427.315 142.144C426.707 142.144 426.227 142.064 425.875 141.904C425.523 141.728 425.259 141.528 425.083 141.304V147.136L421.627 148V129.112H425.083ZM426.163 140.056C426.579 140.056 426.931 139.92 427.219 139.648C427.507 139.36 427.731 138.992 427.891 138.544C428.067 138.096 428.187 137.6 428.251 137.056C428.331 136.496 428.371 135.944 428.371 135.4C428.371 134.52 428.291 133.824 428.131 133.312C427.987 132.8 427.811 132.424 427.603 132.184C427.395 131.928 427.187 131.768 426.979 131.704C426.787 131.64 426.635 131.608 426.523 131.608C426.235 131.608 425.955 131.712 425.683 131.92C425.411 132.112 425.211 132.408 425.083 132.808V139.504C425.163 139.632 425.291 139.76 425.467 139.888C425.643 140 425.875 140.056 426.163 140.056ZM448.262 130V138.16C448.262 138.768 448.342 139.2 448.502 139.456C448.662 139.696 448.95 139.816 449.366 139.816C449.974 139.816 450.414 139.608 450.686 139.192C450.974 138.776 451.15 138.28 451.214 137.704H452.222C452.094 138.68 451.87 139.464 451.55 140.056C451.23 140.632 450.87 141.08 450.47 141.4C450.07 141.704 449.662 141.904 449.246 142C448.83 142.096 448.454 142.144 448.118 142.144C447.254 142.144 446.598 141.944 446.15 141.544C445.718 141.144 445.422 140.584 445.262 139.864C445.07 140.376 444.838 140.784 444.566 141.088C444.294 141.376 444.014 141.6 443.726 141.76C443.438 141.92 443.15 142.024 442.862 142.072C442.574 142.12 442.31 142.144 442.07 142.144C440.934 142.144 440.11 141.808 439.598 141.136C439.102 140.464 438.854 139.56 438.854 138.424V130H442.31V138.16C442.31 138.768 442.39 139.2 442.55 139.456C442.726 139.696 442.974 139.816 443.294 139.816C443.726 139.816 444.086 139.616 444.374 139.216C444.662 138.816 444.806 138.312 444.806 137.704V130H448.262ZM456.971 125.68L460.427 125.2V130.6C460.859 130.296 461.211 130.104 461.483 130.024C461.755 129.928 462.027 129.88 462.299 129.88C462.875 129.88 463.395 130.008 463.859 130.264C464.339 130.504 464.747 130.864 465.083 131.344C465.435 131.824 465.707 132.424 465.899 133.144C466.091 133.848 466.187 134.656 466.187 135.568C466.187 136.272 466.115 137.016 465.971 137.8C465.827 138.568 465.555 139.28 465.155 139.936C464.771 140.576 464.235 141.104 463.547 141.52C462.875 141.936 462.003 142.144 460.931 142.144C459.571 142.144 458.563 141.808 457.907 141.136C457.267 140.464 456.947 139.56 456.947 138.424L456.971 125.68ZM463.715 135.784C463.715 134.488 463.531 133.472 463.163 132.736C462.795 132 462.299 131.632 461.675 131.632C461.483 131.632 461.259 131.672 461.003 131.752C460.747 131.816 460.555 131.92 460.427 132.064V138.4C460.427 138.912 460.539 139.28 460.763 139.504C460.987 139.712 461.275 139.816 461.627 139.816C462.043 139.816 462.387 139.696 462.659 139.456C462.931 139.2 463.139 138.88 463.283 138.496C463.443 138.096 463.555 137.664 463.619 137.2C463.683 136.72 463.715 136.248 463.715 135.784ZM477.091 125.2V138.16C477.091 138.832 477.179 139.28 477.355 139.504C477.547 139.712 477.875 139.816 478.339 139.816C478.803 139.816 479.187 139.616 479.491 139.216C479.811 138.816 479.995 138.312 480.043 137.704H481.051C480.923 138.68 480.699 139.464 480.379 140.056C480.059 140.632 479.699 141.08 479.299 141.4C478.899 141.704 478.491 141.904 478.075 142C477.659 142.096 477.291 142.144 476.971 142.144C475.739 142.144 474.875 141.808 474.379 141.136C473.883 140.448 473.635 139.544 473.635 138.424V125.68L477.091 125.2ZM489.49 130V138.16C489.49 138.832 489.578 139.28 489.754 139.504C489.946 139.712 490.274 139.816 490.738 139.816C491.202 139.816 491.586 139.616 491.89 139.216C492.21 138.816 492.394 138.312 492.442 137.704H493.45C493.322 138.68 493.098 139.464 492.778 140.056C492.458 140.632 492.098 141.08 491.698 141.4C491.298 141.704 490.89 141.904 490.474 142C490.058 142.096 489.69 142.144 489.37 142.144C488.138 142.144 487.274 141.808 486.778 141.136C486.282 140.448 486.034 139.544 486.034 138.424V130H489.49ZM485.77 126.808C485.77 126.28 485.954 125.832 486.322 125.464C486.69 125.08 487.138 124.888 487.666 124.888C488.194 124.888 488.642 125.08 489.01 125.464C489.394 125.832 489.586 126.28 489.586 126.808C489.586 127.336 489.394 127.784 489.01 128.152C488.642 128.52 488.194 128.704 487.666 128.704C487.138 128.704 486.69 128.52 486.322 128.152C485.954 127.784 485.77 127.336 485.77 126.808ZM504.216 133.72C504.248 133.592 504.264 133.48 504.264 133.384C504.28 133.288 504.288 133.16 504.288 133C504.288 132.344 504.192 131.872 504 131.584C503.824 131.296 503.592 131.152 503.304 131.152C502.984 131.152 502.704 131.32 502.464 131.656C502.24 131.976 502.048 132.392 501.888 132.904C501.744 133.4 501.632 133.96 501.552 134.584C501.488 135.208 501.456 135.816 501.456 136.408C501.456 137.16 501.504 137.776 501.6 138.256C501.712 138.736 501.872 139.112 502.08 139.384C502.288 139.656 502.544 139.848 502.848 139.96C503.168 140.072 503.528 140.128 503.928 140.128C504.408 140.128 504.824 140.064 505.176 139.936C505.544 139.808 505.872 139.64 506.16 139.432C506.448 139.208 506.712 138.952 506.952 138.664C507.192 138.36 507.424 138.04 507.648 137.704H508.464C508.24 138.264 507.968 138.808 507.648 139.336C507.344 139.864 506.96 140.336 506.496 140.752C506.048 141.168 505.512 141.504 504.888 141.76C504.28 142.016 503.568 142.144 502.752 142.144C502.08 142.144 501.456 142.048 500.88 141.856C500.304 141.648 499.8 141.328 499.368 140.896C498.952 140.448 498.624 139.872 498.384 139.168C498.16 138.464 498.048 137.616 498.048 136.624C498.048 135.952 498.112 135.224 498.24 134.44C498.384 133.64 498.64 132.904 499.008 132.232C499.376 131.56 499.872 131 500.496 130.552C501.136 130.104 501.96 129.88 502.968 129.88C503.592 129.88 504.104 129.968 504.504 130.144C504.92 130.32 505.248 130.544 505.488 130.816C505.728 131.072 505.896 131.36 505.992 131.68C506.088 131.984 506.136 132.28 506.136 132.568C506.136 132.984 506.048 133.328 505.872 133.6C505.712 133.872 505.488 134.008 505.2 134.008C505.072 134.008 504.92 133.984 504.744 133.936C504.568 133.888 504.392 133.816 504.216 133.72ZM518.803 139.864C519.267 139.864 519.731 139.736 520.195 139.48C520.659 139.224 521.051 138.928 521.371 138.592C521.371 139.28 521.283 139.856 521.107 140.32C520.947 140.768 520.715 141.128 520.411 141.4C520.107 141.672 519.747 141.864 519.331 141.976C518.931 142.088 518.483 142.144 517.987 142.144C517.299 142.144 516.659 142.048 516.067 141.856C515.491 141.648 514.995 141.32 514.579 140.872C514.163 140.424 513.835 139.848 513.595 139.144C513.355 138.44 513.235 137.584 513.235 136.576C513.235 135.904 513.307 135.176 513.451 134.392C513.611 133.608 513.875 132.888 514.243 132.232C514.611 131.56 515.107 131 515.731 130.552C516.371 130.104 517.171 129.88 518.131 129.88C518.931 129.88 519.547 130 519.979 130.24C520.411 130.464 520.731 130.744 520.939 131.08C521.147 131.4 521.267 131.736 521.299 132.088C521.331 132.424 521.347 132.696 521.347 132.904C521.347 133.48 521.227 134.024 520.987 134.536C520.747 135.032 520.419 135.472 520.003 135.856C519.587 136.224 519.099 136.528 518.539 136.768C517.995 136.992 517.403 137.12 516.763 137.152C516.843 138.192 517.075 138.904 517.459 139.288C517.843 139.672 518.291 139.864 518.803 139.864ZM519.475 132.76C519.475 132.152 519.379 131.736 519.187 131.512C519.011 131.272 518.811 131.152 518.587 131.152C518.299 131.152 518.043 131.304 517.819 131.608C517.611 131.912 517.427 132.304 517.267 132.784C517.107 133.248 516.979 133.768 516.883 134.344C516.803 134.92 516.755 135.472 516.739 136C517.139 135.968 517.507 135.864 517.843 135.688C518.179 135.496 518.467 135.256 518.707 134.968C518.947 134.68 519.131 134.344 519.259 133.96C519.403 133.576 519.475 133.176 519.475 132.76Z" fill="#D17949"/>
<path d="M193.068 485.169C192.188 485.169 191.588 484.829 191.268 484.149C190.988 483.429 190.908 482.669 191.028 481.869C191.228 480.549 191.728 479.429 192.528 478.509C193.328 477.549 194.248 476.769 195.288 476.169C196.328 475.569 197.288 475.129 198.168 474.849C198.288 474.809 198.388 474.789 198.468 474.789C198.708 474.789 198.828 474.869 198.828 475.029C198.828 475.269 198.608 475.449 198.168 475.569C197.048 475.929 195.968 476.549 194.928 477.429C193.888 478.309 193.188 479.409 192.828 480.729C193.108 480.569 193.388 480.449 193.668 480.369C193.988 480.249 194.288 480.189 194.568 480.189C195.768 480.189 196.368 480.749 196.368 481.869C196.368 482.709 196.008 483.469 195.288 484.149C194.608 484.829 193.868 485.169 193.068 485.169ZM185.808 485.169C185.088 485.169 184.568 484.909 184.248 484.389C183.968 483.869 183.828 483.289 183.828 482.649C183.828 481.169 184.228 479.909 185.028 478.869C185.828 477.789 186.788 476.929 187.908 476.289C189.068 475.609 190.108 475.129 191.028 474.849C191.148 474.809 191.248 474.789 191.328 474.789C191.568 474.789 191.688 474.869 191.688 475.029C191.688 475.269 191.468 475.449 191.028 475.569C189.868 475.929 188.768 476.549 187.728 477.429C186.688 478.309 185.988 479.409 185.628 480.729C185.948 480.569 186.248 480.449 186.528 480.369C186.808 480.249 187.108 480.189 187.428 480.189C188.628 480.189 189.228 480.749 189.228 481.869C189.228 482.709 188.868 483.469 188.148 484.149C187.428 484.829 186.648 485.169 185.808 485.169ZM199.647 535.149C199.167 535.149 198.687 535.069 198.207 534.909C197.687 534.789 197.167 534.769 196.647 534.849C196.887 534.609 197.347 533.909 198.027 532.749C198.707 531.629 199.507 530.229 200.427 528.549C201.307 526.869 202.247 525.049 203.247 523.089C204.247 521.129 205.187 519.209 206.067 517.329C206.947 515.409 207.687 513.669 208.287 512.109C208.927 510.509 209.327 509.249 209.487 508.329C209.127 508.849 208.767 509.149 208.407 509.229C208.087 509.269 208.007 509.149 208.167 508.869C208.247 508.709 208.407 508.329 208.647 507.729C208.927 507.089 209.167 506.549 209.367 506.109C209.687 505.309 209.947 504.429 210.147 503.469C210.387 502.509 210.507 501.589 210.507 500.709C210.507 500.149 210.447 499.669 210.327 499.269C210.207 498.869 209.987 498.649 209.667 498.609C209.667 498.609 209.887 498.569 210.327 498.489C210.767 498.409 211.227 498.329 211.707 498.249C212.187 498.169 212.507 498.129 212.667 498.129C212.907 498.089 213.127 498.069 213.327 498.069C213.527 498.029 213.707 498.009 213.867 498.009C214.227 498.009 214.467 498.149 214.587 498.429C214.747 498.669 214.827 499.189 214.827 499.989C214.827 500.989 214.647 502.269 214.287 503.829C213.967 505.349 213.587 506.689 213.147 507.849C213.587 507.129 214.147 506.209 214.827 505.089C215.547 503.969 216.367 502.829 217.287 501.669C218.207 500.509 219.167 499.549 220.167 498.789C221.167 497.989 222.147 497.589 223.107 497.589C223.307 497.589 223.567 497.629 223.887 497.709C225.007 497.989 225.787 498.549 226.227 499.389C226.707 500.189 226.947 501.149 226.947 502.269C226.947 503.469 226.707 504.789 226.227 506.229C225.787 507.669 225.187 509.089 224.427 510.489C223.667 511.849 222.827 513.089 221.907 514.209C220.787 515.609 219.447 516.729 217.887 517.569C216.327 518.409 214.727 518.829 213.087 518.829C211.607 518.829 210.227 518.449 208.947 517.689L203.247 532.029C202.687 533.229 202.147 534.049 201.627 534.489C201.107 534.929 200.447 535.149 199.647 535.149ZM211.167 517.569C212.287 517.569 213.547 517.049 214.947 516.009C216.347 514.969 217.687 513.649 218.967 512.049C220.287 510.409 221.387 508.769 222.267 507.129C222.867 506.009 223.307 504.989 223.587 504.069C223.867 503.109 224.007 502.289 224.007 501.609C224.007 500.049 223.447 499.269 222.327 499.269C221.807 499.269 221.127 499.549 220.287 500.109C219.487 500.669 218.547 501.689 217.467 503.169C216.307 504.769 215.027 506.789 213.627 509.229C212.267 511.629 210.867 514.169 209.427 516.849C209.907 517.329 210.487 517.569 211.167 517.569ZM237.921 518.769C236.401 518.769 235.281 518.269 234.561 517.269C233.841 516.229 233.481 514.969 233.481 513.489C233.481 511.689 233.901 509.809 234.741 507.849C235.541 506.009 236.561 504.329 237.801 502.809C239.041 501.289 240.381 500.069 241.821 499.149C243.261 498.189 244.661 497.709 246.021 497.709C247.541 497.709 248.661 498.209 249.381 499.209C250.101 500.209 250.461 501.469 250.461 502.989C250.461 504.829 250.041 506.709 249.201 508.629C248.721 509.709 248.041 510.909 247.161 512.229C246.281 513.509 245.281 514.689 244.161 515.769C244.401 516.209 244.741 516.589 245.181 516.909C245.621 517.189 246.221 517.329 246.981 517.329C247.941 517.329 248.841 516.929 249.681 516.129C250.561 515.329 251.361 514.369 252.081 513.249C252.801 512.089 253.441 510.929 254.001 509.769C254.561 508.609 255.021 507.669 255.381 506.949C255.501 506.709 255.701 506.589 255.981 506.589C256.141 506.589 256.261 506.669 256.341 506.829C256.421 506.949 256.401 507.149 256.281 507.429C256.041 508.029 255.641 508.929 255.081 510.129C254.521 511.289 253.841 512.509 253.041 513.789C252.241 515.029 251.321 516.089 250.281 516.969C249.241 517.849 248.081 518.289 246.801 518.289C245.921 518.289 245.161 518.149 244.521 517.869C243.881 517.549 243.361 517.169 242.961 516.729C242.121 517.369 241.281 517.869 240.441 518.229C239.601 518.589 238.761 518.769 237.921 518.769ZM238.821 517.449C239.901 517.449 241.061 516.929 242.301 515.889C241.981 515.409 241.741 514.909 241.581 514.389C241.421 513.869 241.341 513.389 241.341 512.949C241.341 512.229 241.501 511.609 241.821 511.089C242.181 510.569 242.721 510.309 243.441 510.309C243.961 510.309 244.381 510.509 244.701 510.909C245.061 511.269 245.241 511.689 245.241 512.169C245.241 512.289 245.221 512.409 245.181 512.529C245.181 512.609 245.161 512.709 245.121 512.829C245.801 511.909 246.441 510.829 247.041 509.589C248.361 506.749 249.021 504.409 249.021 502.569C249.021 501.649 248.841 500.929 248.481 500.409C248.121 499.889 247.581 499.629 246.861 499.629C246.021 499.629 245.101 499.989 244.101 500.709C243.141 501.429 242.201 502.389 241.281 503.589C240.401 504.789 239.621 506.129 238.941 507.609C238.301 508.969 237.781 510.289 237.381 511.569C237.021 512.809 236.841 513.889 236.841 514.809C236.841 515.609 237.001 516.249 237.321 516.729C237.641 517.209 238.141 517.449 238.821 517.449ZM255.379 519.249C257.059 515.809 258.799 512.209 260.599 508.449C262.439 504.649 264.319 500.829 266.239 496.989C268.159 493.149 270.059 489.489 271.939 486.009C272.619 484.809 273.239 483.869 273.799 483.189C274.399 482.509 275.179 482.169 276.139 482.169C276.499 482.169 276.919 482.229 277.399 482.349C277.879 482.469 278.339 482.489 278.779 482.409C278.259 482.969 277.539 483.949 276.619 485.349C275.739 486.749 274.739 488.429 273.619 490.389C272.539 492.349 271.379 494.469 270.139 496.749C268.939 498.989 267.739 501.269 266.539 503.589C265.379 505.869 264.299 508.009 263.299 510.009C264.099 508.969 264.919 507.989 265.759 507.069C266.599 506.149 267.419 505.349 268.219 504.669C269.099 503.869 270.199 503.029 271.519 502.149C272.879 501.269 274.219 500.509 275.539 499.869C276.899 499.229 277.979 498.909 278.779 498.909C279.059 498.909 279.259 498.929 279.379 498.969C279.379 498.969 279.159 499.369 278.719 500.169C278.279 500.969 277.719 501.989 277.039 503.229C276.399 504.469 275.719 505.809 274.999 507.249C274.319 508.689 273.719 510.069 273.199 511.389C272.679 512.669 272.339 513.729 272.179 514.569C272.059 515.209 271.999 515.749 271.999 516.189C271.999 516.829 272.119 517.269 272.359 517.509C272.599 517.709 272.859 517.809 273.139 517.809C273.819 517.809 274.559 517.389 275.359 516.549C276.159 515.709 276.939 514.689 277.699 513.489C278.459 512.249 279.139 511.049 279.739 509.889C280.379 508.729 280.859 507.829 281.179 507.189C281.419 506.749 281.659 506.529 281.899 506.529C282.139 506.529 282.259 506.689 282.259 507.009C282.259 507.169 282.199 507.409 282.079 507.729C281.559 508.769 280.959 509.949 280.279 511.269C279.639 512.549 278.899 513.789 278.059 514.989C277.259 516.149 276.359 517.109 275.359 517.869C274.399 518.629 273.359 519.009 272.239 519.009C271.439 519.009 270.619 518.729 269.779 518.169C268.939 517.609 268.519 516.589 268.519 515.109C268.519 514.669 268.559 514.209 268.639 513.729C268.719 513.209 268.859 512.629 269.059 511.989C269.299 511.189 269.699 510.309 270.259 509.349C270.819 508.349 271.539 507.109 272.419 505.629C272.819 504.949 273.019 504.409 273.019 504.009C273.019 503.529 272.779 503.289 272.299 503.289C271.899 503.289 271.359 503.489 270.679 503.889C269.999 504.289 269.139 504.989 268.099 505.989C267.099 506.949 265.859 508.349 264.379 510.189C262.899 512.029 261.319 514.609 259.639 517.929C259.359 518.449 259.039 518.729 258.679 518.769C258.359 518.769 257.919 518.789 257.359 518.829C256.999 518.869 256.639 518.889 256.279 518.889C255.919 518.929 255.619 519.049 255.379 519.249ZM300.138 518.949C299.698 518.989 299.198 518.889 298.638 518.649C298.078 518.409 297.578 517.969 297.138 517.329C296.738 516.689 296.538 515.789 296.538 514.629C296.538 513.669 296.718 512.509 297.078 511.149C296.598 511.909 295.978 512.849 295.218 513.969C294.458 515.049 293.638 516.009 292.758 516.849C291.998 517.569 291.278 518.089 290.598 518.409C289.918 518.729 289.298 518.889 288.738 518.889C287.698 518.889 286.858 518.429 286.218 517.509C285.578 516.549 285.258 515.309 285.258 513.789C285.258 512.189 285.658 510.369 286.458 508.329C287.258 506.289 288.558 504.169 290.358 501.969C291.518 500.569 292.918 499.449 294.558 498.609C296.238 497.729 297.878 497.289 299.478 497.289C300.398 497.289 301.278 497.449 302.118 497.769C302.958 498.049 303.698 498.529 304.338 499.209C304.618 499.489 304.758 499.809 304.758 500.169C304.758 500.409 304.658 500.609 304.458 500.769C304.258 500.929 303.998 500.969 303.678 500.889C303.238 499.489 302.298 498.789 300.858 498.789C300.178 498.789 299.398 499.009 298.518 499.449C297.158 500.169 295.738 501.349 294.258 502.989C292.818 504.629 291.558 506.329 290.478 508.089C290.318 508.329 290.058 508.789 289.698 509.469C289.378 510.149 289.058 510.909 288.738 511.749C288.418 512.589 288.198 513.409 288.078 514.209C288.038 514.449 288.018 514.629 288.018 514.749C288.018 514.829 288.018 514.969 288.018 515.169C288.018 516.489 288.518 517.149 289.518 517.149C290.718 517.149 292.078 516.269 293.598 514.509C294.638 513.229 295.578 511.889 296.418 510.489C297.258 509.089 298.118 507.589 298.998 505.989C299.598 504.909 300.158 504.009 300.678 503.289C301.198 502.569 301.938 502.209 302.898 502.209C303.338 502.209 303.778 502.269 304.218 502.389C304.658 502.509 305.118 502.529 305.598 502.449C305.278 502.769 304.838 503.369 304.278 504.249C303.758 505.129 303.198 506.129 302.598 507.249C301.998 508.369 301.458 509.509 300.978 510.669C300.498 511.829 300.158 512.829 299.958 513.669C299.918 513.909 299.858 514.249 299.778 514.689C299.738 515.129 299.718 515.449 299.718 515.649C299.718 516.769 300.038 517.329 300.678 517.329C301.318 517.329 301.998 516.949 302.718 516.189C303.478 515.429 304.218 514.489 304.938 513.369C305.658 512.249 306.318 511.129 306.918 510.009C307.518 508.849 307.998 507.909 308.358 507.189C308.518 506.789 308.758 506.589 309.078 506.589C309.278 506.589 309.378 506.729 309.378 507.009C309.378 507.129 309.318 507.349 309.198 507.669C308.718 508.669 308.138 509.809 307.458 511.089C306.778 512.329 306.038 513.549 305.238 514.749C304.438 515.909 303.598 516.889 302.718 517.689C301.878 518.449 301.018 518.869 300.138 518.949ZM298.638 493.629C298.238 493.629 298.038 493.449 298.038 493.089C298.038 493.009 298.338 492.709 298.938 492.189C299.538 491.629 300.278 490.989 301.158 490.269C302.078 489.509 303.018 488.769 303.978 488.049C304.938 487.329 305.778 486.729 306.498 486.249C307.218 485.769 307.698 485.529 307.938 485.529C308.738 485.529 309.138 485.949 309.138 486.789C309.138 487.429 308.898 487.969 308.418 488.409C307.938 488.849 307.438 489.189 306.918 489.429C306.638 489.589 306.078 489.889 305.238 490.329C304.398 490.769 303.498 491.249 302.538 491.769C301.578 492.289 300.718 492.729 299.958 493.089C299.198 493.449 298.758 493.629 298.638 493.629ZM327.531 518.769C326.451 518.769 325.551 518.229 324.831 517.149C324.631 516.829 324.451 516.409 324.291 515.889C324.131 515.369 324.051 514.789 324.051 514.149C324.051 513.789 324.071 513.429 324.111 513.069C324.151 512.669 324.231 512.269 324.351 511.869C323.791 512.749 323.131 513.729 322.371 514.809C321.651 515.849 320.811 516.769 319.851 517.569C318.931 518.329 317.891 518.709 316.731 518.709C316.331 518.709 315.911 518.649 315.471 518.529C314.391 518.209 313.611 517.649 313.131 516.849C312.691 516.049 312.471 515.089 312.471 513.969C312.471 512.729 312.711 511.369 313.191 509.889C313.711 508.409 314.351 506.969 315.111 505.569C315.911 504.169 316.731 502.969 317.571 501.969C318.771 500.569 320.151 499.449 321.711 498.609C323.271 497.769 324.851 497.349 326.451 497.349C327.891 497.349 329.251 497.729 330.531 498.489C331.131 497.369 331.771 496.129 332.451 494.769C333.131 493.369 333.811 491.989 334.491 490.629C335.171 489.269 335.771 488.029 336.291 486.909C336.811 485.749 337.211 484.869 337.491 484.269C338.091 482.869 338.651 481.989 339.171 481.629C339.731 481.229 340.391 481.029 341.151 481.029C341.591 481.029 342.071 481.089 342.591 481.209C343.151 481.289 343.691 481.309 344.211 481.269C343.971 481.509 343.471 482.209 342.711 483.369C341.991 484.489 341.131 485.929 340.131 487.689C339.131 489.449 338.051 491.389 336.891 493.509C335.771 495.589 334.651 497.709 333.531 499.869C332.451 501.989 331.431 504.009 330.471 505.929C329.551 507.809 328.811 509.429 328.251 510.789C328.091 511.109 327.851 511.769 327.531 512.769C327.251 513.729 327.111 514.569 327.111 515.289C327.111 515.809 327.231 516.269 327.471 516.669C327.711 517.029 328.111 517.209 328.671 517.209C329.431 517.209 330.191 516.829 330.951 516.069C331.751 515.269 332.511 514.309 333.231 513.189C333.951 512.029 334.591 510.909 335.151 509.829C335.711 508.709 336.131 507.829 336.411 507.189C336.611 506.749 336.851 506.529 337.131 506.529C337.371 506.529 337.491 506.709 337.491 507.069C337.491 507.109 337.491 507.189 337.491 507.309C337.491 507.389 337.451 507.489 337.371 507.609C337.011 508.449 336.511 509.489 335.871 510.729C335.271 511.969 334.551 513.209 333.711 514.449C332.871 515.689 331.931 516.729 330.891 517.569C329.851 518.369 328.731 518.769 327.531 518.769ZM317.151 516.969C317.711 516.969 318.411 516.669 319.251 516.069C320.091 515.429 320.991 514.429 321.951 513.069C323.071 511.469 324.351 509.469 325.791 507.069C327.231 504.669 328.651 502.129 330.051 499.449C329.531 498.969 328.931 498.729 328.251 498.729C327.131 498.729 325.871 499.249 324.471 500.289C323.111 501.329 321.771 502.649 320.451 504.249C319.171 505.849 318.091 507.469 317.211 509.109C316.611 510.229 316.171 511.249 315.891 512.169C315.651 513.089 315.531 513.889 315.531 514.569C315.531 516.169 316.071 516.969 317.151 516.969ZM353.28 519.189C352.2 519.069 351.22 518.569 350.34 517.689C349.5 516.769 348.92 515.549 348.6 514.029C348.56 513.749 348.52 513.509 348.48 513.309C348.48 513.069 348.48 512.809 348.48 512.529C348.48 510.929 348.84 509.649 349.56 508.689C350.28 507.689 350.94 507.169 351.54 507.129C352.18 507.169 352.96 507.029 353.88 506.709C354.8 506.349 355.6 505.869 356.28 505.269C357.44 504.349 358.02 503.409 358.02 502.449C358.02 501.449 357.44 500.949 356.28 500.949C355.64 500.949 354.82 501.169 353.82 501.609C352.86 502.049 351.74 502.809 350.46 503.889C348.86 505.249 347.2 507.069 345.48 509.349C345.24 509.869 344.96 510.649 344.64 511.689C344.32 512.689 344.04 513.729 343.8 514.809C343.6 515.889 343.5 516.809 343.5 517.569C343.5 518.169 343.6 518.569 343.8 518.769H340.02C339.58 518.769 339.36 518.589 339.36 518.229C339.36 518.109 339.38 518.009 339.42 517.929C339.46 517.849 339.5 517.689 339.54 517.449C340.1 515.369 340.84 513.409 341.76 511.569C342.68 509.729 343.6 507.789 344.52 505.749C343.12 508.349 341.84 510.649 340.68 512.649C339.56 514.609 338.7 515.869 338.1 516.429C338.02 516.509 337.92 516.549 337.8 516.549C337.64 516.549 337.54 516.449 337.5 516.249C337.42 516.049 337.46 515.849 337.62 515.649C338.46 514.529 339.42 512.989 340.5 511.029C341.62 509.069 342.8 506.889 344.04 504.489C345.28 502.049 346.54 499.589 347.82 497.109C349.1 494.629 350.34 492.289 351.54 490.089C352.78 487.889 353.9 486.029 354.9 484.509C355.62 483.429 356.3 482.669 356.94 482.229C357.58 481.749 358.24 481.509 358.92 481.509H359.22C359.58 481.509 359.98 481.569 360.42 481.689C360.9 481.809 361.34 481.829 361.74 481.749C360.98 482.349 360.06 483.329 358.98 484.689C357.9 486.049 356.76 487.669 355.56 489.549C354.36 491.429 353.14 493.429 351.9 495.549C350.7 497.669 349.56 499.769 348.48 501.849C348.08 502.649 347.7 503.489 347.34 504.369C346.98 505.249 346.64 506.129 346.32 507.009C347.16 505.969 348.12 504.889 349.2 503.769C350.28 502.649 351.4 501.629 352.56 500.709C353.76 499.749 354.94 499.049 356.1 498.609C357.42 498.129 358.52 497.889 359.4 497.889C360.32 497.889 360.98 498.109 361.38 498.549C361.82 498.989 362.04 499.549 362.04 500.229C362.04 500.989 361.74 501.909 361.14 502.989C360.54 504.029 359.72 504.929 358.68 505.689C357.8 506.289 356.88 506.809 355.92 507.249C354.96 507.689 353.82 507.969 352.5 508.089C352.26 508.649 352.08 509.229 351.96 509.829C351.88 510.389 351.84 510.949 351.84 511.509C351.84 513.069 352.2 514.449 352.92 515.649C353.64 516.809 354.58 517.389 355.74 517.389C356.3 517.389 356.9 517.229 357.54 516.909C358.22 516.589 358.92 516.049 359.64 515.289C360.44 514.489 361.24 513.349 362.04 511.869C362.88 510.389 363.72 508.769 364.56 507.009C364.72 506.689 364.9 506.529 365.1 506.529C365.34 506.529 365.46 506.689 365.46 507.009C365.46 507.169 365.4 507.369 365.28 507.609C364.12 510.289 363 512.429 361.92 514.029C360.88 515.589 359.86 516.769 358.86 517.569C357.9 518.329 356.96 518.809 356.04 519.009C355.12 519.209 354.2 519.269 353.28 519.189ZM383.235 518.949C382.795 518.989 382.295 518.889 381.735 518.649C381.175 518.409 380.675 517.969 380.235 517.329C379.835 516.689 379.635 515.789 379.635 514.629C379.635 513.669 379.815 512.509 380.175 511.149C379.695 511.909 379.075 512.849 378.315 513.969C377.555 515.049 376.735 516.009 375.855 516.849C375.095 517.569 374.375 518.089 373.695 518.409C373.015 518.729 372.395 518.889 371.835 518.889C370.795 518.889 369.955 518.429 369.315 517.509C368.675 516.549 368.355 515.309 368.355 513.789C368.355 512.189 368.755 510.369 369.555 508.329C370.355 506.289 371.655 504.169 373.455 501.969C374.615 500.569 376.015 499.449 377.655 498.609C379.335 497.729 380.975 497.289 382.575 497.289C383.495 497.289 384.375 497.449 385.215 497.769C386.055 498.049 386.795 498.529 387.435 499.209C387.715 499.489 387.855 499.809 387.855 500.169C387.855 500.409 387.755 500.609 387.555 500.769C387.355 500.929 387.095 500.969 386.775 500.889C386.335 499.489 385.395 498.789 383.955 498.789C383.275 498.789 382.495 499.009 381.615 499.449C380.255 500.169 378.835 501.349 377.355 502.989C375.915 504.629 374.655 506.329 373.575 508.089C373.415 508.329 373.155 508.789 372.795 509.469C372.475 510.149 372.155 510.909 371.835 511.749C371.515 512.589 371.295 513.409 371.175 514.209C371.135 514.449 371.115 514.629 371.115 514.749C371.115 514.829 371.115 514.969 371.115 515.169C371.115 516.489 371.615 517.149 372.615 517.149C373.815 517.149 375.175 516.269 376.695 514.509C377.735 513.229 378.675 511.889 379.515 510.489C380.355 509.089 381.215 507.589 382.095 505.989C382.695 504.909 383.255 504.009 383.775 503.289C384.295 502.569 385.035 502.209 385.995 502.209C386.435 502.209 386.875 502.269 387.315 502.389C387.755 502.509 388.215 502.529 388.695 502.449C388.375 502.769 387.935 503.369 387.375 504.249C386.855 505.129 386.295 506.129 385.695 507.249C385.095 508.369 384.555 509.509 384.075 510.669C383.595 511.829 383.255 512.829 383.055 513.669C383.015 513.909 382.955 514.249 382.875 514.689C382.835 515.129 382.815 515.449 382.815 515.649C382.815 516.769 383.135 517.329 383.775 517.329C384.415 517.329 385.095 516.949 385.815 516.189C386.575 515.429 387.315 514.489 388.035 513.369C388.755 512.249 389.415 511.129 390.015 510.009C390.615 508.849 391.095 507.909 391.455 507.189C391.615 506.789 391.855 506.589 392.175 506.589C392.375 506.589 392.475 506.729 392.475 507.009C392.475 507.129 392.415 507.349 392.295 507.669C391.815 508.669 391.235 509.809 390.555 511.089C389.875 512.329 389.135 513.549 388.335 514.749C387.535 515.909 386.695 516.889 385.815 517.689C384.975 518.449 384.115 518.869 383.235 518.949ZM420.335 519.009C418.375 519.009 416.975 518.509 416.135 517.509C415.335 516.469 414.935 515.389 414.935 514.269C414.935 513.349 415.155 512.509 415.595 511.749C416.075 510.989 416.635 510.589 417.275 510.549C418.075 508.989 418.935 507.289 419.855 505.449C420.815 503.609 421.695 501.829 422.495 500.109C423.055 498.949 423.755 497.829 424.595 496.749C425.475 495.669 426.435 495.049 427.475 494.889H428.075C428.395 494.889 428.675 494.909 428.915 494.949C429.195 494.989 429.475 495.069 429.755 495.189C430.195 495.389 430.415 495.689 430.415 496.089C430.415 496.329 430.275 496.449 429.995 496.449C429.875 496.449 429.715 496.389 429.515 496.269C429.035 496.069 428.615 495.969 428.255 495.969C428.015 495.969 427.795 496.029 427.595 496.149C426.835 496.549 426.295 497.109 425.975 497.829C425.695 498.549 425.555 499.309 425.555 500.109C425.555 500.749 425.615 501.409 425.735 502.089C425.895 502.729 426.075 503.309 426.275 503.829C426.715 504.949 427.175 506.049 427.655 507.129C428.175 508.209 428.435 509.369 428.435 510.609C428.435 511.809 428.035 513.089 427.235 514.449C426.435 515.769 425.415 516.829 424.175 517.629L424.595 517.689C424.795 517.729 424.935 517.749 425.015 517.749C425.095 517.749 425.155 517.749 425.195 517.749C426.115 517.749 426.975 517.489 427.775 516.969C428.615 516.409 429.355 515.729 429.995 514.929C430.635 514.129 431.355 513.009 432.155 511.569C432.995 510.129 433.795 508.609 434.555 507.009C434.675 506.809 434.815 506.709 434.975 506.709C435.175 506.709 435.315 506.789 435.395 506.949C435.515 507.069 435.535 507.229 435.455 507.429C434.935 508.549 434.335 509.769 433.655 511.089C433.015 512.369 432.275 513.609 431.435 514.809C430.595 515.969 429.615 516.929 428.495 517.689C427.415 518.409 426.195 518.769 424.835 518.769C424.515 518.769 424.175 518.749 423.815 518.709C423.455 518.669 423.095 518.589 422.735 518.469C422.335 518.629 421.915 518.749 421.475 518.829C421.075 518.949 420.695 519.009 420.335 519.009ZM422.135 517.209C422.815 516.649 423.415 515.829 423.935 514.749C424.495 513.669 424.775 512.249 424.775 510.489C424.775 508.929 424.615 507.269 424.295 505.509C423.975 503.749 423.815 502.189 423.815 500.829C423.815 500.549 423.815 500.309 423.815 500.109C423.855 499.869 423.895 499.649 423.935 499.449C423.415 500.529 422.815 501.789 422.135 503.229C421.455 504.629 420.775 505.989 420.095 507.309C419.415 508.629 418.835 509.749 418.355 510.669C418.355 510.669 418.455 510.689 418.655 510.729C418.895 510.729 419.115 510.869 419.315 511.149C419.515 511.389 419.595 511.889 419.555 512.649C419.515 513.649 419.735 514.589 420.215 515.469C420.735 516.309 421.375 516.889 422.135 517.209ZM419.855 518.049C420.095 518.049 420.315 518.029 420.515 517.989C420.715 517.909 420.895 517.849 421.055 517.809C420.455 517.369 419.915 516.789 419.435 516.069C418.995 515.309 418.735 514.349 418.655 513.189C417.935 513.949 417.575 514.769 417.575 515.649C417.575 516.289 417.775 516.849 418.175 517.329C418.575 517.809 419.135 518.049 419.855 518.049ZM444.625 519.009C443.145 519.009 441.805 518.529 440.605 517.569C439.445 516.609 438.865 515.149 438.865 513.189C438.865 511.389 439.305 509.469 440.185 507.429C441.065 505.349 442.185 503.529 443.545 501.969C444.705 500.609 446.005 499.489 447.445 498.609C448.885 497.729 450.245 497.289 451.525 497.289C452.405 497.289 453.165 497.529 453.805 498.009C454.485 498.529 454.825 499.269 454.825 500.229C454.825 501.229 454.445 502.329 453.685 503.529C452.925 504.729 451.845 505.849 450.445 506.889C449.845 507.329 449.085 507.749 448.165 508.149C447.245 508.549 446.325 508.889 445.405 509.169C444.485 509.409 443.725 509.529 443.125 509.529C442.925 510.009 442.725 510.649 442.525 511.449C442.365 512.249 442.285 513.069 442.285 513.909C442.285 514.909 442.485 515.809 442.885 516.609C443.285 517.409 444.025 517.809 445.105 517.809C446.425 517.809 447.625 517.429 448.705 516.669C449.785 515.909 450.745 514.969 451.585 513.849C452.425 512.689 453.125 511.529 453.685 510.369C454.285 509.209 454.765 508.229 455.125 507.429C455.365 506.869 455.685 506.589 456.085 506.589C456.285 506.589 456.385 506.689 456.385 506.889C456.385 507.049 456.325 507.249 456.205 507.489C455.645 508.689 455.045 509.969 454.405 511.329C453.765 512.649 453.005 513.909 452.125 515.109C451.245 516.269 450.185 517.209 448.945 517.929C447.745 518.649 446.305 519.009 444.625 519.009ZM443.545 508.449C444.105 508.449 445.045 508.249 446.365 507.849C447.685 507.409 448.885 506.729 449.965 505.809C451.005 504.889 451.805 503.889 452.365 502.809C452.925 501.689 453.205 500.749 453.205 499.989C453.205 499.109 452.885 498.669 452.245 498.669C451.765 498.669 451.105 498.989 450.265 499.629C449.425 500.269 448.385 501.349 447.145 502.869C446.385 503.829 445.665 504.869 444.985 505.989C444.305 507.109 443.825 507.929 443.545 508.449ZM484.214 519.009C482.254 519.009 480.854 518.509 480.014 517.509C479.214 516.469 478.814 515.389 478.814 514.269C478.814 513.349 479.034 512.509 479.474 511.749C479.954 510.989 480.514 510.589 481.154 510.549C481.954 508.989 482.814 507.289 483.734 505.449C484.694 503.609 485.574 501.829 486.374 500.109C486.934 498.949 487.634 497.829 488.474 496.749C489.354 495.669 490.314 495.049 491.354 494.889H491.954C492.274 494.889 492.554 494.909 492.794 494.949C493.074 494.989 493.354 495.069 493.634 495.189C494.074 495.389 494.294 495.689 494.294 496.089C494.294 496.329 494.154 496.449 493.874 496.449C493.754 496.449 493.594 496.389 493.394 496.269C492.914 496.069 492.494 495.969 492.134 495.969C491.894 495.969 491.674 496.029 491.474 496.149C490.714 496.549 490.174 497.109 489.854 497.829C489.574 498.549 489.434 499.309 489.434 500.109C489.434 500.749 489.494 501.409 489.614 502.089C489.774 502.729 489.954 503.309 490.154 503.829C490.594 504.949 491.054 506.049 491.534 507.129C492.054 508.209 492.314 509.369 492.314 510.609C492.314 511.809 491.914 513.089 491.114 514.449C490.314 515.769 489.294 516.829 488.054 517.629L488.474 517.689C488.674 517.729 488.814 517.749 488.894 517.749C488.974 517.749 489.034 517.749 489.074 517.749C489.994 517.749 490.854 517.489 491.654 516.969C492.494 516.409 493.234 515.729 493.874 514.929C494.514 514.129 495.234 513.009 496.034 511.569C496.874 510.129 497.674 508.609 498.434 507.009C498.554 506.809 498.694 506.709 498.854 506.709C499.054 506.709 499.194 506.789 499.274 506.949C499.394 507.069 499.414 507.229 499.334 507.429C498.814 508.549 498.214 509.769 497.534 511.089C496.894 512.369 496.154 513.609 495.314 514.809C494.474 515.969 493.494 516.929 492.374 517.689C491.294 518.409 490.074 518.769 488.714 518.769C488.394 518.769 488.054 518.749 487.694 518.709C487.334 518.669 486.974 518.589 486.614 518.469C486.214 518.629 485.794 518.749 485.354 518.829C484.954 518.949 484.574 519.009 484.214 519.009ZM486.014 517.209C486.694 516.649 487.294 515.829 487.814 514.749C488.374 513.669 488.654 512.249 488.654 510.489C488.654 508.929 488.494 507.269 488.174 505.509C487.854 503.749 487.694 502.189 487.694 500.829C487.694 500.549 487.694 500.309 487.694 500.109C487.734 499.869 487.774 499.649 487.814 499.449C487.294 500.529 486.694 501.789 486.014 503.229C485.334 504.629 484.654 505.989 483.974 507.309C483.294 508.629 482.714 509.749 482.234 510.669C482.234 510.669 482.334 510.689 482.534 510.729C482.774 510.729 482.994 510.869 483.194 511.149C483.394 511.389 483.474 511.889 483.434 512.649C483.394 513.649 483.614 514.589 484.094 515.469C484.614 516.309 485.254 516.889 486.014 517.209ZM483.734 518.049C483.974 518.049 484.194 518.029 484.394 517.989C484.594 517.909 484.774 517.849 484.934 517.809C484.334 517.369 483.794 516.789 483.314 516.069C482.874 515.309 482.614 514.349 482.534 513.189C481.814 513.949 481.454 514.769 481.454 515.649C481.454 516.289 481.654 516.849 482.054 517.329C482.454 517.809 483.014 518.049 483.734 518.049ZM507.184 518.769C506.064 518.769 505.064 518.389 504.184 517.629C503.304 516.829 502.864 515.589 502.864 513.909C502.864 512.589 503.104 510.969 503.584 509.049C504.104 507.089 504.724 505.069 505.444 502.989C506.204 500.869 506.944 498.949 507.664 497.229H504.484C504.204 497.229 504.064 497.029 504.064 496.629C504.064 496.429 504.104 496.249 504.184 496.089C504.304 495.929 504.464 495.849 504.664 495.849H508.264C508.944 494.329 509.664 492.849 510.424 491.409C511.184 489.969 511.924 488.609 512.644 487.329C513.564 485.729 514.544 484.529 515.584 483.729C516.624 482.929 517.524 482.529 518.284 482.529C518.884 482.529 519.384 482.769 519.784 483.249C520.184 483.689 520.384 484.369 520.384 485.289C520.384 485.849 520.264 486.629 520.024 487.629C519.784 488.589 519.404 489.609 518.884 490.689C518.604 491.249 518.204 492.049 517.684 493.089C517.204 494.129 516.724 495.049 516.244 495.849H519.124C519.404 495.849 519.544 496.049 519.544 496.449C519.544 496.609 519.504 496.789 519.424 496.989C519.344 497.149 519.224 497.229 519.064 497.229H515.524C514.524 498.949 513.384 500.629 512.104 502.269C510.824 503.909 509.304 505.549 507.544 507.189C507.424 507.549 507.264 508.069 507.064 508.749C506.904 509.429 506.744 510.129 506.584 510.849C506.464 511.529 506.344 512.109 506.224 512.589C506.144 513.069 506.104 513.309 506.104 513.309C505.984 513.829 505.924 514.309 505.924 514.749C505.924 515.589 506.124 516.209 506.524 516.609C506.924 516.969 507.384 517.149 507.904 517.149C508.224 517.149 508.544 517.109 508.864 517.029C509.184 516.909 509.544 516.709 509.944 516.429C511.344 515.429 512.564 514.069 513.604 512.349C514.684 510.629 515.624 508.969 516.424 507.369C516.664 506.889 516.904 506.649 517.144 506.649C517.304 506.649 517.384 506.769 517.384 507.009C517.384 507.129 517.324 507.349 517.204 507.669C516.324 509.509 515.584 510.989 514.984 512.109C514.384 513.229 513.804 514.169 513.244 514.929C512.684 515.649 512.024 516.369 511.264 517.089C510.704 517.649 510.064 518.069 509.344 518.349C508.624 518.629 507.904 518.769 507.184 518.769ZM511.924 495.849H514.984C515.544 494.809 516.064 493.789 516.544 492.789C517.064 491.789 517.524 490.789 517.924 489.789C518.204 489.149 518.444 488.429 518.644 487.629C518.844 486.829 518.944 486.209 518.944 485.769C518.944 485.169 518.804 484.869 518.524 484.869C518.324 484.869 518.024 485.049 517.624 485.409C517.264 485.729 516.804 486.289 516.244 487.089C515.524 488.089 514.804 489.389 514.084 490.989C513.404 492.549 512.684 494.169 511.924 495.849ZM508.024 505.269C509.184 504.069 510.264 502.789 511.264 501.429C512.304 500.069 513.264 498.669 514.144 497.229H511.324C510.684 498.709 510.084 500.149 509.524 501.549C508.964 502.949 508.464 504.189 508.024 505.269ZM535.274 518.949C534.834 518.989 534.334 518.889 533.774 518.649C533.214 518.409 532.714 517.969 532.274 517.329C531.874 516.689 531.674 515.789 531.674 514.629C531.674 513.669 531.854 512.509 532.214 511.149C531.734 511.909 531.114 512.849 530.354 513.969C529.594 515.049 528.774 516.009 527.894 516.849C527.134 517.569 526.414 518.089 525.734 518.409C525.054 518.729 524.434 518.889 523.874 518.889C522.834 518.889 521.994 518.429 521.354 517.509C520.714 516.549 520.394 515.309 520.394 513.789C520.394 512.189 520.794 510.369 521.594 508.329C522.394 506.289 523.694 504.169 525.494 501.969C526.654 500.569 528.054 499.449 529.694 498.609C531.374 497.729 533.014 497.289 534.614 497.289C535.534 497.289 536.414 497.449 537.254 497.769C538.094 498.049 538.834 498.529 539.474 499.209C539.754 499.489 539.894 499.809 539.894 500.169C539.894 500.409 539.794 500.609 539.594 500.769C539.394 500.929 539.134 500.969 538.814 500.889C538.374 499.489 537.434 498.789 535.994 498.789C535.314 498.789 534.534 499.009 533.654 499.449C532.294 500.169 530.874 501.349 529.394 502.989C527.954 504.629 526.694 506.329 525.614 508.089C525.454 508.329 525.194 508.789 524.834 509.469C524.514 510.149 524.194 510.909 523.874 511.749C523.554 512.589 523.334 513.409 523.214 514.209C523.174 514.449 523.154 514.629 523.154 514.749C523.154 514.829 523.154 514.969 523.154 515.169C523.154 516.489 523.654 517.149 524.654 517.149C525.854 517.149 527.214 516.269 528.734 514.509C529.774 513.229 530.714 511.889 531.554 510.489C532.394 509.089 533.254 507.589 534.134 505.989C534.734 504.909 535.294 504.009 535.814 503.289C536.334 502.569 537.074 502.209 538.034 502.209C538.474 502.209 538.914 502.269 539.354 502.389C539.794 502.509 540.254 502.529 540.734 502.449C540.414 502.769 539.974 503.369 539.414 504.249C538.894 505.129 538.334 506.129 537.734 507.249C537.134 508.369 536.594 509.509 536.114 510.669C535.634 511.829 535.294 512.829 535.094 513.669C535.054 513.909 534.994 514.249 534.914 514.689C534.874 515.129 534.854 515.449 534.854 515.649C534.854 516.769 535.174 517.329 535.814 517.329C536.454 517.329 537.134 516.949 537.854 516.189C538.614 515.429 539.354 514.489 540.074 513.369C540.794 512.249 541.454 511.129 542.054 510.009C542.654 508.849 543.134 507.909 543.494 507.189C543.654 506.789 543.894 506.589 544.214 506.589C544.414 506.589 544.514 506.729 544.514 507.009C544.514 507.129 544.454 507.349 544.334 507.669C543.854 508.669 543.274 509.809 542.594 511.089C541.914 512.329 541.174 513.549 540.374 514.749C539.574 515.909 538.734 516.889 537.854 517.689C537.014 518.449 536.154 518.869 535.274 518.949ZM533.774 493.629C533.374 493.629 533.174 493.449 533.174 493.089C533.174 493.009 533.474 492.709 534.074 492.189C534.674 491.629 535.414 490.989 536.294 490.269C537.214 489.509 538.154 488.769 539.114 488.049C540.074 487.329 540.914 486.729 541.634 486.249C542.354 485.769 542.834 485.529 543.074 485.529C543.874 485.529 544.274 485.949 544.274 486.789C544.274 487.429 544.034 487.969 543.554 488.409C543.074 488.849 542.574 489.189 542.054 489.429C541.774 489.589 541.214 489.889 540.374 490.329C539.534 490.769 538.634 491.249 537.674 491.769C536.714 492.289 535.854 492.729 535.094 493.089C534.334 493.449 533.894 493.629 533.774 493.629ZM551.568 519.189C550.328 519.189 549.468 518.869 548.988 518.229C548.508 517.589 548.268 516.769 548.268 515.769C548.268 514.729 548.448 513.549 548.808 512.229C549.208 510.909 549.628 509.609 550.068 508.329C549.788 508.729 549.508 508.929 549.228 508.929C549.068 508.929 548.948 508.849 548.868 508.689C548.788 508.529 548.808 508.349 548.928 508.149C549.128 507.789 549.328 507.449 549.528 507.129C549.728 506.769 549.908 506.409 550.068 506.049C550.388 505.369 550.648 504.569 550.848 503.649C551.088 502.689 551.208 501.809 551.208 501.009C551.208 500.369 551.128 499.829 550.968 499.389C550.808 498.949 550.568 498.689 550.248 498.609C550.248 498.609 550.448 498.569 550.848 498.489C551.288 498.409 551.748 498.329 552.228 498.249C552.708 498.169 553.028 498.129 553.188 498.129C553.428 498.089 553.648 498.069 553.848 498.069C554.048 498.029 554.228 498.009 554.388 498.009C554.788 498.009 555.048 498.169 555.168 498.489C555.328 498.809 555.388 499.509 555.348 500.589C555.308 501.589 555.108 502.809 554.748 504.249C554.388 505.649 554.008 506.869 553.608 507.909C553.088 509.269 552.608 510.649 552.168 512.049C551.728 513.449 551.508 514.609 551.508 515.529C551.508 516.329 551.728 516.849 552.168 517.089C552.488 517.209 552.768 517.269 553.008 517.269C553.928 517.269 554.828 516.809 555.708 515.889C556.628 514.969 557.508 513.749 558.348 512.229C559.188 510.669 559.968 509.009 560.688 507.249C560.408 506.689 560.208 506.069 560.088 505.389C559.968 504.709 559.908 504.049 559.908 503.409C559.908 502.649 560.008 501.929 560.208 501.249C560.688 499.649 561.348 498.509 562.188 497.829C563.068 497.109 563.808 496.749 564.408 496.749C565.168 496.749 565.548 497.089 565.548 497.769C565.548 497.929 565.488 498.169 565.368 498.489C565.288 498.569 565.248 498.689 565.248 498.849C564.968 499.689 564.548 500.909 563.988 502.509C563.468 504.109 562.808 505.869 562.008 507.789C561.248 509.669 560.328 511.489 559.248 513.249C558.208 514.969 557.048 516.389 555.768 517.509C554.488 518.629 553.088 519.189 551.568 519.189ZM584.188 518.949C583.748 518.989 583.248 518.889 582.688 518.649C582.128 518.409 581.628 517.969 581.188 517.329C580.788 516.689 580.588 515.789 580.588 514.629C580.588 513.669 580.768 512.509 581.128 511.149C580.648 511.909 580.028 512.849 579.268 513.969C578.508 515.049 577.688 516.009 576.808 516.849C576.048 517.569 575.328 518.089 574.648 518.409C573.968 518.729 573.348 518.889 572.788 518.889C571.748 518.889 570.908 518.429 570.268 517.509C569.628 516.549 569.308 515.309 569.308 513.789C569.308 512.189 569.708 510.369 570.508 508.329C571.308 506.289 572.608 504.169 574.408 501.969C575.568 500.569 576.968 499.449 578.608 498.609C580.288 497.729 581.928 497.289 583.528 497.289C584.448 497.289 585.328 497.449 586.168 497.769C587.008 498.049 587.748 498.529 588.388 499.209C588.668 499.489 588.808 499.809 588.808 500.169C588.808 500.409 588.708 500.609 588.508 500.769C588.308 500.929 588.048 500.969 587.728 500.889C587.288 499.489 586.348 498.789 584.908 498.789C584.228 498.789 583.448 499.009 582.568 499.449C581.208 500.169 579.788 501.349 578.308 502.989C576.868 504.629 575.608 506.329 574.528 508.089C574.368 508.329 574.108 508.789 573.748 509.469C573.428 510.149 573.108 510.909 572.788 511.749C572.468 512.589 572.248 513.409 572.128 514.209C572.088 514.449 572.068 514.629 572.068 514.749C572.068 514.829 572.068 514.969 572.068 515.169C572.068 516.489 572.568 517.149 573.568 517.149C574.768 517.149 576.128 516.269 577.648 514.509C578.688 513.229 579.628 511.889 580.468 510.489C581.308 509.089 582.168 507.589 583.048 505.989C583.648 504.909 584.208 504.009 584.728 503.289C585.248 502.569 585.988 502.209 586.948 502.209C587.388 502.209 587.828 502.269 588.268 502.389C588.708 502.509 589.168 502.529 589.648 502.449C589.328 502.769 588.888 503.369 588.328 504.249C587.808 505.129 587.248 506.129 586.648 507.249C586.048 508.369 585.508 509.509 585.028 510.669C584.548 511.829 584.208 512.829 584.008 513.669C583.968 513.909 583.908 514.249 583.828 514.689C583.788 515.129 583.768 515.449 583.768 515.649C583.768 516.769 584.088 517.329 584.728 517.329C585.368 517.329 586.048 516.949 586.768 516.189C587.528 515.429 588.268 514.489 588.988 513.369C589.708 512.249 590.368 511.129 590.968 510.009C591.568 508.849 592.048 507.909 592.408 507.189C592.568 506.789 592.808 506.589 593.128 506.589C593.328 506.589 593.428 506.729 593.428 507.009C593.428 507.129 593.368 507.349 593.248 507.669C592.768 508.669 592.188 509.809 591.508 511.089C590.828 512.329 590.088 513.549 589.288 514.749C588.488 515.909 587.648 516.889 586.768 517.689C585.928 518.449 585.068 518.869 584.188 518.949ZM582.688 493.629C582.288 493.629 582.088 493.449 582.088 493.089C582.088 493.009 582.388 492.709 582.988 492.189C583.588 491.629 584.328 490.989 585.208 490.269C586.128 489.509 587.068 488.769 588.028 488.049C588.988 487.329 589.828 486.729 590.548 486.249C591.268 485.769 591.748 485.529 591.988 485.529C592.788 485.529 593.188 485.949 593.188 486.789C593.188 487.429 592.948 487.969 592.468 488.409C591.988 488.849 591.488 489.189 590.968 489.429C590.688 489.589 590.128 489.889 589.288 490.329C588.448 490.769 587.548 491.249 586.588 491.769C585.628 492.289 584.768 492.729 584.008 493.089C583.248 493.449 582.808 493.629 582.688 493.629ZM303.136 588.829C302.376 588.829 301.616 588.529 300.856 587.929C300.096 587.289 299.716 586.269 299.716 584.869C299.716 583.789 299.976 582.549 300.496 581.149C300.976 579.789 301.616 578.469 302.416 577.189C303.256 575.909 303.856 574.869 304.216 574.069C304.336 573.749 304.396 573.469 304.396 573.229C304.396 572.509 303.936 571.989 303.016 571.669C302.136 571.349 300.976 571.169 299.536 571.129L298.816 573.109C298.376 574.389 297.756 575.889 296.956 577.609C296.196 579.329 295.336 580.989 294.376 582.589C293.456 584.189 292.496 585.469 291.496 586.429C291.416 586.509 291.316 586.549 291.196 586.549C291.036 586.549 290.936 586.449 290.896 586.249C290.816 586.049 290.896 585.809 291.136 585.529C292.696 583.449 294.096 581.149 295.336 578.629C296.576 576.069 297.616 573.469 298.456 570.829C299.336 568.189 299.976 565.749 300.376 563.509C300.496 562.869 300.716 562.409 301.036 562.129C301.356 561.809 301.696 561.649 302.056 561.649C302.576 561.649 303.056 561.909 303.496 562.429C303.936 562.909 304.156 563.609 304.156 564.529C304.156 564.689 304.136 564.869 304.096 565.069C304.096 565.269 304.076 565.469 304.036 565.669C303.876 566.509 303.396 567.309 302.596 568.069C301.836 568.789 301.216 569.329 300.736 569.689C301.136 569.729 301.556 569.769 301.996 569.809C302.436 569.809 302.916 569.809 303.436 569.809C305.316 569.809 307.176 569.689 309.016 569.449C309.096 569.689 309.136 569.869 309.136 569.989C309.136 570.509 308.976 571.169 308.656 571.969C308.376 572.769 308.076 573.489 307.756 574.129C307.596 574.489 307.276 575.149 306.796 576.109C306.316 577.029 305.796 578.089 305.236 579.289C304.676 580.449 304.196 581.609 303.796 582.769C303.436 583.889 303.256 584.849 303.256 585.649C303.256 586.689 303.656 587.209 304.456 587.209C305.056 587.209 305.716 586.829 306.436 586.069C307.156 585.269 307.856 584.309 308.536 583.189C309.256 582.029 309.896 580.909 310.456 579.829C311.056 578.709 311.516 577.829 311.836 577.189C311.996 576.789 312.216 576.589 312.496 576.589C312.656 576.589 312.736 576.729 312.736 577.009C312.736 577.169 312.676 577.409 312.556 577.729C312.116 578.649 311.596 579.689 310.996 580.849C310.396 582.009 309.716 583.149 308.956 584.269C308.236 585.389 307.436 586.369 306.556 587.209C305.716 588.009 304.796 588.529 303.796 588.769C303.676 588.809 303.456 588.829 303.136 588.829ZM321.901 589.009C320.421 589.009 319.081 588.529 317.881 587.569C316.721 586.609 316.141 585.149 316.141 583.189C316.141 581.389 316.581 579.469 317.461 577.429C318.341 575.349 319.461 573.529 320.821 571.969C321.981 570.609 323.281 569.489 324.721 568.609C326.161 567.729 327.521 567.289 328.801 567.289C329.681 567.289 330.441 567.529 331.081 568.009C331.761 568.529 332.101 569.269 332.101 570.229C332.101 571.229 331.721 572.329 330.961 573.529C330.201 574.729 329.121 575.849 327.721 576.889C327.121 577.329 326.361 577.749 325.441 578.149C324.521 578.549 323.601 578.889 322.681 579.169C321.761 579.409 321.001 579.529 320.401 579.529C320.201 580.009 320.001 580.649 319.801 581.449C319.641 582.249 319.561 583.069 319.561 583.909C319.561 584.909 319.761 585.809 320.161 586.609C320.561 587.409 321.301 587.809 322.381 587.809C323.701 587.809 324.901 587.429 325.981 586.669C327.061 585.909 328.021 584.969 328.861 583.849C329.701 582.689 330.401 581.529 330.961 580.369C331.561 579.209 332.041 578.229 332.401 577.429C332.641 576.869 332.961 576.589 333.361 576.589C333.561 576.589 333.661 576.689 333.661 576.889C333.661 577.049 333.601 577.249 333.481 577.489C332.921 578.689 332.321 579.969 331.681 581.329C331.041 582.649 330.281 583.909 329.401 585.109C328.521 586.269 327.461 587.209 326.221 587.929C325.021 588.649 323.581 589.009 321.901 589.009ZM320.821 578.449C321.381 578.449 322.321 578.249 323.641 577.849C324.961 577.409 326.161 576.729 327.241 575.809C328.281 574.889 329.081 573.889 329.641 572.809C330.201 571.689 330.481 570.749 330.481 569.989C330.481 569.109 330.161 568.669 329.521 568.669C329.041 568.669 328.381 568.989 327.541 569.629C326.701 570.269 325.661 571.349 324.421 572.869C323.661 573.829 322.941 574.869 322.261 575.989C321.581 577.109 321.101 577.929 320.821 578.449ZM351.483 588.949C351.043 588.989 350.543 588.889 349.983 588.649C349.423 588.409 348.923 587.969 348.483 587.329C348.083 586.689 347.883 585.789 347.883 584.629C347.883 583.669 348.063 582.509 348.423 581.149C347.943 581.909 347.323 582.849 346.563 583.969C345.803 585.049 344.983 586.009 344.103 586.849C343.343 587.569 342.623 588.089 341.943 588.409C341.263 588.729 340.643 588.889 340.083 588.889C339.043 588.889 338.203 588.429 337.563 587.509C336.923 586.549 336.603 585.309 336.603 583.789C336.603 582.189 337.003 580.369 337.803 578.329C338.603 576.289 339.903 574.169 341.703 571.969C342.863 570.569 344.263 569.449 345.903 568.609C347.583 567.729 349.223 567.289 350.823 567.289C351.743 567.289 352.623 567.449 353.463 567.769C354.303 568.049 355.043 568.529 355.683 569.209C355.963 569.489 356.103 569.809 356.103 570.169C356.103 570.409 356.003 570.609 355.803 570.769C355.603 570.929 355.343 570.969 355.023 570.889C354.583 569.489 353.643 568.789 352.203 568.789C351.523 568.789 350.743 569.009 349.863 569.449C348.503 570.169 347.083 571.349 345.603 572.989C344.163 574.629 342.903 576.329 341.823 578.089C341.663 578.329 341.403 578.789 341.043 579.469C340.723 580.149 340.403 580.909 340.083 581.749C339.763 582.589 339.543 583.409 339.423 584.209C339.383 584.449 339.363 584.629 339.363 584.749C339.363 584.829 339.363 584.969 339.363 585.169C339.363 586.489 339.863 587.149 340.863 587.149C342.063 587.149 343.423 586.269 344.943 584.509C345.983 583.229 346.923 581.889 347.763 580.489C348.603 579.089 349.463 577.589 350.343 575.989C350.943 574.909 351.503 574.009 352.023 573.289C352.543 572.569 353.283 572.209 354.243 572.209C354.683 572.209 355.123 572.269 355.563 572.389C356.003 572.509 356.463 572.529 356.943 572.449C356.623 572.769 356.183 573.369 355.623 574.249C355.103 575.129 354.543 576.129 353.943 577.249C353.343 578.369 352.803 579.509 352.323 580.669C351.843 581.829 351.503 582.829 351.303 583.669C351.263 583.909 351.203 584.249 351.123 584.689C351.083 585.129 351.063 585.449 351.063 585.649C351.063 586.769 351.383 587.329 352.023 587.329C352.663 587.329 353.343 586.949 354.063 586.189C354.823 585.429 355.563 584.489 356.283 583.369C357.003 582.249 357.663 581.129 358.263 580.009C358.863 578.849 359.343 577.909 359.703 577.189C359.863 576.789 360.103 576.589 360.423 576.589C360.623 576.589 360.723 576.729 360.723 577.009C360.723 577.129 360.663 577.349 360.543 577.669C360.063 578.669 359.483 579.809 358.803 581.089C358.123 582.329 357.383 583.549 356.583 584.749C355.783 585.909 354.943 586.889 354.063 587.689C353.223 588.449 352.363 588.869 351.483 588.949ZM368.617 588.949C366.937 588.949 365.797 588.509 365.197 587.629C364.597 586.709 364.297 585.629 364.297 584.389C364.297 583.109 364.477 581.789 364.837 580.429C365.197 579.069 365.517 577.929 365.797 577.009C366.437 574.769 367.237 572.389 368.197 569.869C369.197 567.309 370.277 564.809 371.437 562.369C372.637 559.889 373.817 557.669 374.977 555.709C375.897 554.149 376.877 552.989 377.917 552.229C378.997 551.429 379.937 551.029 380.737 551.029C381.377 551.029 381.877 551.269 382.237 551.749C382.637 552.189 382.837 552.869 382.837 553.789C382.837 554.429 382.717 555.189 382.477 556.069C382.277 556.949 381.917 557.949 381.397 559.069C379.997 562.189 378.317 565.309 376.357 568.429C374.437 571.549 371.997 574.469 369.037 577.189C368.877 577.709 368.657 578.329 368.377 579.049C368.137 579.729 367.917 580.429 367.717 581.149C367.477 582.229 367.357 583.149 367.357 583.909C367.357 585.149 367.597 586.089 368.077 586.729C368.597 587.329 369.217 587.629 369.937 587.629C370.577 587.629 371.257 587.409 371.977 586.969C372.697 586.489 373.377 585.809 374.017 584.929C374.977 583.529 375.837 582.109 376.597 580.669C377.397 579.189 377.997 578.049 378.397 577.249C378.637 576.809 378.897 576.589 379.177 576.589C379.377 576.589 379.477 576.709 379.477 576.949C379.477 577.149 379.417 577.369 379.297 577.609C378.937 578.409 378.457 579.449 377.857 580.729C377.297 581.969 376.577 583.229 375.697 584.509C374.857 585.749 373.837 586.809 372.637 587.689C371.477 588.529 370.137 588.949 368.617 588.949ZM369.517 575.269C370.957 573.789 372.357 572.089 373.717 570.169C375.077 568.209 376.337 566.189 377.497 564.109C378.697 561.989 379.697 559.989 380.497 558.109C380.777 557.509 380.997 556.849 381.157 556.129C381.357 555.409 381.457 554.809 381.457 554.329C381.457 553.769 381.317 553.489 381.037 553.489C380.877 553.489 380.637 553.649 380.317 553.969C379.997 554.249 379.577 554.749 379.057 555.469C378.297 556.469 377.457 557.829 376.537 559.549C375.657 561.269 374.757 563.109 373.837 565.069C372.917 567.029 372.077 568.929 371.317 570.769C370.557 572.569 369.957 574.069 369.517 575.269ZM391.111 564.409C390.511 564.409 390.011 564.209 389.611 563.809C389.251 563.369 389.071 562.849 389.071 562.249C389.071 561.489 389.371 560.829 389.971 560.269C390.571 559.709 391.231 559.429 391.951 559.429C392.591 559.429 393.111 559.629 393.511 560.029C393.911 560.429 394.111 560.909 394.111 561.469C394.111 562.229 393.811 562.909 393.211 563.509C392.611 564.109 391.911 564.409 391.111 564.409ZM386.251 588.769C384.771 588.769 383.731 588.349 383.131 587.509C382.531 586.629 382.231 585.629 382.231 584.509C382.231 583.909 382.291 583.309 382.411 582.709C382.571 582.069 382.751 581.489 382.951 580.969L386.971 570.709C387.091 570.389 387.151 570.109 387.151 569.869C387.151 569.469 387.051 569.129 386.851 568.849C386.651 568.529 386.511 568.309 386.431 568.189L389.731 568.069C390.331 568.029 390.751 568.109 390.991 568.309C391.271 568.469 391.411 568.669 391.411 568.909C391.411 569.149 391.271 569.589 390.991 570.229L386.011 581.929C386.011 581.929 385.891 582.189 385.651 582.709C385.451 583.189 385.331 583.509 385.291 583.669C385.171 584.269 385.091 584.649 385.051 584.809C385.011 584.969 384.991 585.069 384.991 585.109C384.991 585.149 384.991 585.309 384.991 585.589C384.991 586.109 385.111 586.549 385.351 586.909C385.631 587.269 386.091 587.449 386.731 587.449C387.131 587.449 387.591 587.329 388.111 587.089C388.631 586.849 389.011 586.609 389.251 586.369C390.251 585.329 391.231 583.969 392.191 582.289C393.191 580.569 394.111 578.869 394.951 577.189C395.111 576.789 395.311 576.589 395.551 576.589C395.751 576.589 395.851 576.729 395.851 577.009C395.851 577.169 395.791 577.409 395.671 577.729C395.271 578.569 394.771 579.609 394.171 580.849C393.571 582.089 392.851 583.329 392.011 584.569C391.211 585.769 390.331 586.769 389.371 587.569C388.411 588.369 387.371 588.769 386.251 588.769ZM403.877 588.769C402.757 588.769 401.757 588.389 400.877 587.629C399.997 586.829 399.557 585.589 399.557 583.909C399.557 582.589 399.797 580.969 400.277 579.049C400.797 577.089 401.417 575.069 402.137 572.989C402.897 570.869 403.637 568.949 404.357 567.229H401.177C400.897 567.229 400.757 567.029 400.757 566.629C400.757 566.429 400.797 566.249 400.877 566.089C400.997 565.929 401.157 565.849 401.357 565.849H404.957C405.637 564.329 406.357 562.849 407.117 561.409C407.877 559.969 408.617 558.609 409.337 557.329C410.257 555.729 411.237 554.529 412.277 553.729C413.317 552.929 414.217 552.529 414.977 552.529C415.577 552.529 416.077 552.769 416.477 553.249C416.877 553.689 417.077 554.369 417.077 555.289C417.077 555.849 416.957 556.629 416.717 557.629C416.477 558.589 416.097 559.609 415.577 560.689C415.297 561.249 414.897 562.049 414.377 563.089C413.897 564.129 413.417 565.049 412.937 565.849H415.817C416.097 565.849 416.237 566.049 416.237 566.449C416.237 566.609 416.197 566.789 416.117 566.989C416.037 567.149 415.917 567.229 415.757 567.229H412.217C411.217 568.949 410.077 570.629 408.797 572.269C407.517 573.909 405.997 575.549 404.237 577.189C404.117 577.549 403.957 578.069 403.757 578.749C403.597 579.429 403.437 580.129 403.277 580.849C403.157 581.529 403.037 582.109 402.917 582.589C402.837 583.069 402.797 583.309 402.797 583.309C402.677 583.829 402.617 584.309 402.617 584.749C402.617 585.589 402.817 586.209 403.217 586.609C403.617 586.969 404.077 587.149 404.597 587.149C404.917 587.149 405.237 587.109 405.557 587.029C405.877 586.909 406.237 586.709 406.637 586.429C408.037 585.429 409.257 584.069 410.297 582.349C411.377 580.629 412.317 578.969 413.117 577.369C413.357 576.889 413.597 576.649 413.837 576.649C413.997 576.649 414.077 576.769 414.077 577.009C414.077 577.129 414.017 577.349 413.897 577.669C413.017 579.509 412.277 580.989 411.677 582.109C411.077 583.229 410.497 584.169 409.937 584.929C409.377 585.649 408.717 586.369 407.957 587.089C407.397 587.649 406.757 588.069 406.037 588.349C405.317 588.629 404.597 588.769 403.877 588.769ZM408.617 565.849H411.677C412.237 564.809 412.757 563.789 413.237 562.789C413.757 561.789 414.217 560.789 414.617 559.789C414.897 559.149 415.137 558.429 415.337 557.629C415.537 556.829 415.637 556.209 415.637 555.769C415.637 555.169 415.497 554.869 415.217 554.869C415.017 554.869 414.717 555.049 414.317 555.409C413.957 555.729 413.497 556.289 412.937 557.089C412.217 558.089 411.497 559.389 410.777 560.989C410.097 562.549 409.377 564.169 408.617 565.849ZM404.717 575.269C405.877 574.069 406.957 572.789 407.957 571.429C408.997 570.069 409.957 568.669 410.837 567.229H408.017C407.377 568.709 406.777 570.149 406.217 571.549C405.657 572.949 405.157 574.189 404.717 575.269ZM421.888 588.769C420.368 588.769 419.248 588.269 418.528 587.269C417.808 586.229 417.448 584.969 417.448 583.489C417.448 581.689 417.868 579.809 418.708 577.849C419.508 576.009 420.528 574.329 421.768 572.809C423.008 571.289 424.348 570.069 425.788 569.149C427.228 568.189 428.628 567.709 429.988 567.709C431.508 567.709 432.628 568.209 433.348 569.209C434.068 570.209 434.428 571.469 434.428 572.989C434.428 574.829 434.008 576.709 433.168 578.629C432.688 579.709 432.008 580.909 431.128 582.229C430.248 583.509 429.248 584.689 428.128 585.769C428.368 586.209 428.708 586.589 429.148 586.909C429.588 587.189 430.188 587.329 430.948 587.329C431.908 587.329 432.808 586.929 433.648 586.129C434.528 585.329 435.328 584.369 436.048 583.249C436.768 582.089 437.408 580.929 437.968 579.769C438.528 578.609 438.988 577.669 439.348 576.949C439.468 576.709 439.668 576.589 439.948 576.589C440.108 576.589 440.228 576.669 440.308 576.829C440.388 576.949 440.368 577.149 440.248 577.429C440.008 578.029 439.608 578.929 439.048 580.129C438.488 581.289 437.808 582.509 437.008 583.789C436.208 585.029 435.288 586.089 434.248 586.969C433.208 587.849 432.048 588.289 430.768 588.289C429.888 588.289 429.128 588.149 428.488 587.869C427.848 587.549 427.328 587.169 426.928 586.729C426.088 587.369 425.248 587.869 424.408 588.229C423.568 588.589 422.728 588.769 421.888 588.769ZM422.788 587.449C423.868 587.449 425.028 586.929 426.268 585.889C425.948 585.409 425.708 584.909 425.548 584.389C425.388 583.869 425.308 583.389 425.308 582.949C425.308 582.229 425.468 581.609 425.788 581.089C426.148 580.569 426.688 580.309 427.408 580.309C427.928 580.309 428.348 580.509 428.668 580.909C429.028 581.269 429.208 581.689 429.208 582.169C429.208 582.289 429.188 582.409 429.148 582.529C429.148 582.609 429.128 582.709 429.088 582.829C429.768 581.909 430.408 580.829 431.008 579.589C432.328 576.749 432.988 574.409 432.988 572.569C432.988 571.649 432.808 570.929 432.448 570.409C432.088 569.889 431.548 569.629 430.828 569.629C429.988 569.629 429.068 569.989 428.068 570.709C427.108 571.429 426.168 572.389 425.248 573.589C424.368 574.789 423.588 576.129 422.908 577.609C422.268 578.969 421.748 580.289 421.348 581.569C420.988 582.809 420.808 583.889 420.808 584.809C420.808 585.609 420.968 586.249 421.288 586.729C421.608 587.209 422.108 587.449 422.788 587.449ZM447.025 588.769C446.585 588.769 446.045 588.669 445.405 588.469C444.805 588.269 444.265 587.909 443.785 587.389C443.345 586.829 443.125 586.009 443.125 584.929C443.125 583.889 443.365 582.889 443.845 581.929C444.365 580.929 444.845 579.969 445.285 579.049C445.165 579.049 445.025 579.009 444.865 578.929C444.745 578.849 444.685 578.729 444.685 578.569C444.685 578.409 444.725 578.249 444.805 578.089C444.965 577.769 445.145 577.429 445.345 577.069C445.545 576.709 445.725 576.329 445.885 575.929C446.485 574.689 447.085 573.509 447.685 572.389C448.285 571.229 448.805 570.209 449.245 569.329C449.685 568.449 450.445 568.009 451.525 568.009H455.245C454.565 568.529 453.945 569.109 453.385 569.749C452.865 570.349 452.205 571.469 451.405 573.109C451.405 573.109 451.265 573.389 450.985 573.949C450.705 574.509 450.345 575.229 449.905 576.109C449.505 576.949 449.085 577.809 448.645 578.689C448.245 579.569 447.905 580.309 447.625 580.909C447.105 582.029 446.765 582.929 446.605 583.609C446.445 584.249 446.365 584.849 446.365 585.409C446.365 586.729 446.805 587.389 447.685 587.389C448.645 587.389 449.805 586.609 451.165 585.049C452.285 583.729 453.385 582.149 454.465 580.309C455.545 578.469 456.565 576.569 457.525 574.609C458.525 572.649 459.405 570.889 460.165 569.329C460.605 568.449 461.385 568.009 462.505 568.009H465.805C465.205 568.489 464.705 568.949 464.305 569.389C463.905 569.789 463.505 570.349 463.105 571.069C462.745 571.749 462.245 572.729 461.605 574.009C461.085 575.089 460.525 576.249 459.925 577.489C459.365 578.689 458.865 579.829 458.425 580.909C457.985 581.989 457.705 582.869 457.585 583.549C457.545 583.949 457.505 584.249 457.465 584.449C457.425 584.649 457.405 584.869 457.405 585.109C457.405 585.869 457.525 586.409 457.765 586.729C458.045 587.049 458.365 587.209 458.725 587.209C459.685 587.209 460.645 586.669 461.605 585.589C462.605 584.509 463.545 583.189 464.425 581.629C465.345 580.069 466.125 578.589 466.765 577.189C467.005 576.749 467.225 576.529 467.425 576.529C467.665 576.529 467.785 576.669 467.785 576.949C467.785 577.149 467.705 577.389 467.545 577.669C467.105 578.629 466.565 579.729 465.925 580.969C465.285 582.209 464.565 583.429 463.765 584.629C462.965 585.829 462.085 586.829 461.125 587.629C460.165 588.389 459.125 588.769 458.005 588.769C457.005 588.769 456.185 588.409 455.545 587.689C454.905 586.929 454.585 585.869 454.585 584.509C454.585 583.429 454.785 582.269 455.185 581.029C454.505 582.229 453.725 583.429 452.845 584.629C451.965 585.829 451.025 586.829 450.025 587.629C449.025 588.389 448.025 588.769 447.025 588.769ZM486.588 555.949C486.508 555.989 486.448 556.029 486.408 556.069C486.368 556.069 486.308 556.069 486.228 556.069C486.028 556.069 485.928 555.969 485.928 555.769C485.928 555.569 486.088 555.409 486.408 555.289C487.568 554.929 488.588 554.309 489.468 553.429C490.348 552.549 490.868 551.429 491.028 550.069C490.508 550.469 489.948 550.669 489.348 550.669C488.708 550.669 488.188 550.489 487.788 550.129C487.428 549.729 487.248 549.249 487.248 548.689C487.248 547.809 487.548 547.109 488.148 546.589C488.748 546.029 489.428 545.749 490.188 545.749C491.068 545.749 491.688 546.089 492.048 546.769C492.448 547.449 492.648 548.189 492.648 548.989C492.648 550.309 492.308 551.449 491.628 552.409C490.988 553.329 490.188 554.089 489.228 554.689C488.308 555.249 487.428 555.669 486.588 555.949ZM479.388 555.949C479.308 555.989 479.248 556.029 479.208 556.069C479.168 556.069 479.108 556.069 479.028 556.069C478.828 556.069 478.728 555.989 478.728 555.829C478.728 555.589 478.908 555.409 479.268 555.289C480.428 554.929 481.448 554.309 482.328 553.429C483.208 552.549 483.728 551.429 483.888 550.069C483.368 550.469 482.788 550.669 482.148 550.669C481.548 550.669 481.048 550.489 480.648 550.129C480.248 549.729 480.048 549.249 480.048 548.689C480.048 547.809 480.348 547.109 480.948 546.589C481.548 546.029 482.228 545.749 482.988 545.749C483.868 545.749 484.488 546.089 484.848 546.769C485.248 547.449 485.448 548.189 485.448 548.989C485.448 550.309 485.108 551.449 484.428 552.409C483.788 553.329 482.988 554.089 482.028 554.689C481.108 555.249 480.228 555.669 479.388 555.949Z" fill="#E2CBD6"/>
<g filter="url(#filter0_i_1992_99)">
<path d="M201.574 343.456V394.456C205.974 394.456 209.724 393.556 212.824 391.756C216.024 389.856 218.624 387.456 220.624 384.556C222.624 381.656 224.074 378.406 224.974 374.806C225.974 371.106 226.474 367.456 226.474 363.856C226.474 360.656 226.124 357.356 225.424 353.956C224.824 350.556 223.474 347.456 221.374 344.656C219.274 341.756 216.274 339.406 212.374 337.606C208.474 335.706 203.274 334.756 196.774 334.756C192.374 334.756 188.224 335.456 184.324 336.856C180.424 338.156 177.024 340.106 174.124 342.706C171.324 345.206 169.074 348.356 167.374 352.156C165.774 355.856 164.974 360.156 164.974 365.056C164.974 368.156 165.224 370.756 165.724 372.856C166.224 374.956 166.824 376.706 167.524 378.106C168.224 379.506 168.924 380.606 169.624 381.406C170.324 382.106 170.874 382.606 171.274 382.906C165.674 382.906 161.274 381.506 158.074 378.706C154.874 375.906 153.274 371.256 153.274 364.756C153.274 359.956 154.524 355.456 157.024 351.256C159.524 346.956 162.874 343.206 167.074 340.006C171.274 336.706 176.124 334.106 181.624 332.206C187.124 330.306 192.924 329.356 199.024 329.356C205.624 329.356 211.524 330.206 216.724 331.906C221.924 333.506 226.274 335.806 229.774 338.806C233.274 341.706 235.924 345.106 237.724 349.006C239.624 352.906 240.574 357.106 240.574 361.606C240.574 365.806 239.824 370.156 238.324 374.656C236.824 379.056 234.574 383.056 231.574 386.656C228.574 390.256 224.824 393.256 220.324 395.656C215.924 397.956 210.774 399.106 204.874 399.106H201.574V441.856H185.374V345.706L201.574 343.456ZM297.512 343.456V378.406H301.412C304.412 378.406 307.062 377.756 309.362 376.456C311.762 375.056 313.762 373.306 315.362 371.206C317.062 369.006 318.312 366.556 319.112 363.856C320.012 361.056 320.462 358.306 320.462 355.606C320.462 353.206 320.062 350.806 319.262 348.406C318.562 345.906 317.262 343.656 315.362 341.656C313.462 339.556 310.812 337.906 307.412 336.706C304.012 335.406 299.712 334.756 294.512 334.756C289.812 334.756 285.462 335.456 281.462 336.856C277.562 338.256 274.162 340.306 271.262 343.006C268.362 345.606 266.062 348.806 264.362 352.606C262.762 356.406 261.962 360.706 261.962 365.506C261.962 369.006 262.162 371.856 262.562 374.056C262.962 376.156 263.412 377.806 263.912 379.006C264.512 380.206 265.062 381.106 265.562 381.706C266.162 382.206 266.612 382.606 266.912 382.906C264.812 382.906 262.712 382.606 260.612 382.006C258.512 381.306 256.612 380.256 254.912 378.856C253.212 377.456 251.812 375.606 250.712 373.306C249.712 370.906 249.212 368.056 249.212 364.756C249.212 360.056 250.412 355.606 252.812 351.406C255.212 347.106 258.512 343.356 262.712 340.156C266.912 336.856 271.812 334.256 277.412 332.356C283.012 330.356 288.962 329.356 295.262 329.356C301.262 329.356 306.612 329.956 311.312 331.156C316.112 332.356 320.162 334.056 323.462 336.256C326.762 338.456 329.262 341.106 330.962 344.206C332.762 347.206 333.662 350.506 333.662 354.106C333.662 356.206 333.362 358.356 332.762 360.556C332.162 362.756 331.262 364.956 330.062 367.156C328.962 369.356 327.562 371.406 325.862 373.306C324.162 375.206 322.162 376.906 319.862 378.406C323.562 379.006 326.512 380.056 328.712 381.556C331.012 383.056 332.762 384.906 333.962 387.106C335.162 389.206 335.912 391.656 336.212 394.456C336.612 397.156 336.812 400.006 336.812 403.006C336.812 404.806 336.762 406.756 336.662 408.856C336.562 410.956 336.462 413.056 336.362 415.156C336.362 417.156 336.312 419.106 336.212 421.006C336.112 422.906 336.062 424.606 336.062 426.106C336.062 430.606 336.862 434.156 338.462 436.756C340.162 439.356 342.212 441.056 344.612 441.856C341.612 442.756 339.162 443.406 337.262 443.806C335.362 444.206 333.512 444.406 331.712 444.406C327.212 444.406 323.862 442.956 321.662 440.056C319.562 437.156 318.512 433.456 318.512 428.956C318.512 427.056 318.562 424.906 318.662 422.506C318.862 420.106 319.062 417.706 319.262 415.306C319.562 412.806 319.762 410.406 319.862 408.106C320.062 405.706 320.162 403.556 320.162 401.656C320.162 398.256 319.762 395.406 318.962 393.106C318.262 390.706 317.262 388.856 315.962 387.556C314.762 386.156 313.262 385.156 311.462 384.556C309.762 383.956 307.912 383.656 305.912 383.656C304.812 383.656 303.412 383.756 301.712 383.956C300.112 384.156 298.712 384.406 297.512 384.706V441.856H281.312V345.706L297.512 343.456ZM417.564 441.856V387.856C413.764 386.056 409.414 384.556 404.514 383.356C399.714 382.056 394.814 381.106 389.814 380.506C388.614 384.906 387.514 389.456 386.514 394.156C385.514 398.756 384.664 403.356 383.964 407.956C383.264 412.456 382.714 416.906 382.314 421.306C381.914 425.606 381.714 429.706 381.714 433.606C381.714 438.006 382.014 442.306 382.614 446.506C383.314 450.706 384.764 454.856 386.964 458.956C384.664 458.956 382.264 458.706 379.764 458.206C377.264 457.706 374.964 456.556 372.864 454.756C370.764 453.056 369.014 450.556 367.614 447.256C366.314 444.056 365.664 439.706 365.664 434.206C365.664 430.706 365.914 426.806 366.414 422.506C366.914 418.206 367.664 413.706 368.664 409.006C369.664 404.306 370.864 399.506 372.264 394.606C373.764 389.606 375.414 384.706 377.214 379.906C374.314 380.006 371.564 380.256 368.964 380.656C366.464 381.056 364.264 381.656 362.364 382.456C360.564 383.156 359.114 384.006 358.014 385.006C356.914 386.006 356.364 387.106 356.364 388.306C356.364 388.706 356.414 389.006 356.514 389.206C359.114 390.006 360.414 391.656 360.414 394.156C360.414 395.956 359.764 397.206 358.464 397.906C357.164 398.606 355.764 398.956 354.264 398.956C351.764 398.956 349.464 398.256 347.364 396.856C345.164 395.356 344.064 392.806 344.064 389.206C344.064 386.806 344.814 384.656 346.314 382.756C347.714 380.856 349.664 379.256 352.164 377.956C354.764 376.556 357.764 375.506 361.164 374.806C364.664 374.106 368.464 373.756 372.564 373.756C373.664 373.756 374.814 373.806 376.014 373.906C377.214 373.906 378.414 373.956 379.614 374.056C382.114 368.056 384.914 362.356 388.014 356.956C391.114 351.456 394.464 346.706 398.064 342.706C401.664 338.606 405.464 335.356 409.464 332.956C413.464 330.556 417.664 329.356 422.064 329.356C423.564 329.356 425.414 329.506 427.614 329.806C429.914 330.106 432.064 330.656 434.064 331.456V441.856H417.564ZM391.314 375.556C396.314 376.456 401.114 377.606 405.714 379.006C410.314 380.306 414.264 381.756 417.564 383.356V336.556C415.064 336.756 412.614 337.906 410.214 340.006C407.814 342.006 405.464 344.756 403.164 348.256C400.964 351.756 398.864 355.856 396.864 360.556C394.864 365.156 393.014 370.156 391.314 375.556ZM544.095 329.656V441.856H527.745V385.456H495.345V441.856H478.995V337.306C473.495 339.506 469.145 343.056 465.945 347.956C462.845 352.756 461.295 358.506 461.295 365.206C461.295 368.706 461.495 371.506 461.895 373.606C462.395 375.706 462.995 377.406 463.695 378.706C464.395 380.006 465.145 380.956 465.945 381.556C466.745 382.156 467.495 382.606 468.195 382.906C465.595 382.906 463.145 382.606 460.845 382.006C458.645 381.306 456.695 380.206 454.995 378.706C453.395 377.206 452.095 375.306 451.095 373.006C450.095 370.606 449.595 367.706 449.595 364.306C449.595 359.606 450.695 355.156 452.895 350.956C455.095 346.656 458.045 342.906 461.745 339.706C465.445 336.506 469.645 334.006 474.345 332.206C479.145 330.306 484.095 329.356 489.195 329.356C490.295 329.356 491.345 329.406 492.345 329.506C493.345 329.506 494.345 329.556 495.345 329.656V376.606H527.745V334.306L544.095 329.656ZM624.095 441.856V387.856C620.295 386.056 615.945 384.556 611.045 383.356C606.245 382.056 601.345 381.106 596.345 380.506C595.145 384.906 594.045 389.456 593.045 394.156C592.045 398.756 591.195 403.356 590.495 407.956C589.795 412.456 589.245 416.906 588.845 421.306C588.445 425.606 588.245 429.706 588.245 433.606C588.245 438.006 588.545 442.306 589.145 446.506C589.845 450.706 591.295 454.856 593.495 458.956C591.195 458.956 588.795 458.706 586.295 458.206C583.795 457.706 581.495 456.556 579.395 454.756C577.295 453.056 575.545 450.556 574.145 447.256C572.845 444.056 572.195 439.706 572.195 434.206C572.195 430.706 572.445 426.806 572.945 422.506C573.445 418.206 574.195 413.706 575.195 409.006C576.195 404.306 577.395 399.506 578.795 394.606C580.295 389.606 581.945 384.706 583.745 379.906C580.845 380.006 578.095 380.256 575.495 380.656C572.995 381.056 570.795 381.656 568.895 382.456C567.095 383.156 565.645 384.006 564.545 385.006C563.445 386.006 562.895 387.106 562.895 388.306C562.895 388.706 562.945 389.006 563.045 389.206C565.645 390.006 566.945 391.656 566.945 394.156C566.945 395.956 566.295 397.206 564.995 397.906C563.695 398.606 562.295 398.956 560.795 398.956C558.295 398.956 555.995 398.256 553.895 396.856C551.695 395.356 550.595 392.806 550.595 389.206C550.595 386.806 551.345 384.656 552.845 382.756C554.245 380.856 556.195 379.256 558.695 377.956C561.295 376.556 564.295 375.506 567.695 374.806C571.195 374.106 574.995 373.756 579.095 373.756C580.195 373.756 581.345 373.806 582.545 373.906C583.745 373.906 584.945 373.956 586.145 374.056C588.645 368.056 591.445 362.356 594.545 356.956C597.645 351.456 600.995 346.706 604.595 342.706C608.195 338.606 611.995 335.356 615.995 332.956C619.995 330.556 624.195 329.356 628.595 329.356C630.095 329.356 631.945 329.506 634.145 329.806C636.445 330.106 638.595 330.656 640.595 331.456V441.856H624.095ZM597.845 375.556C602.845 376.456 607.645 377.606 612.245 379.006C616.845 380.306 620.795 381.756 624.095 383.356V336.556C621.595 336.756 619.145 337.906 616.745 340.006C614.345 342.006 611.995 344.756 609.695 348.256C607.495 351.756 605.395 355.856 603.395 360.556C601.395 365.156 599.545 370.156 597.845 375.556Z" fill="white" fill-opacity="0.88"/>
</g>
<defs>
<filter id="filter0_i_1992_99" x="153.274" y="326.356" width="487.321" height="132.6" filterUnits="userSpaceOnUse" color-interpolation-filters="sRGB">
<feFlood flood-opacity="0" result="BackgroundImageFix"/>
<feBlend mode="normal" in="SourceGraphic" in2="BackgroundImageFix" result="shape"/>
<feColorMatrix in="SourceAlpha" type="matrix" values="0 0 0 0 0 0 0 0 0 0 0 0 0 0 0 0 0 0 127 0" result="hardAlpha"/>
<feOffset dy="-3"/>
<feGaussianBlur stdDeviation="5"/>
<feComposite in2="hardAlpha" operator="arithmetic" k2="-1" k3="1"/>
<feColorMatrix type="matrix" values="0 0 0 0 0 0 0 0 0 0 0 0 0 0 0 0 0 0 0.25 0"/>
<feBlend mode="normal" in2="shape" result="effect1_innerShadow_1992_99"/>
</filter>
</defs>
</svg>
