<svg width="39" height="32" viewBox="0 0 39 32" fill="none" xmlns="http://www.w3.org/2000/svg">
<circle cx="21" cy="16" r="16" fill="#D9D9D9"/>
<path d="M11.8971 7.30056L3.06194 21.6051C1.77995 23.6807 3.3797 26.3372 5.81389 26.1749L7.05152 26.0924C8.18779 26.0166 9.1832 25.3041 9.62119 24.2529L11.601 19.5014C11.7669 19.1032 12.156 18.8438 12.5875 18.8438C13.1778 18.8438 13.6562 19.3222 13.6562 19.9125V22.9688C13.6562 24.6256 14.9994 25.9688 16.6562 25.9688H23.9375C24.5866 25.9688 25.2182 25.7582 25.7375 25.3687L26.6113 24.7134C27.0692 24.37 27.4193 23.9027 27.6203 23.3668L28.6287 20.6777C28.9249 19.8877 29.5401 19.2589 30.3235 18.9456L34.1935 17.3976C34.7399 17.179 35.21 16.8046 35.5452 16.3209L37.2877 13.8063C37.4281 13.6038 37.5306 13.3775 37.5904 13.1384L37.9404 11.7384C38.303 10.2879 38.1701 8.75782 37.5629 7.39153C36.9238 5.95349 35.4585 5.06381 33.8878 5.16006L24.4607 5.7377C23.9934 5.76634 23.5259 5.68519 23.0955 5.50075L20.6421 4.4493C19.9668 4.15987 19.2087 4.12834 18.5117 4.36069L13.5008 6.03099C12.834 6.25325 12.2664 6.70257 11.8971 7.30056Z" fill="#D9D9D9"/>
<path d="M14.7833 21.7753C14.7833 20.7316 15.0809 19.1312 15.6762 16.9743C13.813 17.0207 12.3867 17.0749 11.397 17.1367C11.0955 17.6856 10.8211 18.2074 10.5737 18.7022L9.85469 20.1286C8.90374 21.9995 8.04945 23.2326 7.29182 23.8279C6.71198 24.2918 6.09736 24.5238 5.44795 24.5238C4.95315 24.5238 4.57819 24.3614 4.32307 24.0367C4.2303 23.9052 4.17617 23.7816 4.16071 23.6656C4.14525 23.5419 4.17231 23.4608 4.24189 23.422C5.13097 23.0897 5.85382 22.5832 6.41046 21.9029C6.89753 21.2921 7.38459 20.546 7.87168 19.6648L9.18209 17.3222L8.45154 17.4266C7.98758 17.5116 7.75566 17.4382 7.75566 17.2062C7.75566 16.9743 7.89484 16.754 8.17319 16.5452C8.66018 16.1819 9.13566 15.9422 9.5995 15.8262L10.0982 15.7103C11.3661 13.6152 12.3325 12.1501 12.9974 11.3151C13.67 10.4802 14.2807 9.78431 14.8296 9.22773C15.3863 8.67103 15.97 8.18012 16.5808 7.75499C17.9183 6.83492 19.2364 6.375 20.5352 6.375C20.9296 6.375 21.1963 6.45611 21.3354 6.61844C21.5674 6.87363 21.6407 7.14806 21.5557 7.44185C21.4707 7.72792 21.3315 8.14153 21.1382 8.68267C19.9013 12.0535 19.1475 14.1409 18.877 14.9449C23.0144 15.316 24.9377 15.9485 24.9377 15.9485L24.344 15.875C24.344 15.875 26.5097 16.062 26.5097 16.2089C26.5097 16.3481 27.2634 16.9117 27.1707 17.0973C27.0857 17.2828 26.8901 17.4149 26.0668 17.6585C25.2435 17.9021 24.2019 17.0973 18.2507 16.9395C17.725 18.7563 17.4235 20.0126 17.3462 20.7085C17.2766 21.4042 17.2997 21.8758 17.4157 22.1233C17.5394 22.3629 17.7095 22.4827 17.926 22.4827C18.1502 22.4827 18.3319 22.4634 18.4711 22.4248C18.6101 22.3783 18.7339 22.3281 18.8422 22.274L19.1437 22.1348C19.221 22.0885 19.2983 22.0652 19.3756 22.0652C19.4606 22.0652 19.5302 22.1194 19.5844 22.2277C19.6384 22.3281 19.6655 22.4634 19.6655 22.6335C19.6655 22.8036 19.5921 23.0084 19.4452 23.2481C19.306 23.48 19.1204 23.6888 18.8885 23.8744C18.3473 24.3073 17.7366 24.5238 17.0562 24.5238C16.0125 24.5238 15.3167 24.0598 14.9688 23.1322C14.8452 22.8074 14.7833 22.5175 14.7833 22.2624V21.7753ZM12.464 15.3044C13.8401 15.1265 15.1157 15.0223 16.2908 14.9913C16.5073 14.3264 16.7392 13.6692 16.9867 13.0199L17.7056 11.1644C17.9531 10.5769 18.1965 10.0201 18.4363 9.49444L19.1089 8.06802C17.5008 8.48554 15.912 9.87326 14.3426 12.2313C14.0101 12.7261 13.6854 13.2363 13.3685 13.7621L12.464 15.3044ZM24.1534 21.5898C23.5812 22.4479 23.0169 23.1476 22.4602 23.6888C21.9114 24.2222 21.378 24.489 20.86 24.489C20.5971 24.489 20.3999 24.4271 20.2685 24.3034C20.0443 24.1024 19.9322 23.9129 19.9322 23.7352C19.9322 23.5574 19.9902 23.426 20.1061 23.3409C21.2736 22.4982 22.5685 20.0242 23.991 15.9191L24.6753 13.9707C25.4638 11.7442 26.1326 10.3642 26.6814 9.83074C26.8748 9.68385 27.0757 9.61046 27.2845 9.61046C27.4932 9.61046 27.6749 9.64526 27.8295 9.71484C27.9841 9.77659 28.1195 9.85782 28.2354 9.95828C28.4983 10.1902 28.6297 10.4608 28.6297 10.7701C28.6297 10.8861 28.5756 11.0523 28.4673 11.2687C28.3591 11.4852 28.2354 11.7674 28.0962 12.1153L26.6235 16.2089C28.5021 15.8687 30.0523 15.0917 31.2737 13.878C32.4179 12.7415 32.99 11.5741 32.99 10.3758C32.99 9.23937 32.4798 8.49326 31.4594 8.13761C31.1114 8.01399 30.7055 7.95212 30.2417 7.95212C29.7855 7.95212 29.3178 8.01007 28.8384 8.12609C28.3591 8.24199 27.8875 8.3928 27.4236 8.57829C26.4882 8.9571 25.7228 9.4017 25.1275 9.91197C24.9729 10.0589 24.8028 10.1323 24.6172 10.1323C24.4317 10.1323 24.2578 10.0937 24.0954 10.0164C23.9331 9.93904 23.79 9.83846 23.6664 9.71484C23.3803 9.44421 23.2372 9.16978 23.2372 8.89143C23.2372 8.60536 23.3378 8.35029 23.5387 8.12609C23.7398 7.90189 24.0065 7.70084 24.339 7.52307C24.6714 7.33747 25.0541 7.17514 25.4871 7.03596C25.9199 6.88907 26.3645 6.76533 26.8206 6.66487C27.7484 6.47154 28.6684 6.375 29.5806 6.375C30.5007 6.375 31.3394 6.4909 32.0972 6.72282C32.8625 6.94702 33.4926 7.25244 33.9874 7.63897C34.9847 8.41204 35.4833 9.39398 35.4833 10.5846V10.7701C35.4137 12.2313 34.8609 13.5185 33.825 14.6318C32.9204 15.5982 31.7531 16.3597 30.3228 16.9163C29.0317 17.4266 27.8102 17.6817 26.6583 17.6817H26.3568C26.2562 17.6817 26.1597 17.6739 26.0668 17.6585C25.371 19.4135 24.7332 20.7239 24.1534 21.5898Z" fill="#3F7C8C"/>
</svg>
