<svg width="81" height="59" viewBox="0 0 81 59" fill="none" xmlns="http://www.w3.org/2000/svg">
<mask id="path-1-inside-1_2008_206" fill="white">
<path fill-rule="evenodd" clip-rule="evenodd" d="M40.5797 0H2C0.895431 0 0 0.895431 0 2V17.4634C0 17.96 0.184792 18.4389 0.518412 18.8069L32.9113 54.53C35.2054 57.06 38.4616 58.5029 41.8768 58.5029V58.5029C45.4426 58.5029 48.8268 56.9305 51.1264 54.2053L80.5285 19.3612C80.833 19.0004 81 18.5435 81 18.0714V2C81 0.895427 80.1046 0 79 0H40.5797ZM14.5098 1.45881H10.125V10.1306L13.5 15.3986L14.5098 1.45881ZM5.50098 4.61957L9.4872 9.40123V1.45881H5.50098V4.61957ZM20.3297 1.45881H23.1429H24.874H20.3297ZM15.1476 1.45881L19.6122 10.2927V1.45881H15.1476ZM19.4528 11.4274L15.0679 2.75553V15.3986C15.7057 14.6692 17.2205 13.1293 19.4528 11.4274ZM24.7146 7.94242L20.25 2.35031V10.9411C20.8878 10.4548 21.5256 9.96854 22.2431 9.48227C22.9606 8.996 23.8376 8.42869 24.7146 7.94242ZM29.3386 5.59211L25.5118 2.18822V7.45615C26.7077 6.80779 27.9833 6.15943 29.3386 5.59211ZM25.6713 1.45881L29.9764 5.34898C30.1358 5.26793 30.2156 5.18689 30.4547 5.18689V1.45881H25.6713ZM49.19 1.45881H45.2037V3.40389L49.19 1.45881ZM44.0876 1.45881H40.5797V3.16076L44.0876 1.45881ZM36.5138 1.45881L39.8622 3.07971V1.45881H36.5138ZM31.4114 1.45881L35.4774 3.48494V1.45881H31.4114ZM34.7598 3.80912L31.0128 1.94508V4.86271C32.2087 4.45748 33.4843 4.1333 34.7598 3.80912ZM38.8258 3.2418L36.1152 1.94508H36.0354V3.56598C36.9921 3.40389 37.8691 3.32285 38.8258 3.2418ZM44.4065 3.56598V2.02613L41.6959 3.2418C42.6526 3.32285 43.5295 3.40389 44.4065 3.56598ZM49.5886 4.94375V1.94508L45.7618 3.80912C47.1171 4.1333 48.3927 4.53852 49.5886 4.94375ZM54.8504 1.45881H50.1467V5.18689C50.3061 5.26793 50.3858 5.26793 50.5453 5.34898L54.8504 1.45881ZM65.4537 1.45881H60.9892V10.2927L65.4537 1.45881ZM60.2717 1.45881H55.7274H57.375H60.2717ZM55.0896 7.45615V2.18822L51.2628 5.59211C52.6181 6.15943 53.8937 6.80779 55.0896 7.45615ZM60.3514 10.86V2.35031L55.8071 7.86137C56.7638 8.42869 57.7205 8.996 58.5177 9.56332C59.1555 10.0496 59.7933 10.4548 60.3514 10.86ZM65.4537 15.0744V2.75553L61.0689 11.3463C63.1417 12.8862 64.5768 14.2639 65.4537 15.0744ZM66.0915 1.45881L67.0179 15.0744L70.4764 10.698V1.45881H66.0915ZM75.1004 1.45881H71.1142V9.96854L75.1004 5.26793V1.45881ZM4.94291 3.80912V1.45881H2.9498L4.94291 3.80912ZM75.6585 1.45881V4.45748L78.2096 1.45881H75.6585Z"/>
</mask>
<path fill-rule="evenodd" clip-rule="evenodd" d="M40.5797 0H2C0.895431 0 0 0.895431 0 2V17.4634C0 17.96 0.184792 18.4389 0.518412 18.8069L32.9113 54.53C35.2054 57.06 38.4616 58.5029 41.8768 58.5029V58.5029C45.4426 58.5029 48.8268 56.9305 51.1264 54.2053L80.5285 19.3612C80.833 19.0004 81 18.5435 81 18.0714V2C81 0.895427 80.1046 0 79 0H40.5797ZM14.5098 1.45881H10.125V10.1306L13.5 15.3986L14.5098 1.45881ZM5.50098 4.61957L9.4872 9.40123V1.45881H5.50098V4.61957ZM20.3297 1.45881H23.1429H24.874H20.3297ZM15.1476 1.45881L19.6122 10.2927V1.45881H15.1476ZM19.4528 11.4274L15.0679 2.75553V15.3986C15.7057 14.6692 17.2205 13.1293 19.4528 11.4274ZM24.7146 7.94242L20.25 2.35031V10.9411C20.8878 10.4548 21.5256 9.96854 22.2431 9.48227C22.9606 8.996 23.8376 8.42869 24.7146 7.94242ZM29.3386 5.59211L25.5118 2.18822V7.45615C26.7077 6.80779 27.9833 6.15943 29.3386 5.59211ZM25.6713 1.45881L29.9764 5.34898C30.1358 5.26793 30.2156 5.18689 30.4547 5.18689V1.45881H25.6713ZM49.19 1.45881H45.2037V3.40389L49.19 1.45881ZM44.0876 1.45881H40.5797V3.16076L44.0876 1.45881ZM36.5138 1.45881L39.8622 3.07971V1.45881H36.5138ZM31.4114 1.45881L35.4774 3.48494V1.45881H31.4114ZM34.7598 3.80912L31.0128 1.94508V4.86271C32.2087 4.45748 33.4843 4.1333 34.7598 3.80912ZM38.8258 3.2418L36.1152 1.94508H36.0354V3.56598C36.9921 3.40389 37.8691 3.32285 38.8258 3.2418ZM44.4065 3.56598V2.02613L41.6959 3.2418C42.6526 3.32285 43.5295 3.40389 44.4065 3.56598ZM49.5886 4.94375V1.94508L45.7618 3.80912C47.1171 4.1333 48.3927 4.53852 49.5886 4.94375ZM54.8504 1.45881H50.1467V5.18689C50.3061 5.26793 50.3858 5.26793 50.5453 5.34898L54.8504 1.45881ZM65.4537 1.45881H60.9892V10.2927L65.4537 1.45881ZM60.2717 1.45881H55.7274H57.375H60.2717ZM55.0896 7.45615V2.18822L51.2628 5.59211C52.6181 6.15943 53.8937 6.80779 55.0896 7.45615ZM60.3514 10.86V2.35031L55.8071 7.86137C56.7638 8.42869 57.7205 8.996 58.5177 9.56332C59.1555 10.0496 59.7933 10.4548 60.3514 10.86ZM65.4537 15.0744V2.75553L61.0689 11.3463C63.1417 12.8862 64.5768 14.2639 65.4537 15.0744ZM66.0915 1.45881L67.0179 15.0744L70.4764 10.698V1.45881H66.0915ZM75.1004 1.45881H71.1142V9.96854L75.1004 5.26793V1.45881ZM4.94291 3.80912V1.45881H2.9498L4.94291 3.80912ZM75.6585 1.45881V4.45748L78.2096 1.45881H75.6585Z" fill="white"/>
<path d="M67.0179 15.0744L67.1248 14.9692L66.8679 14.708V15.0744H67.0179ZM15.2274 16.2901L15.1163 16.1892L15.1068 16.1997L15.0994 16.2119L15.2274 16.2901ZM22.562 10.1306L22.4784 10.0061L22.4784 10.0061L22.562 10.1306ZM40.3405 4.05225L40.3389 4.20225H40.3405V4.05225ZM58.1191 10.2927L58.0344 10.4165L58.0355 10.4172L58.1191 10.2927ZM66.9109 15.1796C66.9252 15.1941 66.9179 15.1912 66.9108 15.1719C66.9082 15.165 66.896 15.1311 66.9095 15.0873C66.9172 15.0623 66.9337 15.0339 66.9631 15.0127C66.9921 14.9917 67.0233 14.9852 67.0478 14.9852C67.0918 14.9852 67.1206 15.005 67.1307 15.0128C67.1441 15.0231 67.1522 15.0338 67.1569 15.0414C67.1668 15.0575 67.1679 15.0702 67.1679 15.0744H66.8679C66.8679 15.1191 66.8789 15.1621 66.9013 15.1985C66.9122 15.2163 66.9272 15.2346 66.947 15.25C66.9637 15.2628 66.9987 15.2852 67.0478 15.2852C67.0747 15.2852 67.108 15.278 67.1388 15.2558C67.17 15.2333 67.1878 15.203 67.1963 15.1754C67.2113 15.1266 67.1985 15.0851 67.1922 15.0681C67.1776 15.0285 67.1504 14.9952 67.1248 14.9692L66.9109 15.1796ZM8.12766 28.1973L15.3554 16.3683L15.0994 16.2119L7.87167 28.0409L8.12766 28.1973ZM15.2274 16.2901C15.3384 16.3909 15.3384 16.3909 15.3384 16.3909C15.3384 16.3909 15.3384 16.3909 15.3385 16.3908C15.3385 16.3907 15.3387 16.3906 15.3388 16.3905C15.3391 16.3901 15.3396 16.3896 15.3403 16.3889C15.3416 16.3874 15.3436 16.3852 15.3463 16.3823C15.3517 16.3764 15.3599 16.3675 15.3708 16.3557C15.3925 16.3322 15.4252 16.2972 15.4684 16.2514C15.5549 16.1599 15.6837 16.0255 15.8523 15.8547C16.1895 15.5132 16.6859 15.0262 17.3216 14.4456C18.5932 13.2843 20.421 11.7494 22.6456 10.2552L22.4784 10.0061C20.2385 11.5106 18.3989 13.0554 17.1193 14.2241C16.4794 14.8085 15.9793 15.2991 15.6388 15.644C15.4686 15.8164 15.3383 15.9523 15.2504 16.0454C15.2064 16.0919 15.1731 16.1277 15.1506 16.1519C15.1394 16.164 15.1309 16.1733 15.1252 16.1795C15.1223 16.1827 15.1201 16.185 15.1186 16.1867C15.1179 16.1875 15.1173 16.1881 15.117 16.1885C15.1168 16.1887 15.1166 16.1889 15.1165 16.189C15.1164 16.1891 15.1164 16.1891 15.1164 16.1892C15.1163 16.1892 15.1163 16.1892 15.2274 16.2901ZM22.6456 10.2552C26.8617 7.42481 33.2088 4.12171 40.3389 4.20224L40.3422 3.90226C33.1219 3.82071 26.7131 7.1633 22.4784 10.0061L22.6456 10.2552ZM40.3405 4.20225C47.3916 4.20225 53.8986 7.5867 58.0344 10.4165L58.2038 10.1689C54.0482 7.32559 47.4804 3.90225 40.3405 3.90225V4.20225ZM58.0355 10.4172C60.2518 11.9059 64.2528 15.8357 67.7211 19.4177C69.4525 21.2059 71.0471 22.9031 72.2139 24.1584C73.3773 25.4101 74.1213 26.2289 74.1431 26.251L74.3569 26.0407C74.3579 26.0416 74.3561 26.0398 74.3483 26.0312C74.3416 26.024 74.3322 26.0137 74.32 26.0004C74.2956 25.9738 74.2606 25.9356 74.2154 25.8861C74.1251 25.7874 73.9943 25.6445 73.8276 25.4629C73.4943 25.0999 73.0175 24.5823 72.4336 23.9542C71.2659 22.6979 69.6699 20.9992 67.9366 19.2091C64.4755 15.6344 60.4509 11.6782 58.2027 10.1682L58.0355 10.4172ZM10.125 1.45881V1.15881H9.825V1.45881H10.125ZM14.5098 1.45881L14.8091 1.48049L14.8324 1.15881H14.5098V1.45881ZM13.5 15.3986L13.2474 15.5604L13.734 16.32L13.7992 15.4202L13.5 15.3986ZM10.125 10.1306H9.825V10.2185L9.8724 10.2925L10.125 10.1306ZM9.4872 9.40123L9.25677 9.59333L9.7872 10.2296V9.40123H9.4872ZM5.50098 4.61957H5.20098V4.72822L5.27055 4.81167L5.50098 4.61957ZM5.50098 1.45881V1.15881H5.20098V1.45881H5.50098ZM9.4872 1.45881H9.7872V1.15881H9.4872V1.45881ZM19.6122 10.2927L19.3445 10.428L19.9122 10.2927H19.6122ZM15.1476 1.45881V1.15881H14.6599L14.8799 1.59413L15.1476 1.45881ZM19.6122 1.45881H19.9122V1.15881H19.6122V1.45881ZM15.0679 2.75553L15.3356 2.62016L14.7679 2.75553H15.0679ZM19.4528 11.4274L19.6346 11.6659L19.8331 11.5146L19.7205 11.292L19.4528 11.4274ZM15.0679 15.3986H14.7679V16.1974L15.2938 15.596L15.0679 15.3986ZM20.25 2.35031L20.4844 2.16313L19.95 1.49371V2.35031H20.25ZM24.7146 7.94242L24.86 8.20478L25.1705 8.03265L24.949 7.75524L24.7146 7.94242ZM20.25 10.9411H19.95V11.5471L20.4319 11.1797L20.25 10.9411ZM25.5118 2.18822L25.7112 1.96406L25.2118 1.51986V2.18822H25.5118ZM29.3386 5.59211L29.4544 5.86884L29.8942 5.68478L29.538 5.36796L29.3386 5.59211ZM25.5118 7.45615H25.2118V7.96005L25.6548 7.71988L25.5118 7.45615ZM29.9764 5.34898L29.7752 5.57156L29.9284 5.70991L30.1123 5.61641L29.9764 5.34898ZM25.6713 1.45881V1.15881H24.8918L25.4701 1.6814L25.6713 1.45881ZM30.4547 1.45881H30.7547V1.15881H30.4547V1.45881ZM30.4547 5.18689V5.48689L30.7547 5.48689V5.18689H30.4547ZM45.2037 1.45881V1.15881H44.9037V1.45881H45.2037ZM49.19 1.45881L49.3215 1.72843L49.19 1.15881V1.45881ZM45.2037 3.40389H44.9037V3.88409L45.3353 3.67351L45.2037 3.40389ZM40.5797 1.45881V1.15881H40.2797V1.45881H40.5797ZM44.0876 1.45881L44.2185 1.72872L44.0876 1.15881V1.45881ZM40.5797 3.16076H40.2797V3.63976L40.7107 3.43067L40.5797 3.16076ZM39.8622 3.07971L39.7315 3.34974L40.1622 3.55824V3.07971H39.8622ZM36.5138 1.45881V1.15881L36.3831 1.72884L36.5138 1.45881ZM39.8622 1.45881H40.1622V1.15881H39.8622V1.45881ZM35.4774 3.48494L35.3436 3.75345L35.7774 3.96962V3.48494H35.4774ZM31.4114 1.45881V1.15881L31.2776 1.72732L31.4114 1.45881ZM35.4774 1.45881H35.7774V1.15881H35.4774V1.45881ZM31.0128 1.94508L31.1464 1.67648L30.7128 1.46077V1.94508H31.0128ZM34.7598 3.80912L34.8337 4.09988L35.6175 3.90069L34.8935 3.54052L34.7598 3.80912ZM31.0128 4.86271H30.7128V5.28112L31.1091 5.14684L31.0128 4.86271ZM36.1152 1.94508L36.2446 1.67445L36.1832 1.64508H36.1152V1.94508ZM38.8258 3.2418L38.8511 3.54073L39.9511 3.44755L38.9553 2.97118L38.8258 3.2418ZM36.0354 3.56598H35.7354V3.92109L36.0855 3.86177L36.0354 3.56598ZM36.0354 1.94508V1.64508H35.7354V1.94508H36.0354ZM44.4065 2.02613H44.7065V1.56279L44.2837 1.7524L44.4065 2.02613ZM44.4065 3.56598L44.352 3.86099L44.7065 3.92651V3.56598H44.4065ZM41.6959 3.2418L41.5731 2.96807L40.5146 3.44281L41.6705 3.54073L41.6959 3.2418ZM49.5886 1.94508H49.8886V1.46525L49.4572 1.67538L49.5886 1.94508ZM49.5886 4.94375L49.4923 5.22788L49.8886 5.36216V4.94375H49.5886ZM45.7618 3.80912L45.6304 3.53941L44.8776 3.9061L45.692 4.10089L45.7618 3.80912ZM50.1467 1.45881V1.15881H49.8467V1.45881H50.1467ZM54.8504 1.45881L55.0515 1.6814L55.6299 1.15881H54.8504V1.45881ZM50.5453 5.34898L50.4093 5.61641L50.5933 5.70991L50.7464 5.57156L50.5453 5.34898ZM50.1467 5.18689H49.8467V5.37093L50.0107 5.45432L50.1467 5.18689ZM60.9892 1.45881V1.15881H60.6892V1.45881H60.9892ZM65.4537 1.45881L65.7215 1.59413L65.9415 1.15881H65.4537V1.45881ZM60.9892 10.2927H60.6892L61.2569 10.428L60.9892 10.2927ZM55.0896 2.18822H55.3896V1.51986L54.8902 1.96406L55.0896 2.18822ZM55.0896 7.45615L54.9466 7.71988L55.3896 7.96005V7.45615H55.0896ZM51.2628 5.59211L51.0634 5.36796L50.7072 5.68478L51.147 5.86884L51.2628 5.59211ZM60.3514 2.35031H60.6514V1.51493L60.1199 2.15945L60.3514 2.35031ZM60.3514 10.86L60.1751 11.1028L60.6514 11.4486V10.86H60.3514ZM58.5177 9.56332L58.6997 9.32462L58.6916 9.31889L58.5177 9.56332ZM55.8071 7.86137L55.5756 7.67052L55.3528 7.94076L55.6541 8.11941L55.8071 7.86137ZM65.4537 2.75553H65.7537L65.1865 2.61915L65.4537 2.75553ZM65.4537 15.0744L65.2501 15.2947L65.7537 15.7601V15.0744H65.4537ZM61.0689 11.3463L60.8017 11.2099L60.6864 11.4359L60.89 11.5871L61.0689 11.3463ZM67.0179 15.0744L66.7186 15.0947L66.7713 15.8702L67.2532 15.2604L67.0179 15.0744ZM66.0915 1.45881V1.15881H65.7704L65.7922 1.47917L66.0915 1.45881ZM70.4764 1.45881H70.7764V1.15881H70.4764V1.45881ZM70.4764 10.698L70.7118 10.884L70.7764 10.8022V10.698H70.4764ZM71.1142 1.45881V1.15881H70.8142V1.45881H71.1142ZM75.1004 1.45881H75.4004V1.15881H75.1004V1.45881ZM75.1004 5.26793L75.3292 5.46196L75.4004 5.37801V5.26793H75.1004ZM71.1142 9.96854H70.8142V10.7862L71.343 10.1626L71.1142 9.96854ZM4.94291 1.45881H5.24291V1.15881H4.94291V1.45881ZM4.94291 3.80912L4.71411 4.00315L5.24291 4.62673V3.80912H4.94291ZM2.9498 1.45881V1.15881H2.30205L2.721 1.65284L2.9498 1.45881ZM75.6585 4.45748H75.3585V5.27307L75.887 4.65188L75.6585 4.45748ZM75.6585 1.45881V1.15881H75.3585V1.45881H75.6585ZM78.2096 1.45881L78.4381 1.65321L78.8588 1.15881H78.2096V1.45881ZM80.5285 19.3612L80.2993 19.1677L80.5285 19.3612ZM40.5797 -0.3H2V0.3H40.5797V-0.3ZM-0.3 2V17.4634H0.3V2H-0.3ZM0.296174 19.0084L32.689 54.7316L33.1335 54.3285L0.740651 18.6053L0.296174 19.0084ZM51.3557 54.3988L80.7578 19.5547L80.2993 19.1677L50.8971 54.0118L51.3557 54.3988ZM81.3 18.0714V2H80.7V18.0714H81.3ZM79 -0.3H40.5797V0.3H79V-0.3ZM10.125 1.75881H14.5098V1.15881H10.125V1.75881ZM14.2106 1.43714L13.2008 15.3769L13.7992 15.4202L14.8091 1.48049L14.2106 1.43714ZM13.7526 15.2367L10.3776 9.9688L9.8724 10.2925L13.2474 15.5604L13.7526 15.2367ZM10.425 10.1306V1.45881H9.825V10.1306H10.425ZM9.71763 9.20913L5.73141 4.42747L5.27055 4.81167L9.25677 9.59333L9.71763 9.20913ZM5.80098 4.61957V1.45881H5.20098V4.61957H5.80098ZM5.50098 1.75881H9.4872V1.15881H5.50098V1.75881ZM9.1872 1.45881V9.40123H9.7872V1.45881H9.1872ZM23.1429 1.15881H20.3297V1.75881H23.1429V1.15881ZM20.3297 1.75881H24.874V1.15881H20.3297V1.75881ZM24.874 1.15881H23.1429V1.75881H24.874V1.15881ZM19.88 10.1574L15.4154 1.32349L14.8799 1.59413L19.3445 10.428L19.88 10.1574ZM15.1476 1.75881H19.6122V1.15881H15.1476V1.75881ZM19.3122 1.45881V10.2927H19.9122V1.45881H19.3122ZM14.8002 2.8909L19.185 11.5627L19.7205 11.292L15.3356 2.62016L14.8002 2.8909ZM19.2709 11.1888C17.0227 12.9028 15.4932 14.4564 14.8421 15.2011L15.2938 15.596C15.9182 14.8819 17.4182 13.3558 19.6346 11.6659L19.2709 11.1888ZM15.3679 15.3986V2.75553H14.7679V15.3986H15.3679ZM20.0155 2.53748L24.4801 8.12959L24.949 7.75524L20.4844 2.16313L20.0155 2.53748ZM24.5691 7.68005C23.681 8.17249 22.7957 8.74535 22.0748 9.23393L22.4114 9.73062C23.1255 9.24666 23.9942 8.68489 24.86 8.20478L24.5691 7.68005ZM22.0748 9.23393C21.3493 9.72559 20.7052 10.2168 20.0681 10.7025L20.4319 11.1797C21.0704 10.6928 21.7018 10.2115 22.4114 9.73062L22.0748 9.23393ZM20.55 10.9411V2.35031H19.95V10.9411H20.55ZM25.3124 2.41237L29.1392 5.81627L29.538 5.36796L25.7112 1.96406L25.3124 2.41237ZM29.2227 5.31538C27.8546 5.88808 26.5692 6.54158 25.3688 7.19242L25.6548 7.71988C26.8461 7.07399 28.112 6.43078 29.4544 5.86884L29.2227 5.31538ZM25.8118 7.45615V2.18822H25.2118V7.45615H25.8118ZM30.1775 5.12639L25.8724 1.23622L25.4701 1.6814L29.7752 5.57156L30.1775 5.12639ZM25.6713 1.75881H30.4547V1.15881H25.6713V1.75881ZM30.1547 1.45881V5.18689H30.7547V1.45881H30.1547ZM30.4547 4.88689C30.1228 4.88689 29.9543 5.02366 29.8404 5.08154L30.1123 5.61641C30.1597 5.59232 30.2024 5.56755 30.2323 5.55068C30.2648 5.53232 30.2858 5.52116 30.3055 5.51257C30.3356 5.49943 30.3744 5.48689 30.4547 5.48689V4.88689ZM45.2037 1.75881H49.19V1.15881H45.2037V1.75881ZM49.0584 1.1892L45.0722 3.13428L45.3353 3.67351L49.3215 1.72843L49.0584 1.1892ZM45.5037 3.40389V1.45881H44.9037V3.40389H45.5037ZM40.5797 1.75881H44.0876V1.15881H40.5797V1.75881ZM43.9566 1.1889L40.4488 2.89085L40.7107 3.43067L44.2185 1.72872L43.9566 1.1889ZM40.8797 3.16076V1.45881H40.2797V3.16076H40.8797ZM39.9929 2.80969L36.6445 1.18879L36.3831 1.72884L39.7315 3.34974L39.9929 2.80969ZM36.5138 1.75881H39.8622V1.15881H36.5138V1.75881ZM39.5622 1.45881V3.07971H40.1622V1.45881H39.5622ZM35.6112 3.21643L31.5452 1.1903L31.2776 1.72732L35.3436 3.75345L35.6112 3.21643ZM31.4114 1.75881H35.4774V1.15881H31.4114V1.75881ZM35.1774 1.45881V3.48494H35.7774V1.45881H35.1774ZM30.8792 2.21368L34.6262 4.07772L34.8935 3.54052L31.1464 1.67648L30.8792 2.21368ZM34.6859 3.51836C33.4126 3.84197 32.1254 4.16894 30.9165 4.57857L31.1091 5.14684C32.2919 4.74602 33.5559 4.42463 34.8337 4.09988L34.6859 3.51836ZM31.3128 4.86271V1.94508H30.7128V4.86271H31.3128ZM35.9857 2.21571L38.6963 3.51243L38.9553 2.97118L36.2446 1.67445L35.9857 2.21571ZM38.8005 2.94287C37.8431 3.02397 36.9554 3.10585 35.9853 3.2702L36.0855 3.86177C37.0289 3.70194 37.895 3.62172 38.8511 3.54073L38.8005 2.94287ZM36.3354 3.56598V1.94508H35.7354V3.56598H36.3354ZM36.0354 2.24508H36.1152V1.64508H36.0354V2.24508ZM44.1065 2.02613V3.56598H44.7065V2.02613H44.1065ZM44.461 3.27098C43.5678 3.1059 42.6774 3.02388 41.7212 2.94287L41.6705 3.54073C42.6277 3.62182 43.4912 3.70189 44.352 3.86099L44.461 3.27098ZM41.8186 3.51553L44.5293 2.29986L44.2837 1.7524L41.5731 2.96807L41.8186 3.51553ZM49.2886 1.94508V4.94375H49.8886V1.94508H49.2886ZM49.6849 4.65962C48.4856 4.25324 47.2 3.84466 45.8316 3.51735L45.692 4.10089C47.0342 4.42193 48.2998 4.82381 49.4923 5.22788L49.6849 4.65962ZM45.8932 4.07882L49.72 2.21479L49.4572 1.67538L45.6304 3.53941L45.8932 4.07882ZM50.1467 1.75881H54.8504V1.15881H50.1467V1.75881ZM54.6493 1.23622L50.3441 5.12639L50.7464 5.57156L55.0515 1.6814L54.6493 1.23622ZM50.6812 5.08154C50.5811 5.03067 50.5041 5.00476 50.4422 4.9838C50.3845 4.96424 50.3419 4.94962 50.2826 4.91945L50.0107 5.45432C50.1108 5.50519 50.1878 5.5311 50.2497 5.55206C50.3074 5.57162 50.35 5.58624 50.4093 5.61641L50.6812 5.08154ZM50.4467 5.18689V1.45881H49.8467V5.18689H50.4467ZM60.9892 1.75881H65.4537V1.15881H60.9892V1.75881ZM65.186 1.32349L60.7214 10.1574L61.2569 10.428L65.7215 1.59413L65.186 1.32349ZM61.2892 10.2927V1.45881H60.6892V10.2927H61.2892ZM55.7274 1.75881H60.2717V1.15881H55.7274V1.75881ZM60.2717 1.15881H57.375V1.75881H60.2717V1.15881ZM57.375 1.15881H55.7274V1.75881H57.375V1.15881ZM54.7896 2.18822V7.45615H55.3896V2.18822H54.7896ZM55.2326 7.19242C54.0321 6.54158 52.7468 5.88808 51.3786 5.31538L51.147 5.86884C52.4894 6.43078 53.7553 7.07399 54.9466 7.71988L55.2326 7.19242ZM51.4622 5.81627L55.289 2.41237L54.8902 1.96406L51.0634 5.36796L51.4622 5.81627ZM60.0514 2.35031V10.86H60.6514V2.35031H60.0514ZM60.5276 10.6173C59.941 10.1913 59.3422 9.81467 58.6996 9.32475L58.3358 9.80189C58.9688 10.2845 59.6456 10.7183 60.1751 11.1028L60.5276 10.6173ZM58.6916 9.31889C57.8822 8.74291 56.914 8.16898 55.9601 7.60333L55.6541 8.11941C56.6136 8.6884 57.5587 9.2491 58.3438 9.80775L58.6916 9.31889ZM56.0385 8.05223L60.5828 2.54116L60.1199 2.15945L55.5756 7.67052L56.0385 8.05223ZM65.1537 2.75553V15.0744H65.7537V2.75553H65.1537ZM65.6574 14.8541C64.7828 14.0458 63.3358 12.6566 61.2478 11.1055L60.89 11.5871C62.9476 13.1157 64.3708 14.4821 65.2501 15.2947L65.6574 14.8541ZM61.3361 11.4827L65.7209 2.89192L65.1865 2.61915L60.8017 11.2099L61.3361 11.4827ZM67.3172 15.054L66.3908 1.43845L65.7922 1.47917L66.7186 15.0947L67.3172 15.054ZM66.0915 1.75881H70.4764V1.15881H66.0915V1.75881ZM70.1764 1.45881V10.698H70.7764V1.45881H70.1764ZM70.241 10.5119L66.7825 14.8884L67.2532 15.2604L70.7118 10.884L70.241 10.5119ZM71.1142 1.75881H75.1004V1.15881H71.1142V1.75881ZM74.8004 1.45881V5.26793H75.4004V1.45881H74.8004ZM74.8716 5.0739L70.8854 9.77451L71.343 10.1626L75.3292 5.46196L74.8716 5.0739ZM71.4142 9.96854V1.45881H70.8142V9.96854H71.4142ZM4.64291 1.45881V3.80912H5.24291V1.45881H4.64291ZM5.17172 3.61509L3.17861 1.26478L2.721 1.65284L4.71411 4.00315L5.17172 3.61509ZM2.9498 1.75881H4.94291V1.15881H2.9498V1.75881ZM75.9585 4.45748V1.45881H75.3585V4.45748H75.9585ZM75.6585 1.75881H78.2096V1.15881H75.6585V1.75881ZM77.9811 1.26442L75.43 4.26308L75.887 4.65188L78.4381 1.65321L77.9811 1.26442ZM81.3 2C81.3 0.729741 80.2703 -0.3 79 -0.3V0.3C79.9389 0.3 80.7 1.06111 80.7 2H81.3ZM80.7578 19.5547C81.1079 19.1397 81.3 18.6143 81.3 18.0714H80.7C80.7 18.4727 80.558 18.861 80.2993 19.1677L80.7578 19.5547ZM41.8768 58.8029C45.5309 58.8029 48.9991 57.1915 51.3557 54.3988L50.8971 54.0118C48.6546 56.6695 45.3542 58.2029 41.8768 58.2029V58.8029ZM32.689 54.7316C35.04 57.3242 38.3769 58.8029 41.8768 58.8029V58.2029C38.5463 58.2029 35.3707 56.7958 33.1335 54.3285L32.689 54.7316ZM-0.3 17.4634C-0.3 18.0345 -0.0874885 18.5853 0.296174 19.0084L0.740651 18.6053C0.457073 18.2926 0.3 17.8855 0.3 17.4634H-0.3ZM2 -0.3C0.729745 -0.3 -0.3 0.729745 -0.3 2H0.3C0.3 1.06112 1.06112 0.3 2 0.3V-0.3Z" fill="#D85D4A" mask="url(#path-1-inside-1_2008_206)"/>
<path d="M39.8829 10.3576C39.8829 10.0853 40.0989 9.86426 40.365 9.86426C40.6311 9.86426 40.8471 10.0853 40.8471 10.3576C40.8471 10.6299 40.6311 10.8509 40.365 10.8509C40.0989 10.8509 39.8829 10.6299 39.8829 10.3576ZM43.74 15.7841C44.0061 15.7841 44.2221 15.5631 44.2221 15.2908C44.2221 15.0184 44.0061 14.7974 43.74 14.7974C43.4739 14.7974 43.2579 15.0184 43.2579 15.2908C43.2579 15.5631 43.4739 15.7841 43.74 15.7841ZM37.4721 10.8509C37.7383 10.8509 37.9543 10.6299 37.9543 10.3576C37.9543 10.0853 37.7383 9.86426 37.4721 9.86426C37.206 9.86426 36.99 10.0853 36.99 10.3576C36.99 10.6299 37.206 10.8509 37.4721 10.8509ZM53.2479 29.1037H52.5536V30.0903H53.2488L53.2479 29.1037ZM29.1407 29.1037H28.4464V30.0903H29.1407V29.1037ZM46.1507 14.3041C46.4169 14.3041 46.6329 14.0831 46.6329 13.8108C46.6329 13.5385 46.4169 13.3175 46.1507 13.3175C45.8846 13.3175 45.6686 13.5385 45.6686 13.8108C45.6686 14.0831 45.8846 14.3041 46.1507 14.3041ZM34.0971 15.7841C34.3633 15.7841 34.5793 15.5631 34.5793 15.2908C34.5793 15.0184 34.3633 14.7974 34.0971 14.7974C33.831 14.7974 33.615 15.0184 33.615 15.2908C33.615 15.5631 33.831 15.7841 34.0971 15.7841ZM41.4643 24.1705V26.1437H42.1586V24.1705H41.4643ZM39.5357 26.1437H40.23V24.1705H39.5357V26.1437ZM37.6071 26.1437H38.3014V24.1705H37.6071V26.1437ZM35.6786 26.1437H36.3729V24.1705H35.6786V26.1437ZM46.0157 29.1037H45.3214V31.0769H46.0167L46.0157 29.1037ZM46.0157 24.1705H45.3214V26.1437H46.0167L46.0157 24.1705ZM46.0157 34.0368H45.3214V36.0101H46.0167L46.0157 34.0368ZM38.5714 28.6103V31.5702H39.2657V28.6103H38.5714ZM54.6943 37.6282V40.3128H54V38.3396H51.8014V40.3128H29.8929V38.3396H27.6943V40.3128H27V37.6282H28.4464V33.4054H28.3114C28.1523 33.4054 28.0135 33.2949 27.9749 33.136L27.4927 31.1628C27.4667 31.0572 27.4899 30.9447 27.5554 30.8579C27.622 30.7721 27.7222 30.7217 27.8293 30.7217H29.7579C29.8649 30.7217 29.9652 30.773 30.0317 30.8589C30.0973 30.9457 30.1204 31.0572 30.0944 31.1637L29.6122 33.137C29.5737 33.2949 29.4348 33.4054 29.2757 33.4054H29.1407V37.6272H30.5871V39.6005H33.75V33.4054H33.1329V32.695H33.75V27.4856H33.1329V26.7752H33.75V22.5524H33.1329V21.842H33.75V20.5791H33.1329V19.8687H33.75V16.2774H34.4443V19.8687H35.7451L37.125 13.279V11.3442H37.8193V12.9623H40.0179V11.3442H40.7121V13.28L42.092 19.8697H43.3929V16.2774H44.0881V19.8687H44.4642L45.8036 16.2123V14.7974H46.4988V16.2133L47.817 19.8697H48.5614V20.5801H47.9443V21.843H48.5614V22.5534H47.9443V39.6024H51.1062V37.6292H52.5526V33.4054H52.4186C52.2595 33.4054 52.1196 33.2949 52.0811 33.136L51.5989 31.1628C51.5739 31.0572 51.597 30.9447 51.6616 30.8579C51.7272 30.7721 51.8284 30.7208 51.9355 30.7208H53.864C53.9711 30.7208 54.0723 30.7721 54.1379 30.8579C54.2025 30.9447 54.2266 31.0562 54.2006 31.1628L53.7184 33.136C53.6799 33.2949 53.54 33.4054 53.3809 33.4054H53.2459V37.6272L54.6943 37.6282ZM52.6895 32.695H53.1119L53.4205 31.4331H52.381L52.6895 32.695ZM28.5824 32.695H29.0047L29.3133 31.4331H28.2738L28.5824 32.695ZM47.25 22.5524H44.0871V26.7752H44.7043V27.4866H44.0871V32.695H44.7043V33.4064H44.0871V39.6015H47.249L47.25 22.5524ZM45.2047 19.8687H47.0957L46.1507 17.2887L45.2047 19.8687ZM44.0871 20.5791V21.842H47.249V20.5791H44.0871ZM38.3014 19.8687H39.5357V13.6727H38.3014V19.8687ZM40.23 19.8687H41.3823L40.23 14.3673V19.8687ZM36.4548 19.8687H37.6071V14.3673L36.4548 19.8687ZM34.4443 21.842H43.3929V20.5791H34.4443V21.842ZM34.4443 26.7752H43.3929V22.5524H34.4443V26.7752ZM34.4443 32.695H43.3929V27.4856H34.4443V32.695ZM34.4443 39.6015H36.6429V37.6548C36.6429 35.8917 38.0594 34.9426 38.8086 34.686L38.9186 34.6485L39.0285 34.686C39.7777 34.9426 41.1943 35.8917 41.1943 37.6548V39.6015H43.3929V33.4054H34.4443V39.6015ZM40.5 37.6548C40.5 36.2035 39.2975 35.5691 38.9186 35.4043C38.5396 35.5691 37.3371 36.2045 37.3371 37.6548V39.6015H40.5V37.6548Z" fill="#BA0603"/>
</svg>
