<svg width="192" height="98" viewBox="0 0 192 98" fill="none" xmlns="http://www.w3.org/2000/svg">
<path d="M189.962 3.34472L190.766 2.5H189.6H3H1.83281L2.63804 3.34495L83.138 87.8147L83.1398 87.8166C90.4365 95.3945 102.263 95.3945 109.56 87.8166L109.562 87.8145L189.962 3.34472Z" fill="white" stroke="white"/>
<g filter="url(#filter0_d_1995_175)">
<path fill-rule="evenodd" clip-rule="evenodd" d="M96.5797 3H58C56.8954 3 56 3.89543 56 5V20.4634C56 20.96 56.1848 21.4389 56.5184 21.8069L91.9185 60.8464C92.2976 61.2645 92.8357 61.5029 93.4 61.5029H102.571C103.16 61.5029 103.719 61.2431 104.099 60.7927L136.529 22.3612C136.833 22.0004 137 21.5435 137 21.0714V5C137 3.89543 136.105 3 135 3H96.5797ZM70.5098 4.45881H66.125V13.1306L69.5 18.3986L70.5098 4.45881ZM61.501 7.61957L65.4872 12.4012V4.45881H61.501V7.61957ZM76.3297 4.45881H79.1429H80.874H76.3297ZM71.1476 4.45881L75.6122 13.2927V4.45881H71.1476ZM75.4528 14.4274L71.0679 5.75553V18.3986C71.7057 17.6692 73.2205 16.1293 75.4528 14.4274ZM80.7146 10.9424L76.25 5.35031V13.9411C76.8878 13.4548 77.5256 12.9685 78.2431 12.4823C78.9606 11.996 79.8376 11.4287 80.7146 10.9424ZM85.3386 8.59211L81.5118 5.18822V10.4561C82.7077 9.80779 83.9833 9.15943 85.3386 8.59211ZM81.6713 4.45881L85.9764 8.34898C86.1358 8.26793 86.2156 8.18689 86.4547 8.18689V4.45881H81.6713ZM105.19 4.45881H101.204V6.40389L105.19 4.45881ZM100.088 4.45881H96.5797V6.16076L100.088 4.45881ZM92.5138 4.45881L95.8622 6.07971V4.45881H92.5138ZM87.4114 4.45881L91.4774 6.48494V4.45881H87.4114ZM90.7598 6.80912L87.0128 4.94508V7.86271C88.2087 7.45748 89.4843 7.1333 90.7598 6.80912ZM94.8258 6.2418L92.1152 4.94508H92.0354V6.56598C92.9921 6.40389 93.8691 6.32285 94.8258 6.2418ZM100.406 6.56598V5.02613L97.6959 6.2418C98.6526 6.32285 99.5295 6.40389 100.406 6.56598ZM105.589 7.94375V4.94508L101.762 6.80912C103.117 7.1333 104.393 7.53852 105.589 7.94375ZM110.85 4.45881H106.147V8.18689C106.306 8.26793 106.386 8.26793 106.545 8.34898L110.85 4.45881ZM121.454 4.45881H116.989V13.2927L121.454 4.45881ZM116.272 4.45881H111.727H113.375H116.272ZM111.09 10.4561V5.18822L107.263 8.59211C108.618 9.15943 109.894 9.80779 111.09 10.4561ZM116.351 13.86V5.35031L111.807 10.8614C112.764 11.4287 113.72 11.996 114.518 12.5633C115.156 13.0496 115.793 13.4548 116.351 13.86ZM121.454 18.0744V5.75553L117.069 14.3463C119.142 15.8862 120.577 17.2639 121.454 18.0744ZM122.092 4.45881L123.018 18.0744L126.476 13.698V4.45881H122.092ZM131.1 4.45881H127.114V12.9685L131.1 8.26793V4.45881ZM60.9429 6.80912V4.45881H58.9498L60.9429 6.80912ZM131.658 4.45881V7.45748L134.21 4.45881H131.658Z" fill="white"/>
</g>
<path d="M95.8829 13.3586C95.8829 13.0862 96.0989 12.8652 96.365 12.8652C96.6311 12.8652 96.8471 13.0862 96.8471 13.3586C96.8471 13.6309 96.6311 13.8519 96.365 13.8519C96.0989 13.8519 95.8829 13.6309 95.8829 13.3586ZM99.74 18.785C100.006 18.785 100.222 18.564 100.222 18.2917C100.222 18.0194 100.006 17.7984 99.74 17.7984C99.4739 17.7984 99.2579 18.0194 99.2579 18.2917C99.2579 18.564 99.4739 18.785 99.74 18.785ZM93.4721 13.8519C93.7383 13.8519 93.9543 13.6309 93.9543 13.3586C93.9543 13.0862 93.7383 12.8652 93.4721 12.8652C93.206 12.8652 92.99 13.0862 92.99 13.3586C92.99 13.6309 93.206 13.8519 93.4721 13.8519ZM109.248 32.1046H108.554V33.0913H109.249L109.248 32.1046ZM85.1407 32.1046H84.4464V33.0913H85.1407V32.1046ZM102.151 17.3051C102.417 17.3051 102.633 17.0841 102.633 16.8118C102.633 16.5395 102.417 16.3185 102.151 16.3185C101.885 16.3185 101.669 16.5395 101.669 16.8118C101.669 17.0841 101.885 17.3051 102.151 17.3051ZM90.0971 18.785C90.3633 18.785 90.5793 18.564 90.5793 18.2917C90.5793 18.0194 90.3633 17.7984 90.0971 17.7984C89.831 17.7984 89.615 18.0194 89.615 18.2917C89.615 18.564 89.831 18.785 90.0971 18.785ZM97.4643 27.1715V29.1447H98.1586V27.1715H97.4643ZM95.5357 29.1447H96.23V27.1715H95.5357V29.1447ZM93.6071 29.1447H94.3014V27.1715H93.6071V29.1447ZM91.6786 29.1447H92.3729V27.1715H91.6786V29.1447ZM102.016 32.1046H101.321V34.0779H102.017L102.016 32.1046ZM102.016 27.1715H101.321V29.1447H102.017L102.016 27.1715ZM102.016 37.0378H101.321V39.0111H102.017L102.016 37.0378ZM94.5714 31.6113V34.5712H95.2657V31.6113H94.5714ZM110.694 40.6292V43.3138H110V41.3405H107.801V43.3138H85.8929V41.3405H83.6943V43.3138H83V40.6292H84.4464V36.4064H84.3114C84.1523 36.4064 84.0135 36.2959 83.9749 36.137L83.4927 34.1637C83.4667 34.0582 83.4899 33.9457 83.5554 33.8589C83.622 33.773 83.7222 33.7227 83.8293 33.7227H85.7579C85.8649 33.7227 85.9652 33.774 86.0317 33.8599C86.0973 33.9467 86.1204 34.0582 86.0944 34.1647L85.6122 36.138C85.5737 36.2959 85.4348 36.4064 85.2757 36.4064H85.1407V40.6282H86.5871V42.6014H89.75V36.4064H89.1329V35.696H89.75V30.4865H89.1329V29.7762H89.75V25.5534H89.1329V24.843H89.75V23.5801H89.1329V22.8697H89.75V19.2784H90.4443V22.8697H91.7451L93.125 16.28V14.3452H93.8193V15.9633H96.0179V14.3452H96.7121V16.281L98.092 22.8707H99.3929V19.2784H100.088V22.8697H100.464L101.804 19.2132V17.7984H102.499V19.2142L103.817 22.8707H104.561V23.5811H103.944V24.844H104.561V25.5544H103.944V42.6034H107.106V40.6302H108.553V36.4064H108.419C108.259 36.4064 108.12 36.2959 108.081 36.137L107.599 34.1637C107.574 34.0582 107.597 33.9457 107.662 33.8589C107.727 33.773 107.828 33.7217 107.935 33.7217H109.864C109.971 33.7217 110.072 33.773 110.138 33.8589C110.202 33.9457 110.227 34.0572 110.201 34.1637L109.718 36.137C109.68 36.2959 109.54 36.4064 109.381 36.4064H109.246V40.6282L110.694 40.6292ZM108.69 35.696H109.112L109.42 34.4341H108.381L108.69 35.696ZM84.5824 35.696H85.0047L85.3133 34.4341H84.2738L84.5824 35.696ZM103.25 25.5534H100.087V29.7762H100.704V30.4875H100.087V35.696H100.704V36.4073H100.087V42.6024H103.249L103.25 25.5534ZM101.205 22.8697H103.096L102.151 20.2897L101.205 22.8697ZM100.087 23.5801V24.843H103.249V23.5801H100.087ZM94.3014 22.8697H95.5357V16.6736H94.3014V22.8697ZM96.23 22.8697H97.3823L96.23 17.3682V22.8697ZM92.4548 22.8697H93.6071V17.3682L92.4548 22.8697ZM90.4443 24.843H99.3929V23.5801H90.4443V24.843ZM90.4443 29.7762H99.3929V25.5534H90.4443V29.7762ZM90.4443 35.696H99.3929V30.4865H90.4443V35.696ZM90.4443 42.6024H92.6429V40.6558C92.6429 38.8927 94.0594 37.9435 94.8086 37.687L94.9186 37.6495L95.0285 37.687C95.7777 37.9435 97.1943 38.8927 97.1943 40.6558V42.6024H99.3929V36.4064H90.4443V42.6024ZM96.5 40.6558C96.5 39.2045 95.2975 38.5701 94.9186 38.4053C94.5396 38.5701 93.3371 39.2054 93.3371 40.6558V42.6024H96.5V40.6558Z" fill="#BA0603"/>
<path d="M36.3439 26.9283C36.1315 27.1306 35.9105 27.3136 35.6809 27.4771C35.0009 27.9777 34.3859 28.223 33.8359 28.213C33.2956 28.1938 32.8728 28.0166 32.5676 27.6815C32.2354 27.3167 32.094 26.8347 32.1432 26.2355C32.2021 25.6271 32.526 25.0423 33.1149 24.4813C33.2983 24.3066 33.5093 24.1423 33.7479 23.9886C33.9873 23.8159 34.2587 23.6586 34.5622 23.5167C34.7139 23.4458 34.8212 23.4448 34.8841 23.5138C34.92 23.5533 34.909 23.6006 34.8511 23.6557C34.7931 23.7109 34.7359 23.7471 34.6793 23.7641C34.471 23.8521 34.2855 23.9553 34.1227 24.0735C33.9606 24.1727 33.8168 24.282 33.6913 24.4016C33.2762 24.7971 33.0699 25.2238 33.0723 25.6818C33.0753 26.1207 33.2071 26.4831 33.4674 26.769C33.7188 27.045 34.0587 27.1906 34.4873 27.2058C34.9158 27.221 35.3714 26.9987 35.8541 26.5389C36.4622 25.9595 36.892 25.2831 37.1433 24.5098C37.4042 23.7273 37.5554 22.8836 37.5969 21.9788C37.6403 21.0169 37.5506 19.9977 37.3276 18.9214C37.0956 17.8352 36.8184 16.7093 36.496 15.5436C36.1743 14.3588 35.8819 13.1369 35.6187 11.8779C35.3556 10.6189 35.2098 9.34018 35.1812 8.0418C35.181 7.78422 35.1764 7.52172 35.1672 7.25429C35.1587 6.96781 35.1678 6.71057 35.1946 6.48257C34.8215 6.74597 34.4522 7.03336 34.0867 7.34474C33.7122 7.64625 33.356 7.95796 33.0182 8.27985C32.5162 8.75809 32.0607 9.23799 31.6519 9.71953C31.2437 10.182 30.8535 10.6642 30.4813 11.1662C30.1084 11.6871 29.7272 12.308 29.3379 13.0287C28.9486 13.7494 28.6276 14.5155 28.3749 15.3269C28.1229 16.1193 28.0017 16.9068 28.0113 17.6894C28.0305 18.4628 28.248 19.1669 28.6639 19.8017C28.6991 19.8602 28.7388 19.9236 28.783 19.9919C28.8279 20.0412 28.8728 20.0905 28.9177 20.1398C29.3307 20.5933 29.8214 20.8253 30.39 20.8359C30.9683 20.8374 31.4601 20.645 31.8656 20.2587C32.1648 19.9736 32.3826 19.6188 32.519 19.1944C32.6463 18.7601 32.6998 18.3041 32.6794 17.8264C32.6501 17.3388 32.5404 16.8818 32.3503 16.4553C32.2702 16.3476 32.2639 16.2615 32.3315 16.1971C32.3894 16.1419 32.4677 16.1685 32.5665 16.277C32.9519 16.7199 33.1675 17.2141 33.2135 17.7595C33.269 18.2957 33.1946 18.8177 32.99 19.3256C32.7764 19.8236 32.4863 20.2473 32.1194 20.5968C31.7429 20.9555 31.3139 21.2169 30.8324 21.3811C30.3419 21.5354 29.8468 21.556 29.3471 21.4429C28.8385 21.3199 28.3687 21.0218 27.9378 20.5486C27.4351 19.9966 27.121 19.3844 26.9956 18.7122C26.8799 18.0308 26.9004 17.3208 27.0572 16.5823C27.205 15.834 27.4408 15.103 27.7646 14.3895C28.0794 13.6661 28.4391 12.9921 28.8437 12.3673C29.2393 11.7326 29.6181 11.1785 29.98 10.7048C30.3516 10.2219 30.7511 9.74004 31.1786 9.25915C31.6157 8.76907 32.0756 8.2941 32.5583 7.83426C32.9734 7.43879 33.4064 7.06303 33.8575 6.707C34.3085 6.35096 34.7678 6.02384 35.2354 5.72563C35.2828 5.44112 35.3485 5.16681 35.4325 4.90269C35.5165 4.63856 35.6288 4.3659 35.7693 4.0847C35.8506 3.8968 35.9251 3.77066 35.9926 3.70628C36.0506 3.6511 36.0975 3.64322 36.1334 3.68265C36.1962 3.75166 36.1953 3.90903 36.1306 4.15476C36.0893 4.26777 36.0556 4.42874 36.0295 4.63769C36.0035 4.84663 35.9812 5.07956 35.9628 5.33647C36.7339 4.89639 37.5141 4.59497 38.3034 4.43218C39.1589 4.24313 39.8731 4.22554 40.4459 4.37942C41.0284 4.5241 41.4992 4.7936 41.8583 5.18792C42.2713 5.64139 42.5491 6.22362 42.6917 6.9346C42.8254 7.63572 42.8501 8.38545 42.7658 9.18378C42.6815 9.9821 42.5089 10.7725 42.248 11.555C41.978 12.3277 41.6456 13.0218 41.2507 13.6374C40.875 14.2346 40.4632 14.8019 40.015 15.3393C39.5669 15.8767 39.1449 16.3339 38.7491 16.711C38.6816 16.7754 38.6092 16.8444 38.5319 16.9179C38.4644 16.9823 38.3923 17.0418 38.3157 17.0963C38.4184 17.8822 38.5025 18.6674 38.5679 19.4519C38.6244 20.2266 38.6284 21.0329 38.5801 21.8706C38.5159 22.8891 38.2913 23.8303 37.9062 24.6942C37.5211 25.5582 37.0004 26.3029 36.3439 26.9283ZM38.2222 16.5778C38.598 16.2382 38.9814 15.8178 39.3723 15.3165C39.7631 14.8152 40.1226 14.2795 40.4506 13.7092C40.9882 12.7552 41.3542 11.7714 41.5487 10.7575C41.7529 9.73451 41.7819 8.78636 41.6357 7.91308C41.4991 7.0306 41.1929 6.32813 40.7171 5.80565C40.4298 5.4902 40.0788 5.2631 39.6639 5.12437C39.2588 4.97644 38.784 4.95006 38.2397 5.04522C37.883 5.10888 37.5153 5.21984 37.1365 5.37812C36.7578 5.53639 36.3826 5.72817 36.0108 5.95347C36.1649 7.13229 36.3748 8.3131 36.6407 9.49588C36.9162 10.6695 37.1961 11.848 37.4806 13.0314C37.7747 14.2057 38.0219 15.3878 38.2222 16.5778ZM53.194 34.6862C52.9739 34.8959 52.673 35.0169 52.2913 35.0491C51.8988 35.0695 51.5141 34.8727 51.137 34.4587C50.8461 34.1393 50.5875 33.7008 50.361 33.1433C50.1337 32.6087 49.9636 32.0417 49.8505 31.4424C49.749 30.8321 49.6427 30.359 49.5315 30.0231C49.4801 29.8953 49.422 29.796 49.3574 29.725C49.1635 29.5121 48.8902 29.4852 48.5376 29.6444C48.1965 29.7926 47.8121 30.0594 47.3843 30.4449L47.7091 31.2291C47.9264 31.729 48.1508 32.3437 48.3823 33.0731C48.6255 33.7915 48.8235 34.5197 48.9764 35.2577C49.1409 35.9848 49.2076 36.6282 49.1765 37.188C49.1749 37.2337 49.1567 37.2732 49.122 37.3063C49.0756 37.3504 49.0197 37.3484 48.9543 37.3003C48.8773 37.2632 48.8358 37.1702 48.8299 37.0212C48.7215 35.9756 48.5075 34.9091 48.1879 33.8217C47.8575 32.7225 47.4585 31.6666 46.9907 30.6541C46.5346 29.6306 46.0627 28.7324 45.5753 27.9596C45.4377 27.7372 45.3775 27.5404 45.3948 27.3693C45.4013 27.1864 45.4566 27.0453 45.5609 26.946C45.7115 26.8025 45.9205 26.7469 46.188 26.7793C46.4447 26.7999 46.697 26.9462 46.9447 27.2183C46.9878 27.2656 47.0305 27.3243 47.0728 27.3945C47.1267 27.4537 47.1747 27.5183 47.217 27.5885C47.3969 27.8811 47.4734 28.2501 47.4464 28.6956C47.4202 29.1182 47.3861 29.449 47.344 29.6879C47.4706 29.5894 47.603 29.4853 47.7412 29.3758C47.8687 29.2544 48.0077 29.1219 48.1583 28.9784C48.7027 28.4597 49.2091 27.9111 49.6773 27.3324C49.7652 27.3813 49.8252 27.4235 49.8575 27.459C49.9976 27.6128 50.129 27.8521 50.2518 28.177C50.3862 28.4908 50.4932 28.7866 50.5729 29.0641C50.6235 29.2147 50.7086 29.4982 50.8281 29.9146C50.9369 30.3191 51.0718 30.776 51.2328 31.2854C51.383 31.783 51.5564 32.2585 51.753 32.7119C51.9504 33.1425 52.1568 33.476 52.3723 33.7126C52.6524 34.0202 52.9083 34.0636 53.14 33.8429C53.3137 33.6774 53.4025 33.3829 53.4064 32.9595C53.3994 32.5242 53.3436 32.0472 53.2389 31.5283C53.135 30.9866 53.0187 30.4788 52.89 30.0049C52.7621 29.5081 52.6583 29.1209 52.5786 28.8434C52.5173 28.6809 52.5271 28.5611 52.6082 28.4838C52.6545 28.4397 52.7154 28.459 52.7908 28.5418C52.8339 28.5891 52.8812 28.6767 52.9326 28.8044C53.053 29.1979 53.1825 29.6489 53.3211 30.1576C53.4598 30.6662 53.5699 31.1909 53.6514 31.7318C53.7445 32.2617 53.7768 32.7723 53.7482 33.2635C53.7204 33.7319 53.594 34.1395 53.369 34.4864C53.345 34.5313 53.2867 34.5979 53.194 34.6862ZM66.2425 47.176C66.1259 47.3092 65.9541 47.4176 65.7273 47.5011C65.5005 47.5846 65.2372 47.5925 64.9374 47.5246C64.6492 47.4457 64.3489 47.2347 64.0364 46.8916C63.7779 46.6077 63.5176 46.215 63.2556 45.7135C63.3212 46.0707 63.3949 46.5197 63.4764 47.0607C63.5472 47.5897 63.5682 48.0999 63.5396 48.5911C63.5134 49.0137 63.445 49.3662 63.3342 49.6484C63.2235 49.9307 63.087 50.1491 62.9248 50.3036C62.6236 50.5905 62.2565 50.6863 61.8233 50.5908C61.3794 50.4834 60.9528 50.205 60.5434 49.7555C60.1125 49.2823 59.7381 48.6337 59.4204 47.8096C59.1027 46.9856 58.9082 45.9999 58.837 44.8527C58.7958 44.1186 58.8997 43.4011 59.1484 42.7002C59.3979 41.9764 59.7544 41.3938 60.2178 40.9523C60.4842 40.6985 60.7821 40.503 61.1116 40.3659C61.4303 40.2169 61.7739 40.1547 62.1424 40.1792C62.2989 40.1848 62.4256 40.2408 62.5226 40.3473C62.5872 40.4182 62.6121 40.505 62.5973 40.6075C62.5824 40.71 62.5179 40.7936 62.4037 40.8582C61.8992 40.5655 61.4384 40.6179 61.0214 41.0152C60.8245 41.2028 60.6578 41.4831 60.5215 41.856C60.3215 42.4442 60.2281 43.1849 60.2412 44.0783C60.2658 44.9606 60.3588 45.811 60.52 46.6295C60.5383 46.7446 60.5869 46.9524 60.6658 47.2528C60.7562 47.5422 60.8683 47.8553 61.0018 48.192C61.1354 48.5287 61.2925 48.8319 61.4732 49.1016C61.5263 49.1836 61.569 49.2424 61.6013 49.2779C61.6228 49.3015 61.6605 49.3429 61.7144 49.4021C62.0699 49.7925 62.3925 49.8497 62.6821 49.5738C63.0296 49.2427 63.1865 48.6072 63.1527 47.6673C63.1091 47.0018 63.0205 46.3462 62.8867 45.7004C62.7529 45.0546 62.598 44.3737 62.4219 43.6577C62.3048 43.1728 62.2246 42.7521 62.1813 42.3957C62.1379 42.0393 62.2553 41.7286 62.5333 41.4638C62.6607 41.3424 62.8043 41.2387 62.9641 41.1528C63.1238 41.0669 63.2624 40.9459 63.3799 40.7898C63.3734 40.9727 63.4076 41.2716 63.4824 41.6863C63.5688 42.09 63.676 42.5403 63.8038 43.0371C63.9317 43.5338 64.0824 44.02 64.2558 44.4955C64.4292 44.971 64.6 45.3605 64.7684 45.6641C64.8214 45.7461 64.8956 45.8632 64.9909 46.0154C65.0979 46.1566 65.1783 46.2568 65.2321 46.3159C65.5338 46.6471 65.7773 46.7245 65.9626 46.5479C66.148 46.3713 66.2426 46.0713 66.2464 45.6479C66.2618 45.2134 66.2229 44.7313 66.1298 44.2014C66.0367 43.6715 65.9262 43.1582 65.7983 42.6614C65.6597 42.1528 65.5455 41.7424 65.4558 41.4301C65.3945 41.2677 65.4101 41.1423 65.5028 41.054C65.5607 40.9988 65.6274 41.0126 65.7028 41.0954C65.7351 41.1309 65.777 41.2125 65.8284 41.3403C65.9587 41.7685 66.0978 42.2656 66.2456 42.8318C66.3826 43.3861 66.4969 43.9511 66.5884 44.5267C66.6691 45.0905 66.6898 45.6121 66.6504 46.0915C66.6118 46.548 66.4759 46.9095 66.2425 47.176ZM78.1689 71.1406C77.0684 72.189 76.098 72.2519 75.2577 71.3292C74.8591 70.8915 74.6542 70.3577 74.643 69.7277C74.6317 69.0977 74.7215 68.4598 74.9123 67.8141C75.1684 66.9074 75.4716 66.0882 75.8222 65.3565C76.1727 64.6249 76.5159 63.9445 76.8516 63.3154C77.2097 62.687 77.5226 62.0685 77.7905 61.4599C77.428 60.6342 76.9691 59.8453 76.4138 59.0929C76.1254 58.7049 75.8626 58.3808 75.6256 58.1205C75.3778 57.8485 75.1989 57.6876 75.0887 57.6379C75.1875 58.0077 75.2943 58.4694 75.4089 59.0229C75.5236 59.5765 75.6039 60.1517 75.6499 60.7486C75.6851 61.3336 75.6487 61.8876 75.5406 62.4103C75.4441 62.922 75.2336 63.3324 74.9093 63.6414C74.7934 63.7517 74.6672 63.8388 74.5306 63.9027C74.077 64.0697 73.6564 64.0949 73.2688 63.9781C72.8927 63.8503 72.5539 63.6208 72.2523 63.2895C71.7675 62.7572 71.3956 62.04 71.1366 61.1379C70.8776 60.2358 70.725 59.3318 70.6788 58.4258C70.6376 57.6917 70.7299 56.9853 70.9554 56.3064C71.181 55.6276 71.5254 55.0674 71.9888 54.626C72.5217 54.1183 73.1868 53.8271 73.9842 53.7524C74.2872 53.7288 74.5141 53.7998 74.665 53.9654C74.8266 54.1429 74.8379 54.2978 74.6988 54.4302C74.583 54.5406 74.4319 54.541 74.2455 54.4313C73.6847 54.1481 73.2248 54.1776 72.8656 54.5197C72.576 54.7956 72.3644 55.2403 72.2307 55.8537C72.0862 56.4553 72.0242 57.0999 72.0445 57.7874C72.0574 58.3717 72.1191 58.9978 72.2297 59.6656C72.3519 60.3225 72.5093 60.9348 72.7018 61.5025C72.9059 62.0592 73.1426 62.4855 73.412 62.7812C73.5951 62.9823 73.7977 63.1097 74.0196 63.1634C74.2416 63.217 74.451 63.1501 74.6479 62.9624C74.9144 62.7086 75.0739 62.3136 75.1265 61.7774C75.1907 61.2302 75.1836 60.6405 75.1053 60.0081C75.0386 59.3647 74.926 58.7539 74.7674 58.176C74.6204 57.5869 74.469 57.1237 74.313 56.7861C74.1464 56.4368 74.1056 56.1664 74.1907 55.9748C74.2651 55.7714 74.3718 55.6034 74.5108 55.471C74.6498 55.3386 74.7334 55.1927 74.7614 55.0334C75.0447 55.2495 75.3161 55.4881 75.5755 55.7492C75.8356 55.9873 76.0896 56.2425 76.3374 56.5146C77.1669 57.4254 77.886 58.4526 78.4946 59.596C78.5523 59.2318 78.605 58.8501 78.6528 58.4512C78.7013 58.0293 78.7043 57.6288 78.6618 57.2495C78.5851 56.5714 78.4655 56.0005 78.3029 55.5369C78.141 55.0503 78.0145 54.6738 77.9232 54.4073C77.885 54.2228 77.9064 54.0919 77.9875 54.0146C78.057 53.9484 78.1241 53.9508 78.1887 54.0218C78.2426 54.0809 78.2841 54.174 78.3131 54.3009C78.5945 55.2038 78.8182 55.9959 78.9843 56.6772C79.1397 57.3466 79.2126 57.9731 79.2031 58.5566C79.1828 59.1282 79.0553 59.7247 78.8206 60.346C79.1523 61.0904 79.4184 61.9526 79.6186 62.9328C79.8189 63.9129 79.9231 64.9182 79.9313 65.9488C79.9395 66.9793 79.8045 67.9476 79.5261 68.8535C79.2585 69.7712 78.8061 70.5336 78.1689 71.1406ZM77.4287 71.183C77.6836 70.9402 77.8961 70.6272 78.0664 70.2441C78.2591 69.8617 78.4128 69.4722 78.5276 69.0756C78.6424 68.679 78.7209 68.3613 78.7629 68.1224C78.8354 67.6556 78.8653 67.1301 78.8524 66.5458C78.8396 65.9616 78.8028 65.4222 78.742 64.9278C78.6803 64.4563 78.591 63.9781 78.4739 63.4931C78.3791 63.009 78.2554 62.5524 78.1027 62.1234C78.0424 62.2472 77.9642 62.399 77.8683 62.5787C77.784 62.7475 77.7236 62.8712 77.6872 62.9501C77.4235 63.4444 77.1353 63.9951 76.8227 64.6022C76.5325 65.21 76.2531 65.8297 75.9845 66.4612C75.7266 67.1046 75.5254 67.7271 75.381 68.3286C75.2613 68.8624 75.2642 69.412 75.3896 69.9774C75.5035 70.5538 75.6843 70.978 75.9321 71.2501C76.1152 71.4512 76.3409 71.5565 76.6092 71.566C76.8659 71.5866 77.1391 71.4589 77.4287 71.183ZM87.1684 76.8501C87.041 76.9715 86.8576 77.0909 86.6184 77.2083C86.3908 77.3147 86.1374 77.3573 85.8584 77.3359C85.5801 77.2917 85.2956 77.1099 85.0047 76.7905C84.7246 76.4829 84.5248 76.121 84.4052 75.7046C84.2865 75.2654 84.1669 74.849 84.0466 74.4556C84.0118 74.4887 83.9605 74.5155 83.8926 74.536C83.8363 74.5454 83.7866 74.5265 83.7436 74.4792C83.7005 74.4318 83.6689 74.3735 83.649 74.3041C83.6092 74.1653 83.5697 74.0151 83.5307 73.8534C83.4917 73.6918 83.4415 73.5298 83.3801 73.3673C83.2199 72.835 83.0758 72.3205 82.9479 71.8238C82.8093 71.3151 82.6852 70.87 82.5756 70.4884C82.466 70.1067 82.5676 69.7669 82.8804 69.4689L83.9577 68.4425C83.9009 68.7839 83.8775 69.1265 83.8877 69.4703C83.8987 69.7912 84.0092 70.3046 84.2192 71.0103C84.2192 71.0103 84.2541 71.1317 84.3238 71.3746C84.3935 71.6175 84.4832 71.9297 84.5928 72.3114C84.7032 72.6702 84.8131 73.0404 84.9227 73.422C85.0439 73.7927 85.1447 74.1053 85.2252 74.36C85.3763 74.8347 85.5202 75.1947 85.657 75.4399C85.783 75.6734 85.9215 75.8729 86.0723 76.0385C86.4278 76.4289 86.733 76.5027 86.9879 76.2599C87.2659 75.995 87.3918 75.4443 87.3655 74.6077C87.3343 73.9083 87.2274 73.1375 87.0446 72.2954C86.8618 71.4532 86.6455 70.6099 86.3956 69.7654C86.1573 68.9098 85.9382 68.1465 85.7381 67.4755C85.6286 67.0938 85.736 66.7485 86.0603 66.4394L87.016 65.5289C86.9715 65.8365 86.9506 66.1104 86.9533 66.3509C86.9452 66.5796 86.9802 66.8556 87.0582 67.1789C87.1371 67.4793 87.2562 67.9071 87.4156 68.4622C87.5559 68.9251 87.7061 69.4226 87.8663 69.9549C88.0274 70.4643 88.1896 70.9394 88.353 71.3802C88.5165 71.821 88.6724 72.1585 88.8208 72.3927C88.9169 72.5221 88.9861 72.6218 89.0284 72.692C89.0707 72.7622 89.1242 72.8328 89.1888 72.9037C89.3935 73.1285 89.5737 73.2551 89.7294 73.2835C89.8967 73.3009 90.0324 73.2599 90.1367 73.1606C90.4147 72.8957 90.5473 72.4712 90.5345 71.8869C90.5332 71.2916 90.4499 70.6418 90.2846 69.9377C90.1309 69.2225 89.9582 68.5696 89.7665 67.979C89.7175 67.7826 89.722 67.6569 89.7799 67.6017C89.8494 67.5355 89.9218 67.5438 89.9973 67.6266C90.0511 67.6857 90.0926 67.7788 90.1217 67.9057C90.2528 68.311 90.3927 68.7853 90.5413 69.3286C90.6899 69.8719 90.81 70.4314 90.9015 71.007C90.993 71.5826 91.0074 72.1212 90.9449 72.6226C90.8715 73.1123 90.6727 73.5116 90.3483 73.8206C90.0587 74.0965 89.7243 74.2163 89.345 74.1799C88.955 74.1318 88.5768 73.9066 88.2105 73.5044C87.9196 73.185 87.6651 72.7867 87.447 72.3096C87.5733 72.8521 87.6706 73.4222 87.7389 74.0199C87.8072 74.6176 87.8043 75.1727 87.7302 75.6852C87.6453 76.1859 87.458 76.5742 87.1684 76.8501ZM100.998 88.6623C100.569 89.0706 100.052 89.2984 99.4457 89.3456C98.8512 89.3817 98.29 89.1099 97.7621 88.5303C97.2773 87.998 96.8876 87.3087 96.593 86.4626C96.2877 85.6047 96.1219 84.7574 96.0956 83.9208C96.0653 83.1986 96.1401 82.5087 96.3201 81.8511C96.5002 81.1935 96.7755 80.6882 97.1462 80.335C97.4011 80.0922 97.6858 79.9535 98.0005 79.9189C98.3375 79.885 98.6352 80.0101 98.8938 80.294C99.1631 80.5897 99.3493 81.0199 99.4524 81.5845C99.5555 82.1491 99.5444 82.7783 99.419 83.4721C99.3637 83.7678 99.2568 84.1017 99.098 84.4738C98.9393 84.8459 98.7645 85.2003 98.5734 85.537C98.3716 85.8618 98.1838 86.107 98.0101 86.2725C98.0814 86.4696 98.1959 86.7141 98.3534 87.0059C98.5225 87.2866 98.7202 87.5512 98.9465 87.7996C99.2158 88.0954 99.5161 88.3063 99.8474 88.4326C100.179 88.5588 100.501 88.4729 100.814 88.1749C101.196 87.8107 101.441 87.3673 101.549 86.8445C101.657 86.3218 101.682 85.7789 101.624 85.2159C101.555 84.6411 101.445 84.1049 101.295 83.6073C101.156 83.0987 101.031 82.6765 100.92 82.3406C100.839 82.1087 100.856 81.9376 100.972 81.8273C101.03 81.7721 101.085 81.7741 101.139 81.8332C101.182 81.8805 101.219 81.9562 101.249 82.0603C101.41 82.5697 101.581 83.1138 101.762 83.6926C101.932 84.2596 102.051 84.8419 102.119 85.4396C102.177 86.0254 102.123 86.5959 101.958 87.1509C101.804 87.695 101.484 88.1987 100.998 88.6623ZM97.8408 85.8372C98.003 85.6827 98.2214 85.3642 98.4959 84.8817C98.7597 84.3874 98.9241 83.8552 98.9891 83.2851C99.0425 82.7261 99.0049 82.2096 98.8762 81.7357C98.7367 81.25 98.5647 80.8948 98.36 80.67C98.123 80.4097 97.9118 80.3679 97.7264 80.5445C97.5874 80.6769 97.4825 80.9537 97.4116 81.3747C97.3407 81.7957 97.3303 82.4021 97.3806 83.1937C97.419 83.6873 97.4906 84.1936 97.5953 84.7124C97.7 85.2312 97.7819 85.6062 97.8408 85.8372Z" fill="#D85D4A"/>
<defs>
<filter id="filter0_d_1995_175" x="50" y="0" width="93" height="70.5029" filterUnits="userSpaceOnUse" color-interpolation-filters="sRGB">
<feFlood flood-opacity="0" result="BackgroundImageFix"/>
<feColorMatrix in="SourceAlpha" type="matrix" values="0 0 0 0 0 0 0 0 0 0 0 0 0 0 0 0 0 0 127 0" result="hardAlpha"/>
<feOffset dy="3"/>
<feGaussianBlur stdDeviation="3"/>
<feComposite in2="hardAlpha" operator="out"/>
<feColorMatrix type="matrix" values="0 0 0 0 0 0 0 0 0 0 0 0 0 0 0 0 0 0 0.09 0"/>
<feBlend mode="normal" in2="BackgroundImageFix" result="effect1_dropShadow_1995_175"/>
<feBlend mode="normal" in="SourceGraphic" in2="effect1_dropShadow_1995_175" result="shape"/>
</filter>
</defs>
</svg>
