<svg width="138" height="70" viewBox="0 0 138 70" fill="none" xmlns="http://www.w3.org/2000/svg">
<path d="M138 0H0L59.51 65.68C64.73 71.441 73.27 71.441 78.49 65.68L138 0Z" fill="#AC794B"/>
<path d="M36.687 0.457L68.835 38.336L100.855 0.686L36.687 0.457Z" fill="white"/>
<path fill-rule="evenodd" clip-rule="evenodd" d="M78.4201 14.719H61.1001C60.8195 14.5918 60.4384 14.4492 60.0121 14.2896C57.8143 13.467 54.4115 12.1934 57.3471 10.252C58.8167 9.31859 59.8718 9.46836 60.869 9.60993C61.9584 9.76457 62.9787 9.90941 64.3951 8.622C66.9746 6.28128 70.6699 9.9095 71.9353 11.1519C72.1961 11.4079 72.3536 11.5626 72.3771 11.543C73.6266 10.5022 75.6307 12.3043 77.1108 13.6352C77.6302 14.1022 78.085 14.5112 78.4201 14.719ZM87.8301 11.241L77.9701 11.295C81.8661 6.795 83.6171 7.277 87.8301 11.241Z" fill="#81B3D2"/>
<path d="M66.2271 46.026L68.8371 41.806L71.4351 46.026L68.8371 50.256L66.2271 46.026Z" fill="#81B3D2"/>
<path fill-rule="evenodd" clip-rule="evenodd" d="M76.6609 52.3918C76.609 52.5474 76.5229 52.6898 76.4027 52.8191C76.3126 52.916 76.2339 52.9958 76.1665 53.0583C76.0966 53.1184 76.0256 53.1799 75.9535 53.2425L73.295 50.7711C73.3338 50.7144 73.3736 50.6541 73.4145 50.5902C73.4552 50.5215 73.5368 50.4212 73.6593 50.2895C73.9366 49.9912 74.2462 49.855 74.5882 49.881C74.9277 49.9046 75.3099 50.1141 75.735 50.5092C76.0233 50.7773 76.2425 51.025 76.3925 51.2525C76.5447 51.4775 76.6412 51.6853 76.6817 51.876C76.7221 52.0618 76.7152 52.2338 76.6609 52.3918ZM79.5945 54.6047L79.0576 54.1056L78.0893 54.9153C78.0381 54.9604 77.9801 54.983 77.9153 54.9829C77.8527 54.9804 77.7979 54.9572 77.7506 54.9133L76.5016 53.7521C76.5782 53.6796 76.6571 53.6047 76.7383 53.5273C76.8171 53.4476 76.8957 53.3655 76.9743 53.281C77.6745 52.5278 78.0208 51.7839 78.0132 51.0494C78.008 50.3123 77.681 49.6422 77.0322 49.0391C76.7588 48.7849 76.4841 48.5943 76.2081 48.4675C75.9296 48.3384 75.6397 48.2913 75.3384 48.3263C75.0369 48.3565 74.7172 48.4786 74.3792 48.6927C74.0387 48.9044 73.6696 49.2217 73.272 49.6444C73.006 49.9255 72.7869 50.1736 72.6147 50.3888C72.4424 50.604 72.28 50.7936 72.1275 50.9577L70.7444 52.4454L71.3075 52.9688L71.9883 52.4757C72.0399 52.4402 72.0957 52.425 72.1559 52.43C72.2162 52.435 72.2674 52.4571 72.3097 52.4964L76.4334 56.3301C76.4807 56.374 76.5078 56.4271 76.5149 56.4893C76.5195 56.5491 76.5048 56.6073 76.4708 56.6638L76.0315 57.3606L76.5684 57.8598L79.5945 54.6047ZM80.6564 47.4361L78.3558 45.2974C78.4037 45.226 78.4608 45.1471 78.5273 45.0606C78.5938 44.9742 78.6663 44.8887 78.7449 44.8042C79.0499 44.476 79.3597 44.3099 79.6741 44.3056C79.9909 44.2989 80.3493 44.4815 80.7495 44.8536C81.187 45.2603 81.4278 45.6393 81.4718 45.9908C81.5181 46.3397 81.4293 46.6371 81.2053 46.883L80.9731 47.1328C80.8714 47.2422 80.7658 47.3433 80.6564 47.4361ZM84.3652 49.4731L83.832 48.9774L83.1941 49.4617C83.131 49.5097 83.0683 49.5348 83.0059 49.537C82.9434 49.5345 82.8835 49.5067 82.8264 49.4535L81.1933 47.9353L81.7929 47.2903C81.9347 47.2923 82.0978 47.3188 82.2821 47.3697C82.4688 47.4181 82.6766 47.4862 82.9056 47.5739L84.2325 48.1055C84.5394 48.224 84.8018 48.3057 85.0195 48.3506C85.2396 48.393 85.4005 48.3595 85.5022 48.2501L86.9892 46.6506L86.456 46.1549L86.0335 46.4224C85.956 46.4709 85.8838 46.4987 85.8168 46.506C85.7499 46.5132 85.6556 46.4975 85.5341 46.4587L84.2575 46.0225C83.917 45.9052 83.61 45.8492 83.3364 45.8543C83.0628 45.8595 82.7925 45.921 82.5254 46.0388C82.6218 45.8504 82.7045 45.6492 82.7736 45.4354C82.8401 45.2192 82.8681 44.9973 82.8574 44.7695C82.8442 44.5395 82.7779 44.3017 82.6585 44.0563C82.5414 43.8085 82.3461 43.5574 82.0727 43.3032C81.5109 42.781 80.9409 42.5916 80.3625 42.7352C79.784 42.8739 79.1066 43.3609 78.3301 44.1961C78.0852 44.4596 77.8765 44.6989 77.7043 44.9141C77.5343 45.1269 77.3488 45.3413 77.1478 45.5576L75.8271 46.9782L76.3901 47.5016L77.0427 47.0239C77.106 46.9808 77.1689 46.9605 77.2314 46.963C77.294 46.9655 77.3538 46.9934 77.411 47.0465L81.5012 50.8491C81.5584 50.9022 81.5893 50.9611 81.5941 51.0258C81.5987 51.0857 81.5818 51.1487 81.5434 51.2149L81.1142 51.8934L81.6511 52.3925L84.3652 49.4731ZM84.7535 39.4401L87.9174 40.9566L86.5171 42.4629L84.7535 39.4401ZM89.0423 44.4422L88.5054 43.943L87.7277 44.5477L86.9744 43.2496L88.7387 41.3517L90.0918 42.0048L89.5453 42.8244L90.0822 43.3236L92.6819 40.5272L92.145 40.028L91.5887 40.3797C91.5299 40.4131 91.4706 40.4344 91.4109 40.4438C91.3535 40.4507 91.2919 40.4398 91.226 40.4109L84.6347 37.4668L83.4042 38.7905L86.8307 45.1388C86.8643 45.2024 86.8809 45.2642 86.8807 45.3242C86.8803 45.3795 86.8632 45.4377 86.8294 45.499L86.4811 46.1205L87.018 46.6196L89.0423 44.4422ZM96.0971 35.8816L97.3209 35.6568L97.4144 35.2572L95.1288 33.1323L95.419 32.6931L94.8411 32.1558L92.588 34.5794L93.1659 35.1167L93.9028 34.481L95.424 35.8953C95.3991 36.0667 95.3453 36.2392 95.2628 36.4127C95.1801 36.5814 95.0648 36.7453 94.9169 36.9044C94.4847 37.3692 94 37.5094 93.4625 37.3248C92.9226 37.138 92.2959 36.7129 91.5825 36.0497C90.6901 35.2201 90.1408 34.5125 89.9346 33.9269C89.7281 33.3364 89.8225 32.8287 90.2176 32.4036C90.3447 32.2669 90.4743 32.1649 90.6063 32.0977C90.7359 32.0281 90.8556 31.9841 90.9654 31.9657C91.0465 31.9531 91.1197 31.9517 91.1849 31.9613C91.2501 31.9709 91.3305 32.0016 91.426 32.0534L92.4705 32.6421L93.2678 31.7845C93.0437 31.5021 92.8082 31.2321 92.561 30.9746C92.3114 30.7147 92.0567 30.4802 91.7969 30.2712C91.4641 30.4298 91.1106 30.6456 90.7363 30.9186C90.3595 31.1893 90.0128 31.4949 89.6962 31.8355C88.8227 32.775 88.3979 33.7379 88.4219 34.724C88.4433 35.7079 88.9785 36.6874 90.0275 37.6626C90.4923 38.0947 90.9585 38.4307 91.4259 38.6706C91.8908 38.9082 92.3437 39.0442 92.7844 39.0786C93.2274 39.1105 93.6559 39.0408 94.07 38.8696C94.4838 38.6937 94.871 38.4118 95.2315 38.024C95.5665 37.6636 95.7994 37.2985 95.93 36.9287C96.0604 36.5541 96.1161 36.2051 96.0971 35.8816ZM97.9581 23.1728L95.8818 25.4062L96.4448 25.9296L97.1358 25.4181C97.1966 25.3727 97.2595 25.3524 97.3245 25.3572C97.387 25.3598 97.4469 25.3876 97.504 25.4407L100.364 28.0994C100.6 28.3189 100.799 28.541 100.961 28.7657C101.123 28.9903 101.232 29.2169 101.288 29.4453C101.344 29.669 101.341 29.8949 101.277 30.123C101.213 30.351 101.075 30.5794 100.862 30.8081C100.458 31.2431 100.031 31.4136 99.5807 31.3195C99.1306 31.2254 98.652 30.9427 98.1449 30.4713L95.3037 27.83C95.249 27.7791 95.2169 27.7215 95.2074 27.657C95.1978 27.5925 95.2135 27.5283 95.2544 27.4643L95.6788 26.7536L95.1157 26.2302L92.5472 28.9931L93.1102 29.5165L93.5613 29.2407C93.6295 29.2022 93.695 29.1866 93.7577 29.1939C93.8179 29.1989 93.8753 29.2268 93.93 29.2777L96.6668 31.8219C97.4796 32.5776 98.2523 32.9229 98.9847 32.8577C99.7147 32.7903 100.455 32.3527 101.206 31.5448C101.53 31.1968 101.784 30.8442 101.967 30.4868C102.149 30.1272 102.244 29.7659 102.252 29.403C102.258 29.0378 102.168 28.6688 101.981 28.2962C101.795 27.9188 101.497 27.5406 101.09 27.1616L98.3045 24.5722C98.2498 24.5214 98.2165 24.465 98.2047 24.403C98.1951 24.3385 98.2083 24.272 98.2442 24.2034L98.5211 23.6962L97.9581 23.1728ZM103.722 20.1656L104.339 19.502C104.089 19.2277 103.831 18.9693 103.565 18.7269C103.297 18.4821 103.017 18.2545 102.726 18.0442L98.5595 22.5259L99.1225 23.0493L99.7751 22.5717C99.8407 22.5261 99.9048 22.5069 99.9675 22.5142C100.03 22.5168 100.09 22.5446 100.147 22.5977L104.23 26.3933C104.287 26.4465 104.32 26.5053 104.33 26.5698C104.339 26.6295 104.322 26.6926 104.279 26.759L103.847 27.4412L104.383 27.9403L108.73 23.2647C108.471 22.9355 108.21 22.6281 107.947 22.3422C107.685 22.0564 107.404 21.7749 107.106 21.4976L106.388 22.0605L107.015 23.2408C107.059 23.328 107.087 23.4026 107.099 23.4647C107.108 23.5244 107.098 23.5919 107.07 23.6674C107.037 23.7527 106.966 23.8693 106.856 24.0174C106.748 24.163 106.638 24.2967 106.525 24.4185L105.793 25.2053L103.776 23.33L105.307 21.7649L104.543 21.0543L103.112 22.713L101.155 20.8932L101.741 20.2631C101.854 20.1413 101.971 20.0301 102.092 19.9297C102.213 19.8292 102.315 19.7594 102.398 19.7204C102.471 19.6865 102.544 19.6682 102.616 19.6656C102.688 19.663 102.764 19.683 102.845 19.7257L103.722 20.1656ZM31.2067 23.6753C31.098 24.5826 31.4508 25.4917 32.2649 26.4028C32.4142 26.5698 32.5779 26.7353 32.7562 26.8991C32.9342 27.0678 33.1164 27.2258 33.3029 27.3733C33.4867 27.523 33.6724 27.6621 33.8599 27.7904C34.0474 27.9187 34.225 28.0308 34.3926 28.1268C34.7148 27.9117 35.0123 27.6869 35.285 27.4522C35.5626 27.2178 35.8122 26.9903 36.0337 26.7696L35.3629 25.8738L34.2414 26.3912C34.1403 26.436 34.0546 26.4649 33.9841 26.4777C33.9185 26.4909 33.8558 26.4946 33.796 26.4888C33.65 26.4782 33.5037 26.4291 33.3572 26.3416C33.2155 26.2543 33.0892 26.1486 32.9784 26.0246C32.5962 25.597 32.5309 25.0909 32.7825 24.5065C33.034 23.9222 33.5736 23.2602 34.4011 22.5207C35.2945 21.7224 36.0272 21.2588 36.5993 21.1299C37.1714 21.001 37.627 21.1263 37.9663 21.5059C38.0726 21.6249 38.1591 21.7523 38.226 21.8883C38.2929 22.0243 38.334 22.1491 38.3492 22.263C38.3647 22.372 38.3571 22.4653 38.3263 22.5429C38.298 22.6182 38.2643 22.6825 38.2253 22.7355L37.4309 23.8483L38.1873 24.6948C38.5466 24.4602 38.8762 24.2203 39.176 23.9752C39.4758 23.73 39.7431 23.4866 39.9778 23.245C39.8348 22.8812 39.643 22.5087 39.4024 22.1274C39.1641 21.7487 38.9104 21.4087 38.6412 21.1076C38.2477 20.6673 37.8236 20.3225 37.3689 20.0735C36.919 19.8246 36.4482 19.69 35.9566 19.6696C35.465 19.6492 34.9534 19.7491 34.4219 19.9692C33.8926 20.1918 33.3546 20.5474 32.808 21.0359C31.8539 21.8885 31.3201 22.7683 31.2067 23.6753ZM42.9179 27.2762L43.4911 26.764L40.8315 23.7878L40.2583 24.3001L40.6736 24.994C40.713 25.0635 40.7261 25.1292 40.7131 25.1909C40.7048 25.253 40.6715 25.31 40.6133 25.362L36.4566 29.0765C36.3984 29.1285 36.3368 29.1563 36.2717 29.1599C36.2114 29.1637 36.1501 29.141 36.088 29.0918L35.4487 28.598L34.9021 29.0865L37.5616 32.0626L38.1082 31.5741L37.6929 30.8802C37.651 30.8129 37.6342 30.7483 37.6425 30.6863C37.6556 30.6245 37.6913 30.5676 37.7495 30.5156L41.9024 26.8045C41.9606 26.7525 42.0198 26.7246 42.0801 26.7207C42.1452 26.7172 42.2101 26.7389 42.2748 26.7858L42.9179 27.2762ZM39.0048 33.6776L42.2036 37.2573L42.7465 36.7722L42.0969 35.755C42.055 35.6877 42.0358 35.623 42.0393 35.5607C42.0476 35.4986 42.0809 35.4416 42.1391 35.3896L46.5881 31.4139L46.8629 31.7214C46.9533 31.8226 47.0341 31.9257 47.1051 32.0306C47.1786 32.1333 47.2288 32.2251 47.2555 32.3059C47.2804 32.3746 47.2889 32.4376 47.2809 32.4948C47.2754 32.5498 47.2543 32.6051 47.2175 32.6607L46.206 34.1723L46.8335 34.8745C47.2493 34.5758 47.6302 34.2787 47.9761 33.9833C48.3242 33.6903 48.6751 33.3495 49.0286 32.9607L44.0353 27.3729C43.6093 27.6807 43.2328 27.9877 42.9055 28.2938C42.5805 28.6024 42.2423 28.9524 41.8911 29.3437L42.5186 30.0459L44.1166 29.1983C44.1737 29.1654 44.2312 29.1482 44.289 29.1467C44.3467 29.1451 44.4095 29.1619 44.4772 29.1969C44.552 29.2348 44.6376 29.2949 44.7339 29.3772C44.8302 29.4595 44.9236 29.5513 45.0141 29.6525L45.3024 29.9752L40.8534 33.9509C40.7952 34.0029 40.7337 34.0283 40.6689 34.0271C40.6088 34.0261 40.5478 34.001 40.4856 33.9519L39.5476 33.1925L39.0048 33.6776ZM44.4538 39.7753L47.3915 43.0627L47.9343 42.5776L47.434 41.7274C47.3921 41.6602 47.3741 41.5967 47.3798 41.5369C47.3881 41.4749 47.4214 41.4179 47.4796 41.3658L48.9107 40.087L52.9332 39.0186C52.9991 39.0006 53.0592 38.9992 53.1137 39.0143C53.1706 39.0271 53.2257 39.053 53.2788 39.0921L53.779 39.4302L54.3522 38.918L52.4593 36.7998L51.8861 37.312L52.3317 38.1086L49.396 38.9569L50.4995 36.066L51.1839 36.5263L51.7571 36.014L49.1756 33.1252L48.6024 33.6375L48.9054 34.2133C48.9382 34.2705 48.9567 34.3268 48.9608 34.3823C48.9671 34.4403 48.9601 34.5012 48.9397 34.565L47.5809 38.5989L46.1498 39.8778C46.0916 39.9298 46.0312 39.9565 45.9687 39.9577C45.9086 39.9568 45.8475 39.9317 45.7854 39.8826L44.9966 39.2902L44.4538 39.7753ZM53.4125 49.64C53.5651 50.0909 53.8403 50.539 54.2384 50.9844C54.6432 51.4374 55.0726 51.7728 55.5267 51.9906C55.983 52.2109 56.4506 52.3165 56.9294 52.3074C57.4108 52.296 57.9033 52.1722 58.4069 51.9361C58.9131 51.6977 59.4167 51.3546 59.9178 50.9069C60.3758 50.4975 60.7444 50.0772 61.0234 49.6458C61.3024 49.2144 61.4759 48.7794 61.5438 48.341C61.6142 47.9002 61.5731 47.4545 61.4206 47.0036C61.268 46.5528 60.9928 46.1047 60.5947 45.6593C60.1922 45.2088 59.7628 44.8734 59.3064 44.6531C58.8523 44.4353 58.3846 44.3321 57.9032 44.3435C57.4219 44.3549 56.9294 44.4787 56.4258 44.7148C55.9222 44.9509 55.4185 45.2939 54.9149 45.744C54.4569 46.1533 54.0883 46.5737 53.8093 47.0051C53.5303 47.4365 53.3568 47.8714 53.2889 48.3099C53.221 48.7483 53.2622 49.1917 53.4125 49.64ZM58.5928 45.8028C59.155 45.6373 59.6011 45.7392 59.9313 46.1087C60.2547 46.4706 60.307 46.9086 60.0883 47.4227C59.8717 47.9394 59.3257 48.5889 58.4501 49.3714C57.5466 50.1788 56.8101 50.6662 56.2407 50.8337C55.6712 51.0012 55.2236 50.9028 54.898 50.5383C54.5746 50.1764 54.5237 49.7349 54.7453 49.2138C54.9716 48.6929 55.5226 48.0412 56.3982 47.2587C57.2992 46.4536 58.0307 45.9683 58.5928 45.8028ZM61.9465 54.1627L63.3596 55.8357L64.1416 55.1369L62.6222 53.5589L64.71 51.6932L65.2833 52.3347C65.3941 52.4587 65.494 52.5857 65.5828 52.7157C65.6717 52.8457 65.7317 52.9536 65.7629 53.0395C65.7899 53.1155 65.8014 53.1895 65.7973 53.2614C65.7933 53.3332 65.7663 53.4074 65.7163 53.484L65.1972 54.3165L65.8011 54.9922C66.0973 54.7685 66.3784 54.5355 66.6444 54.2932C66.9129 54.0487 67.1653 53.7913 67.4016 53.5209L63.3242 48.9581L62.751 49.4703L63.1663 50.1643C63.2056 50.2338 63.2188 50.2994 63.2057 50.3612C63.1974 50.4232 63.1641 50.4802 63.1059 50.5322L58.9341 54.2603C58.886 54.3033 58.8306 54.3254 58.7681 54.3267C58.7055 54.328 58.6477 54.3091 58.5946 54.2701L57.9413 53.7683L57.3947 54.2567L60.3901 57.6087L60.9367 57.1202L60.186 56.0432C60.1458 55.9881 60.1287 55.9283 60.1347 55.8637C60.143 55.8017 60.1712 55.7492 60.2193 55.7062L61.9465 54.1627Z" fill="black"/>
</svg>
