<svg width="381" height="395" viewBox="0 0 381 395" fill="none" xmlns="http://www.w3.org/2000/svg">
<path d="M0.5 176.219C10.8333 175.198 18.6458 174.688 23.9375 174.688C29.2292 174.688 33.4167 175.073 36.5 175.844C39.6042 176.615 42.1562 177.812 44.1562 179.438C48.0312 182.604 49.9688 187.802 49.9688 195.031C49.9688 198.281 49.3542 201.26 48.125 203.969C46.8958 206.677 45.2188 209 43.0938 210.938C40.9688 212.875 38.4792 214.385 35.625 215.469C32.7708 216.552 29.7188 217.094 26.4688 217.094L20.9062 216.969V226H0.5V176.219ZM28.6562 187.656C26.8646 187.656 24.2396 188.896 20.7812 191.375V203.156L24.4375 201.375C26.8542 200.188 28.5417 199.052 29.5 197.969C31.2917 195.948 32.1875 193.938 32.1875 191.938C32.1875 189.938 31.5104 188.615 30.1562 187.969C29.7188 187.76 29.2188 187.656 28.6562 187.656ZM106.875 191.875C106.875 188.938 105.781 187.469 103.594 187.469C102.656 187.469 101.354 187.812 99.6875 188.5L95.5312 190.219V202.438C103.094 199.625 106.875 196.104 106.875 191.875ZM125.438 192.406C125.438 199.073 122.146 204.365 115.562 208.281L129.125 226H104.438L95.6562 211.531V226H75.25V176.094C88.4583 175.156 97.1146 174.688 101.219 174.688C105.323 174.688 108.448 174.938 110.594 175.438C116.51 176.792 120.74 179.688 123.281 184.125C124.698 186.667 125.417 189.427 125.438 192.406ZM152.375 226L177.188 178.625C178.042 176.938 179.615 175.812 181.906 175.25C182.573 175.083 183.396 175 184.375 175C185.354 175 186.417 175.281 187.562 175.844C188.729 176.385 189.646 177.25 190.312 178.438L216.938 226H191.594L189.625 221.062H176.125L174.438 226H152.375ZM177.656 211.156H187.75L182.969 197.656L177.656 211.156ZM271.5 176.094H290.969V226H271.5V207.562L261.125 208.469V226H241.688V176.094H261.125V194.125L271.5 193.281V176.094ZM315.875 226L340.688 178.625C341.542 176.938 343.115 175.812 345.406 175.25C346.073 175.083 346.896 175 347.875 175C348.854 175 349.917 175.281 351.062 175.844C352.229 176.385 353.146 177.25 353.812 178.438L380.438 226H355.094L353.125 221.062H339.625L337.938 226H315.875ZM341.156 211.156H351.25L346.469 197.656L341.156 211.156Z" fill="white"/>
<path d="M311.253 370.235C311.253 369.941 311.31 369.649 311.423 369.358C311.535 369.065 311.703 368.802 311.926 368.566C312.162 368.323 312.443 368.129 312.753 367.994C313.078 367.848 313.443 367.774 313.848 367.774C314.298 367.774 314.73 367.858 315.146 368.026C315.56 368.196 315.916 368.436 316.207 368.753C316.454 369.045 316.644 369.393 316.779 369.797C316.915 370.201 316.981 370.627 316.981 371.078C316.981 371.928 316.83 372.717 316.526 373.436C316.223 374.154 315.783 374.807 315.23 375.356C314.972 375.613 314.689 375.844 314.387 376.047C314.1 376.244 313.802 376.424 313.494 376.587C313.214 376.731 312.974 376.851 312.768 376.939C312.643 376.993 312.52 377.049 312.398 377.109L311.048 375.119C311.298 375.029 311.572 374.912 311.876 374.767C312.179 374.621 312.466 374.441 312.733 374.228C313.001 374.016 313.23 373.759 313.409 373.468C313.589 373.176 313.689 372.839 313.713 372.458C313.063 372.458 312.488 372.268 311.993 371.884C311.5 371.504 311.253 370.953 311.253 370.235V370.235Z" fill="#766458"/>
<path d="M319.09 370.235C319.09 369.942 319.147 369.649 319.257 369.358C319.37 369.065 319.539 368.802 319.763 368.566C319.99 368.331 320.263 368.138 320.588 367.994C320.915 367.849 321.278 367.774 321.684 367.774C322.134 367.774 322.567 367.858 322.981 368.026C323.398 368.196 323.751 368.436 324.042 368.753C324.292 369.045 324.482 369.393 324.616 369.797C324.75 370.202 324.818 370.628 324.818 371.078C324.827 371.887 324.672 372.689 324.363 373.436C324.059 374.154 323.618 374.806 323.065 375.356C322.806 375.613 322.523 375.844 322.22 376.047C321.934 376.246 321.636 376.426 321.327 376.587C321.047 376.732 320.807 376.851 320.602 376.939C320.478 376.993 320.354 377.05 320.232 377.109L318.884 375.119C319.131 375.03 319.404 374.912 319.709 374.767C320.013 374.621 320.299 374.441 320.569 374.228C320.837 374.014 321.063 373.761 321.242 373.468C321.423 373.176 321.524 372.84 321.546 372.458C320.924 372.469 320.318 372.266 319.827 371.884C319.337 371.504 319.09 370.953 319.09 370.236V370.235Z" fill="#766458"/>
<path d="M54.53 311.519C54.53 311.81 54.473 312.103 54.36 312.394C54.2467 312.689 54.0757 312.959 53.857 313.187C53.3513 313.703 52.6563 313.989 51.934 313.979C51.4894 313.98 51.0489 313.895 50.637 313.727C50.2343 313.567 49.8723 313.319 49.577 313.002C49.3207 312.694 49.1261 312.339 49.004 311.957C48.8681 311.544 48.7999 311.112 48.802 310.677C48.802 309.825 48.954 309.037 49.257 308.317C49.5604 307.599 50.001 306.947 50.554 306.397C50.8119 306.14 51.0946 305.909 51.398 305.707C51.6847 305.509 51.9829 305.329 52.291 305.167C52.571 305.023 52.813 304.904 53.016 304.815C53.219 304.728 53.342 304.67 53.386 304.648L54.734 306.636C54.4537 306.74 54.1783 306.858 53.909 306.988C53.606 307.134 53.319 307.313 53.049 307.527C52.779 307.74 52.556 307.993 52.376 308.285C52.196 308.577 52.096 308.915 52.073 309.298C52.723 309.298 53.297 309.488 53.791 309.87C54.283 310.251 54.531 310.8 54.531 311.519H54.53Z" fill="#766458"/>
<path d="M46.694 311.519C46.6892 312.141 46.4487 312.738 46.021 313.189C45.7854 313.431 45.5048 313.625 45.195 313.76C44.869 313.906 44.503 313.98 44.099 313.98C43.6541 313.981 43.2131 313.896 42.801 313.728C42.3984 313.567 42.0364 313.319 41.741 313.002C41.484 312.694 41.2894 312.339 41.168 311.957C41.0316 311.544 40.9634 311.112 40.966 310.677C40.966 309.825 41.116 309.037 41.421 308.317C41.724 307.599 42.1646 306.946 42.718 306.397C42.965 306.149 43.245 305.92 43.561 305.706C43.875 305.494 44.173 305.313 44.454 305.166C44.734 305.022 44.974 304.904 45.178 304.816C45.38 304.725 45.505 304.669 45.55 304.646L46.897 306.634C46.649 306.724 46.375 306.842 46.071 306.987C45.768 307.134 45.481 307.313 45.214 307.525C44.9465 307.737 44.7177 307.994 44.538 308.284C44.359 308.576 44.258 308.914 44.236 309.296C44.886 309.296 45.46 309.486 45.954 309.869C46.447 310.251 46.694 310.799 46.694 311.519V311.519Z" fill="#766458"/>
<path d="M78.7308 330.895L79.3476 330.944C81.2736 330.998 82.4801 329.743 82.967 327.179C83.1077 326.389 83.0644 325.799 82.8372 325.409C82.61 325.02 82.1447 324.825 81.4413 324.825H80.2727L78.7308 330.895ZM75.7119 324.825H74.8516C74.5595 324.825 74.3052 324.739 74.0888 324.565C73.8724 324.392 73.7966 324.192 73.8615 323.965L74.4945 321.595C74.5378 321.4 74.6406 321.243 74.8029 321.124C74.9652 320.995 75.1167 320.93 75.2574 320.93H77.5135H80.3377H81.7984C83.8111 320.93 85.3746 321.346 86.4891 322.179C87.6145 323.013 88.1771 324.203 88.1771 325.75C88.1771 326.594 88.0527 327.465 87.8038 328.363C87.5658 329.251 87.252 330.008 86.8624 330.636C86.2024 331.685 85.3259 332.421 84.2331 332.843C84.7633 333.211 85.1149 333.736 85.2881 334.417C85.472 335.099 85.5045 336.024 85.3854 337.193C85.2664 338.221 84.9256 339.308 84.3629 340.455C83.8111 341.602 83.1348 342.517 82.334 343.198C82.1176 343.393 81.8904 343.572 81.6523 343.734C81.4251 343.885 81.2195 344.021 81.0356 344.14C80.8516 344.259 80.6136 344.367 80.3214 344.464C80.0293 344.551 79.8129 344.627 79.6722 344.692C79.5315 344.746 79.2826 344.794 78.9256 344.838C78.5793 344.881 78.3521 344.913 78.2439 344.935C78.1357 344.957 77.8706 344.973 77.4486 344.984C77.0266 344.995 76.7723 345 76.6857 345C76.61 345 76.3232 345 75.8255 345C75.3386 345 75.0572 345 74.9815 345H74.316H73.4558H71.4918C71.2213 345 71.0266 344.903 70.9075 344.708C70.7885 344.502 70.7615 344.259 70.8264 343.977L75.7119 324.825ZM76.1826 340.877L76.9454 340.845C77.9301 340.791 78.7416 340.542 79.38 340.098C80.0293 339.655 80.5378 338.859 80.9057 337.712C81.371 336.241 81.2845 335.245 80.646 334.726C80.3322 334.466 79.4017 334.326 77.8543 334.304L76.1826 340.877ZM108.362 345C108.362 345 105.906 345 100.994 345H99.0297H98.1532C97.8827 345 97.6879 344.903 97.5689 344.708C97.4499 344.502 97.4228 344.259 97.4877 343.977L102.357 324.89H101.156C100.82 324.89 100.604 324.798 100.507 324.614C100.409 324.43 100.415 324.122 100.523 323.689L101.059 321.595C101.123 321.303 101.194 321.119 101.27 321.043C101.345 320.968 101.497 320.93 101.724 320.93H104.175H106.999H114.043C114.714 320.93 114.968 321.287 114.806 322.001L114.384 323.965C114.341 324.214 114.2 324.43 113.962 324.614C113.735 324.798 113.497 324.89 113.248 324.89H106.918L105.619 329.97H111.284C111.912 329.97 112.144 330.327 111.982 331.041L111.56 333.005C111.517 333.254 111.387 333.471 111.17 333.655C110.954 333.839 110.727 333.931 110.489 333.931H104.613L102.811 341.04H109.158C109.785 341.04 110.018 341.397 109.856 342.111L109.434 344.075C109.39 344.324 109.261 344.54 109.044 344.724C108.828 344.908 108.6 345 108.362 345ZM138.376 327.081C138.452 327.611 138.23 327.968 137.71 328.152L134.789 329.013C134.54 329.078 134.302 329.034 134.075 328.883C133.858 328.731 133.745 328.52 133.734 328.25C133.669 327.492 133.588 326.913 133.49 326.513C133.393 326.102 133.242 325.637 133.036 325.117C132.906 325.074 132.771 325.052 132.63 325.052C131.267 325.052 129.936 327.536 128.637 332.502C128.064 334.677 127.766 336.63 127.745 338.362C127.723 340.082 128.01 341.034 128.605 341.218C128.832 341.142 129.043 341.034 129.238 340.894C129.444 340.742 129.611 340.601 129.741 340.472C129.871 340.342 130.039 340.104 130.244 339.757C130.45 339.411 130.607 339.135 130.715 338.93C130.834 338.724 131.04 338.335 131.332 337.761C131.559 337.339 131.754 337.085 131.916 336.998C132.078 336.901 132.338 336.922 132.695 337.063L135.422 338.248C135.638 338.324 135.752 338.497 135.763 338.767C135.774 339.038 135.692 339.308 135.519 339.579C134.654 340.964 133.869 342.046 133.166 342.825C132.473 343.593 131.683 344.194 130.796 344.627C129.909 345.049 128.892 345.26 127.745 345.26C127.074 345.26 126.365 345.027 125.618 344.562C124.612 343.945 123.898 342.955 123.476 341.592C123.054 340.228 122.892 338.702 122.989 337.014C123.097 335.326 123.406 333.465 123.914 331.431C124.423 329.375 125.105 327.546 125.959 325.945C126.825 324.344 127.858 323.067 129.059 322.115C130.271 321.151 131.548 320.67 132.89 320.67C133.398 320.67 133.988 320.757 134.659 320.93C135.741 321.189 136.563 321.795 137.126 322.748C137.689 323.7 138.105 325.144 138.376 327.081ZM152.616 338.524L149.743 344.367C149.516 344.843 149.094 345.065 148.477 345.032L145.896 344.935C145.496 344.924 145.231 344.794 145.101 344.546C144.971 344.297 144.993 344.015 145.166 343.702L156.268 322.326C156.495 321.893 156.771 321.563 157.096 321.335C157.42 321.108 157.75 320.995 158.086 320.995L161.916 320.962C162.327 320.962 162.652 321.097 162.89 321.368C163.139 321.638 163.247 322.039 163.215 322.569L161.981 344.27C161.949 344.757 161.619 345 160.991 345H158.297C157.756 345 157.501 344.702 157.534 344.107L157.891 338.524H152.616ZM154.547 334.564H158.167L158.735 326.026L154.547 334.564ZM181.225 345.227C179.115 345.227 177.611 344.762 176.713 343.831C175.847 342.955 175.355 341.77 175.236 340.277C175.128 338.773 175.355 337.004 175.918 334.969L179.342 321.66C179.472 321.173 179.802 320.93 180.332 320.93H183.286C183.557 320.93 183.752 321.032 183.871 321.238C183.99 321.444 184.017 321.687 183.952 321.968L180.592 335.326C180.029 337.436 179.808 339.011 179.927 340.05C180.056 341.088 180.592 341.608 181.533 341.608C182.053 341.608 182.513 341.435 182.913 341.088C183.313 340.731 183.719 340.082 184.13 339.141C184.542 338.199 184.958 336.895 185.38 335.229L188.837 321.66C188.967 321.173 189.303 320.93 189.844 320.93H192.538C192.808 320.93 193.003 321.032 193.122 321.238C193.241 321.444 193.268 321.687 193.203 321.968L189.941 334.856C189.627 336.089 189.313 337.171 189 338.102C188.697 339.022 188.296 339.952 187.799 340.894C187.312 341.835 186.776 342.609 186.192 343.215C185.607 343.81 184.888 344.297 184.033 344.675C183.189 345.043 182.253 345.227 181.225 345.227ZM213.737 320.573C215.317 320.573 216.475 321.184 217.211 322.407C217.946 323.619 218.314 325.301 218.314 327.454C218.314 328.028 218.049 328.38 217.519 328.509L215.101 329.142C214.873 329.207 214.624 329.191 214.354 329.094C214.083 328.986 213.943 328.769 213.932 328.445C213.856 326.583 213.515 325.263 212.909 324.484C212.844 324.452 212.763 324.463 212.666 324.517C212.287 324.733 211.854 325.328 211.367 326.302C210.88 327.276 210.637 328.19 210.637 329.045C210.637 329.662 210.767 330.095 211.027 330.344C211.286 330.582 211.768 330.803 212.471 331.009L213.072 331.171C213.526 331.301 213.905 331.447 214.208 331.61C214.511 331.772 214.808 332.015 215.101 332.34C215.393 332.665 215.609 333.108 215.75 333.671C215.89 334.223 215.961 334.899 215.961 335.7C215.961 336.868 215.717 338.053 215.23 339.254C214.743 340.455 214.11 341.516 213.331 342.436C212.563 343.344 211.676 344.091 210.669 344.675C209.663 345.249 208.668 345.536 207.683 345.536C206.871 345.536 206.157 345.4 205.541 345.13C204.924 344.859 204.442 344.524 204.096 344.124C203.75 343.723 203.468 343.236 203.252 342.663C203.036 342.089 202.895 341.554 202.83 341.056C202.765 340.547 202.733 340.012 202.733 339.449C202.733 339.092 202.798 338.767 202.927 338.475C203.068 338.183 203.268 337.988 203.528 337.891L206.092 336.982C206.493 336.852 206.807 336.836 207.034 336.933C207.272 337.031 207.391 337.215 207.391 337.485C207.326 340.136 207.488 341.689 207.878 342.143C208.094 342.143 208.284 342.111 208.446 342.046C209.03 341.754 209.577 341.159 210.085 340.261C210.594 339.362 210.848 338.34 210.848 337.193C210.848 336.879 210.843 336.636 210.832 336.463C210.821 336.279 210.783 336.078 210.718 335.862C210.653 335.635 210.556 335.456 210.426 335.326C210.296 335.186 210.112 335.05 209.874 334.921C209.647 334.791 209.36 334.683 209.014 334.596L208.478 334.466C208.143 334.38 207.813 334.261 207.488 334.109C207.174 333.947 206.85 333.73 206.514 333.46C206.19 333.179 205.925 332.811 205.719 332.356C205.524 331.902 205.427 331.388 205.427 330.814C205.427 329.743 205.654 328.607 206.109 327.406C206.563 326.194 207.158 325.085 207.894 324.078C208.641 323.072 209.533 322.239 210.572 321.579C211.611 320.908 212.666 320.573 213.737 320.573ZM238.132 345C238.132 345 235.676 345 230.763 345H228.799H227.923C227.652 345 227.457 344.903 227.338 344.708C227.219 344.502 227.192 344.259 227.257 343.977L232.127 324.89H230.925C230.59 324.89 230.374 324.798 230.276 324.614C230.179 324.43 230.184 324.122 230.292 323.689L230.828 321.595C230.893 321.303 230.963 321.119 231.039 321.043C231.115 320.968 231.266 320.93 231.494 320.93H233.944H236.769H243.813C244.484 320.93 244.738 321.287 244.576 322.001L244.154 323.965C244.11 324.214 243.97 324.43 243.732 324.614C243.504 324.798 243.266 324.89 243.017 324.89H236.687L235.389 329.97H241.053C241.681 329.97 241.914 330.327 241.751 331.041L241.329 333.005C241.286 333.254 241.156 333.471 240.94 333.655C240.723 333.839 240.496 333.931 240.258 333.931H234.383L232.581 341.04H238.927C239.555 341.04 239.787 341.397 239.625 342.111L239.203 344.075C239.16 344.324 239.03 344.54 238.814 344.724C238.597 344.908 238.37 345 238.132 345ZM274.905 332.502C274.451 334.255 274.148 335.792 273.996 337.112C273.856 338.432 273.872 339.449 274.045 340.163C274.229 340.867 274.559 341.218 275.035 341.218C275.403 341.218 275.739 341.099 276.042 340.861C276.345 340.612 276.685 340.174 277.064 339.546C277.757 338.335 278.444 336.376 279.125 333.671C279.45 332.351 279.699 331.177 279.872 330.149C280.045 329.121 280.148 328.223 280.18 327.454C280.213 326.686 280.143 326.102 279.969 325.702C279.807 325.29 279.547 325.085 279.19 325.085C278.736 325.085 278.352 325.182 278.038 325.377C277.735 325.561 277.41 325.94 277.064 326.513C276.361 327.66 275.641 329.656 274.905 332.502ZM270.182 331.431C270.712 329.375 271.405 327.552 272.26 325.961C273.125 324.36 274.159 323.078 275.36 322.115C276.572 321.151 277.849 320.67 279.19 320.67C279.71 320.67 280.278 320.746 280.895 320.897C281.511 321.038 282.042 321.238 282.485 321.498C283.286 321.974 283.854 322.693 284.189 323.656C284.536 324.609 284.709 325.864 284.709 327.422C284.709 329.424 284.336 331.902 283.589 334.856C283.221 336.295 282.777 337.615 282.258 338.816C281.749 340.017 281.143 341.105 280.44 342.078C279.748 343.041 278.941 343.799 278.022 344.351C277.102 344.892 276.117 345.162 275.068 345.162C273.78 345.162 272.741 344.94 271.951 344.497C270.988 343.956 270.301 343.123 269.89 341.997C269.49 340.872 269.29 339.433 269.29 337.68C269.29 335.819 269.587 333.736 270.182 331.431ZM306.469 335.586C306.469 335.586 304.5 335.586 300.561 335.586L298.354 344.27C298.224 344.757 297.888 345 297.347 345H294.523C294.253 345 294.058 344.903 293.939 344.708C293.82 344.502 293.793 344.259 293.858 343.977L298.727 324.89H297.558C297.223 324.89 297.006 324.798 296.909 324.614C296.812 324.43 296.817 324.122 296.925 323.689L297.461 321.595C297.526 321.303 297.596 321.119 297.672 321.043C297.748 320.968 297.899 320.93 298.126 320.93C298.126 320.93 298.932 320.93 300.545 320.93H303.369H310.446C311.116 320.93 311.371 321.287 311.208 322.001L310.786 323.965C310.743 324.214 310.602 324.43 310.364 324.614C310.137 324.798 309.899 324.89 309.65 324.89H303.288L301.567 331.642H307.264C307.881 331.642 308.114 331.994 307.962 332.697L307.524 334.661C307.481 334.91 307.351 335.126 307.134 335.31C306.929 335.494 306.707 335.586 306.469 335.586ZM123.853 361.853L125.07 361.772C126.368 361.696 127.266 361.096 127.764 359.97C127.959 359.527 128.138 358.856 128.3 357.958C128.473 357.06 128.56 356.378 128.56 355.913C128.56 355.588 128.457 355.339 128.251 355.166C128.046 354.982 127.818 354.89 127.569 354.89C127.472 354.89 127.331 354.89 127.147 354.89C126.974 354.879 126.736 354.874 126.433 354.874C126.13 354.863 125.865 354.858 125.638 354.858L123.853 361.853ZM121.077 354.825H119.957C119.687 354.825 119.486 354.733 119.357 354.549C119.227 354.365 119.194 354.149 119.259 353.9L119.86 351.595C119.903 351.4 120.006 351.243 120.168 351.124C120.33 350.995 120.482 350.93 120.623 350.93H122.879H125.703H127.699C129.203 350.93 130.421 351.287 131.351 352.001C132.282 352.715 132.747 353.797 132.747 355.247C132.747 356.632 132.46 358.115 131.887 359.694C131.324 361.274 130.724 362.367 130.085 362.973C130.064 362.995 130.037 363.016 130.004 363.038C129.982 363.06 129.955 363.092 129.923 363.135C129.631 363.417 129.355 363.655 129.095 363.849C128.835 364.033 128.446 364.255 127.927 364.515C127.407 364.764 126.725 364.959 125.881 365.099C125.048 365.229 124.074 365.299 122.96 365.31L120.688 374.27C120.558 374.757 120.222 375 119.681 375H116.857C116.587 375 116.392 374.903 116.273 374.708C116.154 374.502 116.127 374.259 116.192 373.977L121.077 354.825ZM149.429 361.95L150.679 361.772C151.285 361.696 151.805 361.528 152.237 361.269C152.67 361.009 153.049 360.576 153.374 359.97C153.547 359.44 153.72 358.72 153.893 357.812C154.077 356.903 154.169 356.183 154.169 355.653C154.169 355.447 154.061 355.269 153.844 355.117C153.639 354.966 153.417 354.89 153.179 354.89C153.081 354.89 152.941 354.89 152.757 354.89C152.584 354.879 152.346 354.874 152.043 354.874C151.74 354.863 151.475 354.858 151.247 354.858L149.429 361.95ZM146.686 354.825H145.567C145.296 354.825 145.096 354.733 144.966 354.549C144.836 354.365 144.804 354.149 144.869 353.9L145.469 351.595C145.512 351.4 145.615 351.243 145.778 351.124C145.94 350.995 146.091 350.93 146.232 350.93H148.488H151.312H153.309C154.813 350.93 156.03 351.287 156.961 352.001C157.891 352.715 158.356 353.797 158.356 355.247C158.356 356.643 158.075 358.136 157.512 359.727C156.95 361.307 156.344 362.389 155.695 362.973C154.948 363.72 154.234 364.261 153.552 364.596L154.899 373.604C155.029 374.535 154.732 375 154.007 375H151.377C151.074 375 150.815 374.849 150.598 374.546C150.393 374.243 150.257 373.842 150.192 373.344L149.186 365.31H148.585L146.297 374.27C146.167 374.757 145.832 375 145.291 375H142.466C142.196 375 142.001 374.903 141.882 374.708C141.763 374.502 141.736 374.259 141.801 373.977L146.686 354.825ZM173.356 368.524L170.483 374.367C170.256 374.843 169.834 375.065 169.217 375.032L166.637 374.935C166.236 374.924 165.971 374.794 165.841 374.546C165.711 374.297 165.733 374.015 165.906 373.702L177.008 352.326C177.235 351.893 177.511 351.563 177.836 351.335C178.161 351.108 178.491 350.995 178.826 350.995L182.656 350.962C183.068 350.962 183.392 351.097 183.63 351.368C183.879 351.638 183.987 352.039 183.955 352.569L182.721 374.27C182.689 374.757 182.359 375 181.731 375H179.037C178.496 375 178.242 374.702 178.274 374.107L178.631 368.524H173.356ZM175.288 364.564H178.907L179.475 356.026L175.288 364.564ZM202.233 363.395C202.233 363.395 204.613 363.395 209.375 363.395C209.732 363.395 209.829 363.638 209.667 364.125L209.131 365.992C208.99 366.457 208.85 366.739 208.709 366.836C208.687 366.922 208.644 367.063 208.579 367.258C207.8 369.693 206.74 371.624 205.398 373.052C204.067 374.481 202.52 375.195 200.756 375.195C199.522 375.195 198.484 374.951 197.64 374.464C196.687 373.891 196.006 373.041 195.595 371.916C195.183 370.78 194.978 369.357 194.978 367.647C194.978 365.916 195.286 363.844 195.903 361.431C196.411 359.375 197.093 357.546 197.948 355.945C198.814 354.344 199.847 353.067 201.048 352.115C202.26 351.151 203.537 350.67 204.879 350.67C206.177 350.67 207.275 350.957 208.173 351.53C208.974 352.028 209.548 352.758 209.894 353.721C210.251 354.684 210.43 355.929 210.43 357.454C210.43 357.995 210.208 358.347 209.764 358.509L206.015 359.646C205.798 359.711 205.641 359.7 205.544 359.613C205.457 359.516 205.425 359.348 205.447 359.11C205.447 358.991 205.452 358.812 205.463 358.574C205.539 356.67 205.333 355.653 204.846 355.523C204.1 355.307 203.375 355.794 202.671 356.984C201.968 358.163 201.286 360.003 200.626 362.502C200.053 364.645 199.777 366.522 199.798 368.134C199.82 369.736 200.128 370.607 200.723 370.748C201.254 370.888 201.833 370.618 202.46 369.936C203.088 369.254 203.602 368.248 204.002 366.917H201.535C201.102 366.917 200.967 366.609 201.129 365.992L201.73 363.801C201.773 363.638 201.827 363.53 201.892 363.476C201.968 363.422 202.081 363.395 202.233 363.395ZM227.223 375.227C225.113 375.227 223.609 374.762 222.711 373.831C221.845 372.955 221.353 371.77 221.234 370.277C221.126 368.773 221.353 367.004 221.916 364.969L225.34 351.66C225.47 351.173 225.8 350.93 226.33 350.93H229.284C229.555 350.93 229.75 351.032 229.869 351.238C229.988 351.444 230.015 351.687 229.95 351.968L226.59 365.326C226.027 367.436 225.806 369.011 225.925 370.05C226.054 371.088 226.59 371.608 227.531 371.608C228.051 371.608 228.511 371.435 228.911 371.088C229.311 370.731 229.717 370.082 230.128 369.141C230.54 368.199 230.956 366.895 231.378 365.229L234.835 351.66C234.965 351.173 235.301 350.93 235.842 350.93H238.536C238.806 350.93 239.001 351.032 239.12 351.238C239.239 351.444 239.266 351.687 239.201 351.968L235.939 364.856C235.625 366.089 235.311 367.171 234.998 368.102C234.695 369.022 234.294 369.952 233.797 370.894C233.31 371.835 232.774 372.609 232.19 373.215C231.605 373.81 230.886 374.297 230.031 374.675C229.187 375.043 228.251 375.227 227.223 375.227ZM258.696 375C258.696 375 256.24 375 251.328 375H249.364H248.487C248.217 375 248.022 374.903 247.903 374.708C247.784 374.502 247.757 374.259 247.822 373.977L252.691 354.89H251.49C251.154 354.89 250.938 354.798 250.841 354.614C250.743 354.43 250.749 354.122 250.857 353.689L251.393 351.595C251.457 351.303 251.528 351.119 251.604 351.043C251.679 350.968 251.831 350.93 252.058 350.93H254.509H257.333H264.377C265.048 350.93 265.302 351.287 265.14 352.001L264.718 353.965C264.675 354.214 264.534 354.43 264.296 354.614C264.069 354.798 263.831 354.89 263.582 354.89H257.252L255.953 359.97H261.618C262.246 359.97 262.478 360.327 262.316 361.041L261.894 363.005C261.851 363.254 261.721 363.471 261.504 363.655C261.288 363.839 261.061 363.931 260.823 363.931H254.947L253.145 371.04H259.492C260.119 371.04 260.352 371.397 260.19 372.111L259.768 374.075C259.724 374.324 259.595 374.54 259.378 374.724C259.162 374.908 258.934 375 258.696 375Z" fill="#766458"/>
<path d="M112.866 96.083L114.568 99.5078L116.154 96.083H120.16L114.794 106.986C114.675 107.21 114.468 107.321 114.172 107.321C113.88 107.321 113.677 107.21 113.563 106.986L107.91 96.083H112.866ZM133.292 99.6377C132.996 99.5238 132.679 99.4668 132.342 99.4668C131.649 99.4668 131.045 99.7197 130.53 100.226C130.02 100.727 129.765 101.328 129.765 102.03C129.765 102.5 129.856 102.867 130.038 103.131C130.22 103.395 130.469 103.527 130.783 103.527C131.098 103.527 131.444 103.448 131.822 103.288C132.205 103.124 132.766 102.771 133.504 102.229V106.679C132.533 107.071 131.501 107.267 130.407 107.267C129.318 107.267 128.313 107.057 127.393 106.638C125.93 105.968 124.966 104.92 124.501 103.493C124.346 103.006 124.266 102.468 124.262 101.88C124.262 101.292 124.335 100.729 124.48 100.191C124.626 99.6536 124.838 99.1569 125.116 98.7012C125.672 97.7852 126.451 97.0674 127.454 96.5479C128.461 96.0283 129.614 95.7708 130.913 95.7754C131.902 95.7754 132.695 95.887 133.292 96.1104V99.6377ZM127.598 91.4072C127.525 91.234 127.488 91.0791 127.488 90.9424C127.488 90.8057 127.57 90.7373 127.734 90.7373C127.898 90.7373 128.129 90.8717 128.425 91.1406L129.963 92.5557L131.521 91.1406C131.809 90.8717 132.034 90.7373 132.198 90.7373C132.362 90.7373 132.444 90.8148 132.444 90.9697C132.444 91.1247 132.41 91.2705 132.342 91.4072L130.947 94.2646C130.747 94.6748 130.423 94.8799 129.977 94.8799C129.79 94.8799 129.603 94.8275 129.416 94.7227C129.234 94.6133 129.095 94.4606 128.999 94.2646L127.598 91.4072ZM135.117 96.083H142.985V99.2275H139.369V100.123H142.972V102.803H139.369V103.835H143.225V107H135.117V96.083ZM148.769 107.267C146.722 107.267 145.364 107.014 144.694 106.508V103.377C144.713 103.382 144.779 103.402 144.893 103.438C145.011 103.475 145.159 103.521 145.337 103.575C145.752 103.703 146.187 103.824 146.643 103.938C147.103 104.047 147.472 104.102 147.75 104.102C148.206 104.102 148.434 103.963 148.434 103.685C148.434 103.47 148.238 103.243 147.846 103.001C147.668 102.892 147.465 102.778 147.237 102.659C147.014 102.541 146.786 102.409 146.554 102.263C145.984 101.912 145.526 101.502 145.18 101.032C144.838 100.563 144.667 99.9704 144.667 99.2549C144.667 97.6917 145.492 96.6413 147.142 96.1035C147.812 95.8848 148.584 95.7754 149.459 95.7754C150.339 95.7754 151.257 95.8757 152.214 96.0762C152.41 96.1172 152.54 96.1468 152.604 96.165V99.3027C151.364 99.0384 150.473 98.9062 149.931 98.9062C149.721 98.9062 149.564 98.9427 149.459 99.0156C149.354 99.0885 149.302 99.1706 149.302 99.2617C149.302 99.3529 149.347 99.4486 149.438 99.5488C149.53 99.6445 149.687 99.7425 149.91 99.8428C150.133 99.9385 150.393 100.057 150.689 100.198C150.99 100.335 151.271 100.483 151.53 100.643C152.697 101.358 153.28 102.336 153.28 103.575C153.28 104.751 152.884 105.66 152.091 106.303C151.289 106.941 150.181 107.262 148.769 107.267ZM159.063 96.083V99.4395L161.695 96.083H166.132L162.604 100.684L166.679 107H161.695L159.412 103.138L159.159 103.582V107H154.736V96.083H159.063ZM168.107 96.083H175.976V99.2275H172.359V100.123H175.962V102.803H172.359V103.835H176.215V107H168.107V96.083ZM172.715 94.6064C172.46 94.9255 172.248 95.085 172.079 95.085C171.915 95.085 171.833 94.9596 171.833 94.709C171.833 94.5814 171.851 94.4583 171.888 94.3398L172.865 90.9287H175.654L172.715 94.6064ZM188.26 99.5352C188.26 98.8926 188.021 98.5713 187.542 98.5713C187.337 98.5713 187.052 98.6465 186.688 98.7969L185.778 99.1729V101.846C187.433 101.23 188.26 100.46 188.26 99.5352ZM192.32 99.6514C192.32 101.11 191.6 102.267 190.16 103.124L193.127 107H187.727L185.806 103.835V107H181.342V96.083C184.231 95.8779 186.125 95.7754 187.022 95.7754C187.92 95.7754 188.604 95.8301 189.073 95.9395C190.368 96.2357 191.293 96.8691 191.849 97.8398C192.159 98.3958 192.316 98.9997 192.32 99.6514ZM194.453 96.083H202.321V99.2275H198.705V100.123H202.308V102.803H198.705V103.835H202.561V107H194.453V96.083ZM204.188 96.1104C206.448 95.887 208.157 95.7754 209.314 95.7754C210.472 95.7754 211.388 95.8597 212.062 96.0283C212.742 96.1969 213.3 96.459 213.737 96.8145C214.585 97.5072 215.009 98.6442 215.009 100.226C215.009 100.937 214.874 101.588 214.605 102.181C214.337 102.773 213.97 103.281 213.505 103.705C213.04 104.129 212.495 104.459 211.871 104.696C211.247 104.933 210.579 105.052 209.868 105.052L208.651 105.024V107H204.188V96.1104ZM210.347 98.6123C209.955 98.6123 209.381 98.8835 208.624 99.4258V102.003L209.424 101.613C209.952 101.354 210.322 101.105 210.531 100.868C210.923 100.426 211.119 99.9863 211.119 99.5488C211.119 99.1113 210.971 98.8219 210.675 98.6807C210.579 98.6351 210.47 98.6123 210.347 98.6123ZM221.482 107.267C217.859 107.267 216.048 105.726 216.048 102.646V96.083H220.361V102.522C220.361 103.17 220.578 103.591 221.011 103.787C221.161 103.855 221.341 103.89 221.551 103.89C222.143 103.89 222.517 103.607 222.672 103.042C222.717 102.873 222.74 102.691 222.74 102.495V96.083H226.521V102.646C226.521 105.726 224.841 107.267 221.482 107.267ZM228.1 96.083C230.574 95.9691 232.352 95.9121 233.432 95.9121C235.441 95.9121 236.884 96.14 237.759 96.5957C238.543 97.0059 238.935 97.6279 238.935 98.4619C238.935 98.9632 238.802 99.3848 238.538 99.7266C238.278 100.064 237.88 100.355 237.342 100.602C238.016 100.829 238.536 101.153 238.9 101.572C239.379 102.124 239.618 102.88 239.618 103.842C239.618 105.915 238.014 107.011 234.806 107.13C234.345 107.148 233.988 107.157 233.732 107.157C233.477 107.157 233.256 107.155 233.069 107.15C232.882 107.146 232.668 107.139 232.427 107.13C232.19 107.125 231.93 107.118 231.647 107.109C231.369 107.105 231.087 107.096 230.8 107.082C230.513 107.073 230.23 107.064 229.952 107.055C229.674 107.046 229.414 107.034 229.173 107.021C228.931 107.011 228.717 107.005 228.53 107C228.343 106.991 228.2 106.982 228.1 106.973V96.083ZM235.072 102.755C235.072 102.372 234.847 102.181 234.396 102.181C234.054 102.176 233.523 102.374 232.803 102.775C232.634 102.867 232.491 102.944 232.372 103.008V104.73C232.436 104.708 232.495 104.685 232.55 104.662C232.609 104.639 232.741 104.589 232.946 104.512C233.675 104.238 234.172 104.013 234.437 103.835C234.865 103.548 235.077 103.188 235.072 102.755ZM232.372 101.08C233.147 100.779 233.662 100.54 233.917 100.362C234.446 100.007 234.71 99.624 234.71 99.2139C234.71 98.9268 234.56 98.7422 234.259 98.6602C234.177 98.6374 234.09 98.626 233.999 98.626C233.908 98.626 233.801 98.6419 233.678 98.6738C233.559 98.7057 233.441 98.7467 233.322 98.7969C233.14 98.8652 232.937 98.9655 232.714 99.0977C232.495 99.2253 232.381 99.2936 232.372 99.3027V101.08ZM241.033 96.083H245.285V103.712H248.956V107H241.033V96.083ZM254.268 107H250.016V96.083H254.268V107ZM264.542 99.6377C264.246 99.5238 263.929 99.4668 263.592 99.4668C262.899 99.4668 262.295 99.7197 261.78 100.226C261.27 100.727 261.015 101.328 261.015 102.03C261.015 102.5 261.106 102.867 261.288 103.131C261.47 103.395 261.719 103.527 262.033 103.527C262.348 103.527 262.694 103.448 263.072 103.288C263.455 103.124 264.016 102.771 264.754 102.229V106.679C263.783 107.071 262.751 107.267 261.657 107.267C260.568 107.267 259.563 107.057 258.643 106.638C257.18 105.968 256.216 104.92 255.751 103.493C255.596 103.006 255.516 102.468 255.512 101.88C255.512 101.292 255.585 100.729 255.73 100.191C255.876 99.6536 256.088 99.1569 256.366 98.7012C256.922 97.7852 257.701 97.0674 258.704 96.5479C259.711 96.0283 260.864 95.7708 262.163 95.7754C263.152 95.7754 263.945 95.887 264.542 96.1104V99.6377ZM266.367 96.083H274.235V99.2275H270.619V100.123H274.222V102.803H270.619V103.835H274.475V107H266.367V96.083Z" fill="white"/>
<path d="M88.4453 18.5703L94.2812 30.3125L99.7188 18.5703H113.453L95.0547 55.9531C94.6484 56.7188 93.9375 57.1016 92.9219 57.1016C91.9219 57.1016 91.2266 56.7188 90.8359 55.9531L71.4531 18.5703H88.4453ZM131.547 56H116.969V18.5703H131.547V56ZM126.625 13.5078C125.75 14.6016 125.023 15.1484 124.445 15.1484C123.883 15.1484 123.602 14.7188 123.602 13.8594C123.602 13.4219 123.664 13 123.789 12.5938L127.141 0.898438H136.703L126.625 13.5078ZM135.719 18.5703H171.156V30.7109H160.727V56H146.148V30.7109H135.719V18.5703ZM167.641 56L186.25 20.4688C186.891 19.2031 188.07 18.3594 189.789 17.9375C190.289 17.8125 190.906 17.75 191.641 17.75C192.375 17.75 193.172 17.9609 194.031 18.3828C194.906 18.7891 195.594 19.4375 196.094 20.3281L216.062 56H197.055L195.578 52.2969H185.453L184.188 56H167.641ZM186.602 44.8672H194.172L190.586 34.7422L186.602 44.8672ZM219.625 18.5703H224.992L243.086 35.5625L261.672 18.5703H266.852V56H251.453V43.8594L241.891 54.3594L232.586 44.1406V56H219.625V18.5703ZM272.641 18.5703H299.617V29.3516H287.219V32.4219H299.57V41.6094H287.219V45.1484H300.438V56H272.641V18.5703Z" fill="white"/>
<path d="M61.025 100.831H89.947V102.781H61.025V100.831Z" fill="#766458"/>
<path d="M288.055 100.831H316.977V102.781H288.055V100.831Z" fill="#766458"/>
</svg>
