<svg width="458" height="378" viewBox="0 0 458 378" fill="none" xmlns="http://www.w3.org/2000/svg">
<path fill-rule="evenodd" clip-rule="evenodd" d="M134.281 30.3125L128.445 18.5703H111.453L130.836 55.9531C131.227 56.7188 131.922 57.1016 132.922 57.1016C133.937 57.1016 134.648 56.7188 135.055 55.9531L153.453 18.5703H139.719L134.281 30.3125ZM156.969 56H171.547V18.5703H156.969V56ZM164.445 15.1484C165.023 15.1484 165.75 14.6016 166.625 13.5078L176.703 0.898438H167.141L163.789 12.5938C163.664 13 163.602 13.4219 163.602 13.8594C163.602 14.7188 163.883 15.1484 164.445 15.1484ZM211.156 18.5703H175.719V30.7109H186.148V56H200.727V30.7109H211.156V18.5703ZM226.25 20.4688L207.641 56H224.187L225.453 52.2969H235.578L237.055 56H256.062L236.094 20.3281C235.594 19.4375 234.906 18.7891 234.031 18.3828C233.172 17.9609 232.375 17.75 231.641 17.75C230.906 17.75 230.289 17.8125 229.789 17.9375C228.07 18.3594 226.891 19.2031 226.25 20.4688ZM234.172 44.8672H226.602L230.586 34.7422L234.172 44.8672ZM264.992 18.5703H259.625V56H272.586V44.1406L281.891 54.3594L291.453 43.8594V56H306.852V18.5703H301.672L283.086 35.5625L264.992 18.5703ZM339.617 18.5703H312.641V56H340.437V45.1484H327.219V41.6094H339.57V32.4219H327.219V29.3516H339.617V18.5703ZM154.568 99.5078L152.866 96.083H147.91L153.563 106.986C153.677 107.21 153.88 107.321 154.172 107.321C154.468 107.321 154.675 107.21 154.794 106.986L160.16 96.083H156.154L154.568 99.5078ZM172.342 99.4668C172.679 99.4668 172.996 99.5238 173.292 99.6377V96.1104C172.695 95.887 171.902 95.7754 170.913 95.7754C169.614 95.7708 168.461 96.0283 167.454 96.5479C166.451 97.0674 165.672 97.7852 165.116 98.7012C164.838 99.1569 164.626 99.6536 164.48 100.191C164.335 100.729 164.262 101.292 164.262 101.88C164.266 102.468 164.346 103.006 164.501 103.493C164.966 104.92 165.93 105.968 167.393 106.638C168.313 107.057 169.318 107.267 170.407 107.267C171.501 107.267 172.533 107.071 173.504 106.679V102.229C172.766 102.771 172.205 103.124 171.822 103.288C171.444 103.448 171.098 103.527 170.783 103.527C170.469 103.527 170.22 103.395 170.038 103.131C169.856 102.867 169.765 102.5 169.765 102.03C169.765 101.328 170.02 100.727 170.53 100.226C171.045 99.7197 171.649 99.4668 172.342 99.4668ZM167.488 90.9424C167.488 91.0791 167.525 91.234 167.598 91.4072L168.999 94.2646C169.095 94.4606 169.234 94.6133 169.416 94.7227C169.603 94.8275 169.79 94.8799 169.977 94.8799C170.423 94.8799 170.747 94.6748 170.947 94.2646L172.342 91.4072C172.41 91.2705 172.444 91.1247 172.444 90.9697C172.444 90.8148 172.362 90.7373 172.198 90.7373C172.034 90.7373 171.809 90.8717 171.521 91.1406L169.963 92.5557L168.425 91.1406C168.129 90.8717 167.898 90.7373 167.734 90.7373C167.57 90.7373 167.488 90.8057 167.488 90.9424ZM182.985 96.083H175.117V107H183.225V103.835H179.369V102.803H182.972V100.123H179.369V99.2275H182.985V96.083ZM184.694 106.508C185.364 107.014 186.722 107.267 188.769 107.267C190.181 107.262 191.289 106.941 192.091 106.303C192.884 105.66 193.28 104.751 193.28 103.575C193.28 102.336 192.697 101.358 191.53 100.643C191.271 100.483 190.99 100.335 190.689 100.198C190.393 100.057 190.133 99.9385 189.91 99.8428C189.687 99.7425 189.53 99.6445 189.438 99.5488C189.347 99.4486 189.302 99.3529 189.302 99.2617C189.302 99.1706 189.354 99.0885 189.459 99.0156C189.564 98.9427 189.721 98.9062 189.931 98.9062C190.473 98.9062 191.364 99.0384 192.604 99.3027V96.165C192.54 96.1468 192.41 96.1172 192.214 96.0762C191.257 95.8756 190.339 95.7754 189.459 95.7754C188.584 95.7754 187.812 95.8848 187.142 96.1035C185.492 96.6413 184.667 97.6917 184.667 99.2549C184.667 99.9704 184.838 100.563 185.18 101.032C185.526 101.502 185.984 101.912 186.554 102.263C186.786 102.409 187.014 102.541 187.237 102.659C187.465 102.778 187.668 102.892 187.846 103.001C188.238 103.243 188.434 103.47 188.434 103.685C188.434 103.963 188.206 104.102 187.75 104.102C187.472 104.102 187.103 104.047 186.643 103.938C186.187 103.824 185.752 103.703 185.337 103.575L184.893 103.438C184.779 103.402 184.713 103.382 184.694 103.377V106.508ZM199.063 99.4395V96.083H194.736V107H199.159V103.582L199.412 103.138L201.695 107H206.679L202.604 100.684L206.132 96.083H201.695L199.063 99.4395ZM215.976 96.083H208.107V107H216.215V103.835H212.359V102.803H215.962V100.123H212.359V99.2275H215.976V96.083ZM212.079 95.085C212.248 95.085 212.46 94.9255 212.715 94.6064L215.654 90.9287H212.865L211.888 94.3398C211.851 94.4583 211.833 94.5814 211.833 94.709C211.833 94.9596 211.915 95.085 212.079 95.085ZM227.542 98.5713C228.021 98.5713 228.26 98.8926 228.26 99.5352C228.26 100.46 227.433 101.23 225.778 101.846V99.1729L226.687 98.7969C227.052 98.6465 227.337 98.5713 227.542 98.5713ZM230.16 103.124C231.6 102.267 232.32 101.11 232.32 99.6514C232.316 98.9997 232.159 98.3958 231.849 97.8398C231.293 96.8691 230.368 96.2357 229.073 95.9395C228.604 95.8301 227.92 95.7754 227.022 95.7754C226.125 95.7754 224.231 95.8779 221.342 96.083V107H225.806V103.835L227.727 107H233.127L230.16 103.124ZM242.321 96.083H234.453V107H242.561V103.835H238.705V102.803H242.308V100.123H238.705V99.2275H242.321V96.083ZM249.314 95.7754C248.157 95.7754 246.448 95.887 244.187 96.1104V107H248.651V105.024L249.868 105.052C250.579 105.052 251.247 104.933 251.871 104.696C252.495 104.459 253.04 104.129 253.505 103.705C253.97 103.281 254.337 102.773 254.605 102.181C254.874 101.588 255.009 100.937 255.009 100.226C255.009 98.6442 254.585 97.5072 253.737 96.8145C253.3 96.459 252.742 96.1969 252.062 96.0283C251.388 95.8597 250.472 95.7754 249.314 95.7754ZM248.624 99.4258C249.381 98.8835 249.955 98.6123 250.347 98.6123C250.47 98.6123 250.579 98.6351 250.675 98.6807C250.971 98.8219 251.119 99.1113 251.119 99.5488C251.119 99.9863 250.923 100.426 250.531 100.868C250.322 101.105 249.952 101.354 249.424 101.613L248.624 102.003V99.4258ZM256.048 102.646C256.048 105.726 257.859 107.267 261.482 107.267C264.841 107.267 266.521 105.726 266.521 102.646V96.083H262.74V102.495C262.74 102.691 262.717 102.873 262.672 103.042C262.517 103.607 262.143 103.89 261.551 103.89C261.341 103.89 261.161 103.855 261.011 103.787C260.578 103.591 260.361 103.17 260.361 102.522V96.083H256.048V102.646ZM273.432 95.9121C272.352 95.9121 270.574 95.9691 268.1 96.083V106.973C268.2 106.982 268.343 106.991 268.53 107C268.717 107.005 268.931 107.011 269.173 107.021C269.414 107.034 269.674 107.046 269.952 107.055C270.23 107.064 270.513 107.073 270.8 107.082C271.087 107.096 271.369 107.105 271.647 107.109C271.93 107.118 272.19 107.125 272.427 107.13C272.668 107.139 272.882 107.146 273.069 107.15C273.256 107.155 273.477 107.157 273.732 107.157C273.988 107.157 274.345 107.148 274.806 107.13C278.014 107.011 279.618 105.915 279.618 103.842C279.618 102.88 279.379 102.124 278.9 101.572C278.536 101.153 278.016 100.829 277.342 100.602C277.88 100.355 278.278 100.064 278.538 99.7266C278.802 99.3848 278.935 98.9632 278.935 98.4619C278.935 97.6279 278.543 97.0059 277.759 96.5957C276.884 96.14 275.441 95.9121 273.432 95.9121ZM274.396 102.181C274.847 102.181 275.072 102.372 275.072 102.755C275.077 103.188 274.865 103.548 274.437 103.835C274.172 104.013 273.675 104.238 272.946 104.512L272.687 104.61L272.55 104.662C272.495 104.685 272.436 104.708 272.372 104.73V103.008L272.555 102.909L272.803 102.775C273.523 102.374 274.054 102.176 274.396 102.181ZM273.917 100.362C273.662 100.54 273.147 100.779 272.372 101.08V99.3027C272.381 99.2936 272.495 99.2253 272.714 99.0977C272.937 98.9655 273.14 98.8652 273.322 98.7969C273.441 98.7467 273.559 98.7057 273.678 98.6738C273.801 98.6419 273.908 98.626 273.999 98.626C274.09 98.626 274.177 98.6374 274.259 98.6602C274.56 98.7422 274.71 98.9268 274.71 99.2139C274.71 99.624 274.446 100.007 273.917 100.362ZM285.285 96.083H281.033V107H288.956V103.712H285.285V96.083ZM290.016 107H294.268V96.083H290.016V107ZM303.592 99.4668C303.929 99.4668 304.246 99.5238 304.542 99.6377V96.1104C303.945 95.887 303.152 95.7754 302.163 95.7754C300.864 95.7708 299.711 96.0283 298.704 96.5479C297.702 97.0674 296.922 97.7852 296.366 98.7012C296.088 99.1569 295.876 99.6536 295.73 100.191C295.585 100.729 295.512 101.292 295.512 101.88C295.516 102.468 295.596 103.006 295.751 103.493C296.216 104.92 297.18 105.968 298.643 106.638C299.563 107.057 300.568 107.267 301.657 107.267C302.751 107.267 303.783 107.071 304.754 106.679V102.229C304.016 102.771 303.455 103.124 303.072 103.288C302.694 103.448 302.348 103.527 302.033 103.527C301.719 103.527 301.47 103.395 301.288 103.131C301.106 102.867 301.015 102.5 301.015 102.03C301.015 101.328 301.27 100.727 301.78 100.226C302.295 99.7197 302.899 99.4668 303.592 99.4668ZM314.235 96.083H306.367V107H314.475V103.835H310.619V102.803H314.222V100.123H310.619V99.2275H314.235V96.083ZM101.025 100.831H129.947V102.781H101.025V100.831ZM328.055 100.831H356.977V102.781H328.055V100.831ZM351.423 369.358C351.31 369.649 351.253 369.941 351.253 370.235C351.253 370.953 351.5 371.504 351.993 371.884C352.488 372.268 353.063 372.458 353.713 372.458C353.689 372.839 353.589 373.176 353.409 373.468C353.23 373.759 353.001 374.016 352.733 374.228C352.466 374.441 352.179 374.621 351.876 374.767C351.572 374.912 351.298 375.029 351.048 375.119L352.398 377.109C352.52 377.049 352.643 376.993 352.768 376.939C352.974 376.851 353.214 376.731 353.494 376.587C353.802 376.424 354.1 376.244 354.387 376.047C354.689 375.844 354.971 375.613 355.23 375.356C355.783 374.807 356.223 374.154 356.526 373.436C356.83 372.717 356.981 371.928 356.981 371.078C356.981 370.627 356.915 370.201 356.779 369.797C356.644 369.393 356.454 369.045 356.207 368.753C355.916 368.436 355.56 368.196 355.146 368.026C354.73 367.858 354.298 367.774 353.848 367.774C353.443 367.774 353.078 367.848 352.753 367.994C352.443 368.129 352.162 368.323 351.926 368.566C351.703 368.802 351.535 369.065 351.423 369.358ZM359.09 370.235C359.09 369.942 359.147 369.649 359.257 369.358C359.37 369.065 359.539 368.802 359.763 368.566C359.99 368.331 360.263 368.138 360.588 367.994C360.915 367.849 361.278 367.774 361.684 367.774C362.134 367.774 362.567 367.858 362.981 368.026C363.398 368.196 363.751 368.436 364.042 368.753C364.292 369.045 364.482 369.393 364.616 369.797C364.75 370.202 364.818 370.628 364.818 371.078C364.827 371.887 364.672 372.689 364.363 373.436C364.059 374.154 363.618 374.806 363.065 375.356C362.806 375.613 362.523 375.844 362.22 376.047C361.934 376.246 361.636 376.426 361.327 376.587C361.047 376.732 360.807 376.851 360.602 376.939C360.478 376.993 360.354 377.05 360.232 377.109L358.884 375.119C359.131 375.03 359.404 374.912 359.709 374.767C360.013 374.621 360.299 374.441 360.569 374.228C360.837 374.014 361.063 373.761 361.242 373.468C361.423 373.176 361.524 372.84 361.546 372.458C360.924 372.469 360.318 372.266 359.827 371.884C359.337 371.504 359.09 370.953 359.09 370.236V370.235ZM94.36 312.394C94.473 312.103 94.53 311.81 94.53 311.519H94.531C94.531 310.8 94.283 310.251 93.791 309.87C93.297 309.488 92.723 309.298 92.073 309.298C92.096 308.915 92.196 308.577 92.376 308.285C92.556 307.993 92.779 307.74 93.049 307.527C93.319 307.313 93.606 307.134 93.909 306.988C94.1783 306.858 94.4537 306.74 94.734 306.636L93.386 304.648C93.342 304.67 93.219 304.728 93.016 304.815C92.813 304.904 92.571 305.023 92.291 305.167C91.9829 305.329 91.6847 305.509 91.398 305.707C91.0946 305.909 90.8119 306.14 90.554 306.397C90.001 306.947 89.5604 307.599 89.257 308.317C88.954 309.037 88.802 309.825 88.802 310.677C88.7999 311.112 88.8681 311.544 89.004 311.957C89.1261 312.339 89.3207 312.694 89.577 313.002C89.8723 313.319 90.2343 313.567 90.637 313.727C91.0489 313.895 91.4894 313.98 91.934 313.979C92.6563 313.989 93.3513 313.703 93.857 313.187C94.0757 312.959 94.2467 312.689 94.36 312.394ZM86.694 311.519C86.6892 312.141 86.4487 312.738 86.021 313.189C85.7854 313.431 85.5048 313.625 85.195 313.76C84.869 313.906 84.503 313.98 84.099 313.98C83.6541 313.981 83.2131 313.896 82.801 313.728C82.3984 313.567 82.0364 313.319 81.741 313.002C81.484 312.694 81.2894 312.339 81.168 311.957C81.0316 311.544 80.9634 311.112 80.966 310.677C80.966 309.825 81.116 309.037 81.421 308.317C81.724 307.599 82.1646 306.946 82.718 306.397C82.965 306.149 83.245 305.92 83.561 305.706C83.875 305.494 84.173 305.313 84.454 305.166C84.734 305.022 84.974 304.904 85.178 304.816L85.2346 304.79C85.4035 304.714 85.5094 304.667 85.55 304.646L86.897 306.634C86.649 306.724 86.375 306.842 86.071 306.987C85.768 307.134 85.481 307.313 85.214 307.525C84.9465 307.737 84.7177 307.994 84.538 308.284C84.359 308.576 84.258 308.914 84.236 309.296C84.886 309.296 85.46 309.486 85.954 309.869C86.447 310.251 86.694 310.799 86.694 311.519ZM118.731 330.895L119.348 330.944C121.274 330.998 122.48 329.743 122.967 327.179C123.108 326.389 123.064 325.799 122.837 325.409C122.61 325.02 122.145 324.825 121.441 324.825H120.273L118.731 330.895ZM115.712 324.825H114.852C114.559 324.825 114.305 324.738 114.089 324.565C113.872 324.392 113.797 324.192 113.862 323.965L114.495 321.595C114.538 321.4 114.641 321.243 114.803 321.124C114.965 320.995 115.117 320.93 115.257 320.93H117.513H120.338H121.798C123.811 320.93 125.375 321.346 126.489 322.179C127.614 323.013 128.177 324.203 128.177 325.75C128.177 326.594 128.053 327.465 127.804 328.363C127.566 329.251 127.252 330.008 126.862 330.636C126.202 331.685 125.326 332.421 124.233 332.843C124.763 333.211 125.115 333.736 125.288 334.417C125.472 335.099 125.504 336.024 125.385 337.193C125.266 338.221 124.926 339.308 124.363 340.455C123.811 341.602 123.135 342.517 122.334 343.198C122.118 343.393 121.89 343.572 121.652 343.734C121.425 343.885 121.22 344.021 121.036 344.14C120.852 344.259 120.614 344.367 120.321 344.464C120.029 344.551 119.813 344.627 119.672 344.692C119.532 344.746 119.283 344.794 118.926 344.838C118.579 344.881 118.352 344.913 118.244 344.935C118.136 344.957 117.871 344.973 117.449 344.984C117.027 344.995 116.772 345 116.686 345H115.825H114.981H114.316H113.456H111.492C111.221 345 111.027 344.903 110.908 344.708C110.789 344.502 110.761 344.259 110.826 343.977L115.712 324.825ZM116.183 340.877L116.945 340.845C117.93 340.791 118.742 340.542 119.38 340.098C120.029 339.655 120.538 338.859 120.906 337.712C121.371 336.241 121.284 335.245 120.646 334.726C120.332 334.466 119.402 334.326 117.854 334.304L116.183 340.877ZM148.362 345H140.994H139.03H138.153C137.883 345 137.688 344.903 137.569 344.708C137.45 344.502 137.423 344.259 137.488 343.977L142.357 324.89H141.156C140.82 324.89 140.604 324.798 140.507 324.614C140.409 324.43 140.415 324.122 140.523 323.689L141.059 321.595C141.123 321.303 141.194 321.119 141.27 321.043C141.345 320.968 141.497 320.93 141.724 320.93H144.175H146.999H154.043C154.714 320.93 154.968 321.287 154.806 322.001L154.384 323.965C154.341 324.214 154.2 324.43 153.962 324.614C153.735 324.798 153.497 324.89 153.248 324.89H146.918L145.619 329.97H151.284C151.912 329.97 152.144 330.327 151.982 331.041L151.56 333.005C151.517 333.254 151.387 333.471 151.17 333.655C150.954 333.839 150.727 333.931 150.489 333.931H144.613L142.811 341.04H149.158C149.785 341.04 150.018 341.397 149.856 342.111L149.434 344.075C149.39 344.324 149.261 344.54 149.044 344.724C148.828 344.908 148.6 345 148.362 345ZM178.376 327.081C178.452 327.611 178.23 327.968 177.71 328.152L174.789 329.013C174.54 329.078 174.302 329.034 174.075 328.883C173.858 328.731 173.745 328.52 173.734 328.25C173.669 327.492 173.588 326.913 173.49 326.513C173.393 326.102 173.242 325.637 173.036 325.117C172.906 325.074 172.771 325.052 172.63 325.052C171.267 325.052 169.936 327.536 168.637 332.502C168.064 334.677 167.766 336.63 167.745 338.362C167.723 340.082 168.01 341.034 168.605 341.218C168.832 341.142 169.043 341.034 169.238 340.894C169.444 340.742 169.611 340.601 169.741 340.472C169.871 340.342 170.039 340.104 170.244 339.757C170.45 339.411 170.607 339.135 170.715 338.93C170.834 338.724 171.04 338.335 171.332 337.761C171.559 337.339 171.754 337.085 171.916 336.998C172.078 336.901 172.338 336.922 172.695 337.063L175.422 338.248C175.638 338.324 175.752 338.497 175.763 338.767C175.774 339.038 175.692 339.308 175.519 339.579C174.654 340.964 173.869 342.046 173.166 342.825C172.473 343.593 171.683 344.194 170.796 344.627C169.909 345.049 168.892 345.26 167.745 345.26C167.074 345.26 166.365 345.027 165.618 344.562C164.612 343.945 163.898 342.955 163.476 341.592C163.054 340.228 162.892 338.702 162.989 337.014C163.097 335.326 163.406 333.465 163.914 331.431C164.423 329.375 165.105 327.546 165.959 325.945C166.825 324.344 167.858 323.067 169.059 322.115C170.271 321.151 171.548 320.67 172.89 320.67C173.398 320.67 173.988 320.757 174.659 320.93C175.741 321.189 176.563 321.795 177.126 322.748C177.689 323.7 178.105 325.144 178.376 327.081ZM192.616 338.524L189.743 344.367C189.516 344.843 189.094 345.065 188.477 345.032L185.896 344.935C185.496 344.924 185.231 344.794 185.101 344.546C184.971 344.297 184.993 344.015 185.166 343.702L196.268 322.326C196.495 321.893 196.771 321.563 197.096 321.335C197.42 321.108 197.75 320.995 198.086 320.995L201.916 320.962C202.327 320.962 202.652 321.097 202.89 321.368C203.139 321.638 203.247 322.039 203.215 322.569L201.981 344.27C201.949 344.757 201.619 345 200.991 345H198.297C197.756 345 197.501 344.702 197.534 344.107L197.891 338.524H192.616ZM194.547 334.564H198.167L198.735 326.026L194.547 334.564ZM221.225 345.227C219.115 345.227 217.611 344.762 216.713 343.831C215.847 342.955 215.355 341.77 215.236 340.277C215.128 338.773 215.355 337.004 215.918 334.969L219.342 321.66C219.472 321.173 219.802 320.93 220.332 320.93H223.286C223.557 320.93 223.752 321.032 223.871 321.238C223.99 321.444 224.017 321.687 223.952 321.968L220.592 335.326C220.029 337.436 219.808 339.011 219.927 340.05C220.056 341.088 220.592 341.608 221.533 341.608C222.053 341.608 222.513 341.435 222.913 341.088C223.313 340.731 223.719 340.082 224.13 339.141C224.542 338.199 224.958 336.895 225.38 335.229L228.837 321.66C228.967 321.173 229.303 320.93 229.844 320.93H232.538C232.808 320.93 233.003 321.032 233.122 321.238C233.241 321.444 233.268 321.687 233.203 321.968L229.941 334.856C229.627 336.089 229.313 337.171 229 338.102C228.697 339.022 228.296 339.952 227.799 340.894C227.312 341.835 226.776 342.609 226.192 343.215C225.607 343.81 224.888 344.297 224.033 344.675C223.189 345.043 222.253 345.227 221.225 345.227ZM253.737 320.573C255.317 320.573 256.475 321.184 257.211 322.407C257.946 323.619 258.314 325.301 258.314 327.454C258.314 328.028 258.049 328.38 257.519 328.509L255.101 329.142C254.873 329.207 254.624 329.191 254.354 329.094C254.083 328.986 253.943 328.769 253.932 328.445C253.856 326.583 253.515 325.263 252.909 324.484C252.844 324.452 252.763 324.463 252.666 324.517C252.287 324.733 251.854 325.328 251.367 326.302C250.88 327.276 250.637 328.19 250.637 329.045C250.637 329.662 250.767 330.095 251.027 330.344C251.286 330.582 251.768 330.803 252.471 331.009L253.072 331.171C253.526 331.301 253.905 331.447 254.208 331.61C254.511 331.772 254.808 332.015 255.101 332.34C255.393 332.665 255.609 333.108 255.75 333.671C255.89 334.223 255.961 334.899 255.961 335.7C255.961 336.868 255.717 338.053 255.23 339.254C254.743 340.455 254.11 341.516 253.331 342.436C252.563 343.344 251.676 344.091 250.669 344.675C249.663 345.249 248.668 345.536 247.683 345.536C246.871 345.536 246.157 345.4 245.541 345.13C244.924 344.859 244.442 344.524 244.096 344.124C243.75 343.723 243.468 343.236 243.252 342.663C243.036 342.089 242.895 341.554 242.83 341.056C242.765 340.547 242.733 340.012 242.733 339.449C242.733 339.092 242.798 338.767 242.927 338.475C243.068 338.183 243.268 337.988 243.528 337.891L246.092 336.982C246.493 336.852 246.807 336.836 247.034 336.933C247.272 337.031 247.391 337.215 247.391 337.485C247.326 340.136 247.488 341.689 247.878 342.143C248.094 342.143 248.284 342.111 248.446 342.046C249.03 341.754 249.577 341.159 250.085 340.261C250.594 339.362 250.848 338.34 250.848 337.193C250.848 336.879 250.843 336.636 250.832 336.463C250.821 336.279 250.783 336.078 250.718 335.862C250.653 335.635 250.556 335.456 250.426 335.326C250.296 335.186 250.112 335.051 249.874 334.921C249.647 334.791 249.36 334.683 249.014 334.596L248.478 334.466C248.143 334.38 247.813 334.261 247.488 334.109C247.174 333.947 246.85 333.73 246.514 333.46C246.19 333.179 245.925 332.811 245.719 332.356C245.524 331.902 245.427 331.388 245.427 330.814C245.427 329.743 245.654 328.607 246.109 327.406C246.563 326.194 247.158 325.085 247.894 324.078C248.641 323.072 249.533 322.239 250.572 321.579C251.611 320.908 252.666 320.573 253.737 320.573ZM278.132 345H270.763H268.799H267.923C267.652 345 267.457 344.903 267.338 344.708C267.219 344.502 267.192 344.259 267.257 343.977L272.127 324.89H270.925C270.59 324.89 270.374 324.798 270.276 324.614C270.179 324.43 270.184 324.122 270.292 323.689L270.828 321.595C270.893 321.303 270.963 321.119 271.039 321.043C271.115 320.968 271.266 320.93 271.494 320.93H273.944H276.769H283.813C284.484 320.93 284.738 321.287 284.576 322.001L284.154 323.965C284.11 324.214 283.97 324.43 283.732 324.614C283.504 324.798 283.266 324.89 283.017 324.89H276.687L275.389 329.97H281.053C281.681 329.97 281.914 330.327 281.751 331.041L281.329 333.005C281.286 333.254 281.156 333.471 280.94 333.655C280.723 333.839 280.496 333.931 280.258 333.931H274.383L272.581 341.04H278.927C279.555 341.04 279.787 341.397 279.625 342.111L279.203 344.075C279.16 344.324 279.03 344.54 278.814 344.724C278.597 344.908 278.37 345 278.132 345ZM314.905 332.502C314.451 334.255 314.148 335.792 313.996 337.112C313.856 338.432 313.872 339.449 314.045 340.163C314.229 340.867 314.559 341.218 315.035 341.218C315.403 341.218 315.739 341.099 316.042 340.861C316.345 340.612 316.685 340.174 317.064 339.546C317.757 338.335 318.444 336.376 319.125 333.671C319.45 332.351 319.699 331.177 319.872 330.149C320.045 329.121 320.148 328.223 320.18 327.454C320.213 326.686 320.143 326.102 319.969 325.702C319.807 325.29 319.547 325.085 319.19 325.085C318.736 325.085 318.352 325.182 318.038 325.377C317.735 325.561 317.41 325.94 317.064 326.513C316.361 327.66 315.641 329.656 314.905 332.502ZM310.182 331.431C310.712 329.375 311.405 327.552 312.26 325.961C313.125 324.36 314.159 323.078 315.36 322.115C316.572 321.151 317.849 320.67 319.19 320.67C319.71 320.67 320.278 320.746 320.895 320.897C321.511 321.038 322.042 321.238 322.485 321.498C323.286 321.974 323.854 322.693 324.189 323.656C324.536 324.609 324.709 325.864 324.709 327.422C324.709 329.424 324.336 331.902 323.589 334.856C323.221 336.295 322.777 337.615 322.258 338.816C321.749 340.017 321.143 341.105 320.44 342.078C319.748 343.041 318.941 343.799 318.022 344.351C317.102 344.892 316.117 345.162 315.068 345.162C313.78 345.162 312.741 344.94 311.951 344.497C310.988 343.956 310.301 343.123 309.89 341.997C309.49 340.872 309.29 339.433 309.29 337.68C309.29 335.819 309.587 333.736 310.182 331.431ZM346.469 335.586H340.561L338.354 344.27C338.224 344.757 337.888 345 337.347 345H334.523C334.253 345 334.058 344.903 333.939 344.708C333.82 344.502 333.793 344.259 333.858 343.977L338.727 324.89H337.558C337.223 324.89 337.006 324.798 336.909 324.614C336.812 324.43 336.817 324.122 336.925 323.689L337.461 321.595C337.526 321.303 337.596 321.119 337.672 321.043C337.748 320.968 337.899 320.93 338.126 320.93H340.545H343.369H350.446C351.116 320.93 351.371 321.287 351.208 322.001L350.786 323.965C350.743 324.214 350.602 324.43 350.364 324.614C350.137 324.798 349.899 324.89 349.65 324.89H343.288L341.567 331.642H347.264C347.881 331.642 348.114 331.994 347.962 332.697L347.524 334.661C347.481 334.91 347.351 335.126 347.134 335.31C346.929 335.494 346.707 335.586 346.469 335.586ZM155.53 361.853L156.748 361.772C158.046 361.696 158.944 361.096 159.442 359.97C159.637 359.527 159.815 358.856 159.978 357.958C160.151 357.06 160.237 356.378 160.237 355.913C160.237 355.588 160.134 355.339 159.929 355.166C159.723 354.982 159.496 354.89 159.247 354.89H158.825C158.652 354.879 158.414 354.874 158.111 354.874C157.808 354.863 157.543 354.858 157.316 354.858L155.53 361.853ZM152.755 354.825H151.635C151.364 354.825 151.164 354.733 151.034 354.549C150.905 354.365 150.872 354.149 150.937 353.9L151.538 351.595C151.581 351.4 151.684 351.243 151.846 351.124C152.008 350.995 152.16 350.93 152.3 350.93H154.556H157.381H159.377C160.881 350.93 162.098 351.287 163.029 352.001C163.96 352.715 164.425 353.797 164.425 355.247C164.425 356.632 164.138 358.115 163.565 359.694C163.002 361.274 162.401 362.367 161.763 362.973C161.751 362.985 161.738 362.996 161.723 363.008C161.711 363.018 161.697 363.028 161.682 363.038C161.66 363.06 161.633 363.092 161.601 363.135C161.308 363.417 161.033 363.655 160.773 363.849C160.513 364.033 160.124 364.255 159.604 364.515C159.085 364.764 158.403 364.959 157.559 365.099C156.726 365.229 155.752 365.299 154.638 365.31L152.365 374.27C152.235 374.757 151.9 375 151.359 375H148.535C148.264 375 148.07 374.903 147.95 374.708C147.831 374.502 147.804 374.259 147.869 373.977L152.755 354.825ZM181.107 361.95L182.357 361.772C182.963 361.696 183.482 361.528 183.915 361.269C184.348 361.009 184.727 360.576 185.051 359.97C185.224 359.44 185.398 358.72 185.571 357.812C185.755 356.903 185.847 356.183 185.847 355.653C185.847 355.447 185.738 355.269 185.522 355.117C185.316 354.966 185.095 354.89 184.857 354.89H184.435C184.261 354.879 184.023 354.874 183.72 354.874C183.417 354.863 183.152 354.858 182.925 354.858L181.107 361.95ZM178.364 354.825H177.244C176.974 354.825 176.774 354.733 176.644 354.549C176.514 354.365 176.481 354.149 176.546 353.9L177.147 351.595C177.19 351.4 177.293 351.243 177.455 351.124C177.618 350.995 177.769 350.93 177.91 350.93H180.166H182.99H184.986C186.49 350.93 187.708 351.287 188.638 352.001C189.569 352.715 190.034 353.797 190.034 355.247C190.034 356.643 189.753 358.136 189.19 359.727C188.628 361.307 188.022 362.389 187.372 362.973C186.626 363.72 185.912 364.261 185.23 364.596L186.577 373.604C186.707 374.535 186.409 375 185.684 375H183.055C182.752 375 182.492 374.849 182.276 374.546C182.07 374.243 181.935 373.842 181.87 373.344L180.864 365.31H180.263L177.975 374.27C177.845 374.757 177.509 375 176.968 375H174.144C173.874 375 173.679 374.903 173.56 374.708C173.441 374.502 173.414 374.259 173.479 373.977L178.364 354.825ZM205.034 368.524L202.161 374.367C201.934 374.843 201.512 375.065 200.895 375.032L198.314 374.935C197.914 374.924 197.649 374.794 197.519 374.546C197.389 374.297 197.411 374.015 197.584 373.702L208.686 352.326C208.913 351.893 209.189 351.563 209.514 351.335C209.838 351.108 210.168 350.995 210.504 350.995L214.334 350.962C214.745 350.962 215.07 351.097 215.308 351.368C215.557 351.638 215.665 352.039 215.633 352.569L214.399 374.27C214.367 374.757 214.037 375 213.409 375H210.715C210.174 375 209.919 374.702 209.952 374.107L210.309 368.524H205.034ZM206.965 364.564H210.585L211.153 356.026L206.965 364.564ZM233.911 363.395H241.052C241.409 363.395 241.507 363.638 241.344 364.125L240.809 365.992C240.668 366.457 240.527 366.738 240.387 366.836C240.365 366.922 240.322 367.063 240.257 367.258C239.478 369.693 238.417 371.624 237.076 373.052C235.745 374.481 234.197 375.195 232.434 375.195C231.2 375.195 230.161 374.951 229.317 374.464C228.365 373.891 227.683 373.041 227.272 371.916C226.861 370.78 226.656 369.357 226.656 367.647C226.656 365.916 226.964 363.844 227.581 361.431C228.089 359.375 228.771 357.546 229.626 355.945C230.491 354.344 231.525 353.067 232.726 352.115C233.938 351.151 235.215 350.67 236.556 350.67C237.855 350.67 238.953 350.957 239.851 351.53C240.652 352.028 241.225 352.758 241.572 353.721C241.929 354.684 242.107 355.929 242.107 357.454C242.107 357.995 241.885 358.347 241.442 358.509L237.692 359.646C237.476 359.711 237.319 359.7 237.222 359.613C237.135 359.516 237.103 359.348 237.124 359.11C237.124 358.991 237.13 358.812 237.141 358.574C237.216 356.67 237.011 355.653 236.524 355.523C235.777 355.307 235.052 355.794 234.349 356.984C233.646 358.163 232.964 360.003 232.304 362.502C231.73 364.645 231.454 366.522 231.476 368.134C231.498 369.736 231.806 370.607 232.401 370.748C232.931 370.888 233.51 370.618 234.138 369.936C234.766 369.254 235.279 368.248 235.68 366.917H233.213C232.78 366.917 232.645 366.609 232.807 365.992L233.408 363.801C233.451 363.638 233.505 363.53 233.57 363.476C233.646 363.422 233.759 363.395 233.911 363.395ZM258.901 375.227C256.791 375.227 255.287 374.762 254.389 373.831C253.523 372.955 253.031 371.77 252.912 370.277C252.803 368.773 253.031 367.004 253.593 364.969L257.018 351.66C257.148 351.173 257.478 350.93 258.008 350.93H260.962C261.233 350.93 261.427 351.032 261.546 351.238C261.665 351.444 261.692 351.687 261.628 351.968L258.268 365.326C257.705 367.436 257.483 369.011 257.602 370.05C257.732 371.088 258.268 371.608 259.209 371.608C259.729 371.608 260.188 371.435 260.589 371.088C260.989 370.731 261.395 370.082 261.806 369.141C262.217 368.199 262.634 366.895 263.056 365.229L266.513 351.66C266.643 351.173 266.978 350.93 267.519 350.93H270.214C270.484 350.93 270.679 351.032 270.798 351.238C270.917 351.444 270.944 351.687 270.879 351.968L267.617 364.856C267.303 366.089 266.989 367.171 266.675 368.102C266.372 369.022 265.972 369.952 265.474 370.894C264.987 371.835 264.452 372.609 263.867 373.215C263.283 373.81 262.564 374.297 261.709 374.675C260.865 375.043 259.929 375.227 258.901 375.227ZM290.374 375H283.005H281.041H280.165C279.894 375 279.7 374.903 279.581 374.708C279.462 374.502 279.435 374.259 279.499 373.977L284.369 354.89H283.168C282.832 354.89 282.616 354.798 282.518 354.614C282.421 354.43 282.426 354.122 282.535 353.689L283.07 351.595C283.135 351.303 283.206 351.119 283.281 351.043C283.357 350.968 283.508 350.93 283.736 350.93H286.187H289.011H296.055C296.726 350.93 296.98 351.287 296.818 352.001L296.396 353.965C296.352 354.214 296.212 354.43 295.974 354.614C295.747 354.798 295.508 354.89 295.26 354.89H288.93L287.631 359.97H293.296C293.923 359.97 294.156 360.327 293.994 361.041L293.572 363.005C293.528 363.254 293.398 363.471 293.182 363.655C292.966 363.839 292.738 363.931 292.5 363.931H286.625L284.823 371.04H291.169C291.797 371.04 292.03 371.397 291.867 372.111L291.445 374.075C291.402 374.324 291.272 374.54 291.056 374.724C290.839 374.908 290.612 375 290.374 375Z" fill="white"/>
<path d="M40.5 176.219C50.8333 175.198 58.6458 174.688 63.9375 174.688C69.2292 174.688 73.4167 175.073 76.5 175.844C79.6042 176.615 82.1562 177.812 84.1562 179.438C88.0312 182.604 89.9688 187.802 89.9688 195.031C89.9688 198.281 89.3542 201.26 88.125 203.969C86.8958 206.677 85.2188 209 83.0938 210.938C80.9688 212.875 78.4792 214.385 75.625 215.469C72.7708 216.552 69.7188 217.094 66.4688 217.094L60.9062 216.969V226H40.5V176.219ZM68.6562 187.656C66.8646 187.656 64.2396 188.896 60.7812 191.375V203.156L64.4375 201.375C66.8542 200.188 68.5417 199.052 69.5 197.969C71.2917 195.948 72.1875 193.938 72.1875 191.938C72.1875 189.938 71.5104 188.615 70.1562 187.969C69.7188 187.76 69.2188 187.656 68.6562 187.656ZM146.875 191.875C146.875 188.938 145.781 187.469 143.594 187.469C142.656 187.469 141.354 187.812 139.688 188.5L135.531 190.219V202.438C143.094 199.625 146.875 196.104 146.875 191.875ZM165.438 192.406C165.438 199.073 162.146 204.365 155.562 208.281L169.125 226H144.438L135.656 211.531V226H115.25V176.094C128.458 175.156 137.115 174.688 141.219 174.688C145.323 174.688 148.448 174.938 150.594 175.438C156.51 176.792 160.74 179.688 163.281 184.125C164.698 186.667 165.417 189.427 165.438 192.406ZM192.375 226L217.188 178.625C218.042 176.938 219.615 175.812 221.906 175.25C222.573 175.083 223.396 175 224.375 175C225.354 175 226.417 175.281 227.562 175.844C228.729 176.385 229.646 177.25 230.312 178.438L256.938 226H231.594L229.625 221.062H216.125L214.438 226H192.375ZM217.656 211.156H227.75L222.969 197.656L217.656 211.156ZM311.5 176.094H330.969V226H311.5V207.562L301.125 208.469V226H281.688V176.094H301.125V194.125L311.5 193.281V176.094ZM355.875 226L380.688 178.625C381.542 176.938 383.115 175.812 385.406 175.25C386.073 175.083 386.896 175 387.875 175C388.854 175 389.917 175.281 391.062 175.844C392.229 176.385 393.146 177.25 393.812 178.438L420.438 226H395.094L393.125 221.062H379.625L377.938 226H355.875ZM381.156 211.156H391.25L386.469 197.656L381.156 211.156Z" fill="#766458"/>
</svg>
