<svg width="693" height="717" viewBox="0 0 693 717" fill="none" xmlns="http://www.w3.org/2000/svg">
<g style="mix-blend-mode:hard-light">
<g filter="url(#filter0_d_1957_4)">
<path d="M9 349.077H55.8011C67.873 349.077 77.4373 352.023 84.4948 357.916C91.5522 363.808 95.0807 372.375 95.0807 383.618C95.0807 394.86 91.5522 403.429 84.4948 409.321C77.4373 415.213 67.873 418.16 55.8011 418.16H42.0115V444.135H9V349.077ZM49.1152 394.089C57.5655 394.089 61.7906 390.597 61.7906 383.618C61.7906 376.638 57.5655 373.147 49.1152 373.147H42.0115V394.089H49.1152ZM144.209 349.077H191.01C203.08 349.077 212.647 352.023 219.704 357.916C226.76 363.808 230.289 372.375 230.289 383.618C230.289 390.69 228.851 396.717 225.971 401.706C223.092 406.601 219.008 410.452 213.715 413.265L229.038 444.135H195.745L182.931 418.16H176.663V444.135H144.209V349.077ZM184.045 394.089C192.496 394.089 196.72 390.597 196.72 383.618C196.72 376.638 192.496 373.147 184.045 373.147H176.663V394.089H184.045ZM310.734 349.077H341.936L380.937 444.135H347.092L340.824 427.543H311.849L305.583 444.135H271.733L310.734 349.077ZM333.577 403.882L326.335 381.986L319.092 403.882H333.577ZM431.491 349.077H464.504V380.899H491.247V349.077H524.261V444.135H491.247V410.816H464.504V444.135H431.491V349.077ZM613.799 349.077H645.001L684 444.135H650.151L643.884 427.543H614.915L608.647 444.135H574.796L613.799 349.077ZM636.641 403.882L629.4 381.986L622.157 403.882H636.641Z" fill="#FF0000" fill-opacity="0.78" shape-rendering="crispEdges"/>
</g>
<g filter="url(#filter1_d_1957_4)">
<path d="M200 155.574H206.735L211.548 168.099L216.392 155.574H223.097L214.596 176.369H208.531L200 155.574ZM238.856 149H244.126L245.894 151.112L247.662 149H252.902L248.393 154.117H243.365L238.856 149ZM245.773 176.814C243.415 176.814 241.353 176.378 239.587 175.506C237.819 174.633 236.458 173.384 235.504 171.757C234.549 170.131 234.071 168.208 234.071 165.986C234.071 163.765 234.549 161.841 235.504 160.215C236.458 158.569 237.819 157.31 239.587 156.437C241.353 155.564 243.415 155.128 245.773 155.128C247.295 155.128 248.657 155.267 249.856 155.545C251.052 155.822 252.171 156.269 253.206 156.883V162.565C252.312 161.891 251.307 161.405 250.191 161.108C249.072 160.81 247.783 160.661 246.32 160.661C244.41 160.661 242.959 161.108 241.963 162C240.988 162.892 240.501 164.221 240.501 165.986C240.501 167.752 241.008 169.09 242.025 170.002C243.039 170.895 244.47 171.341 246.32 171.341C247.762 171.341 249.052 171.182 250.191 170.865C251.348 170.548 252.435 170.042 253.451 169.348V175C251.479 176.21 248.919 176.814 245.773 176.814ZM255.27 155.574H270.718V160.751H261.577V163.607H268.159V168.336H261.577V171.192H270.718V176.369H255.27V155.574ZM279.087 176.814C277.725 176.814 276.355 176.675 274.974 176.399C273.593 176.141 272.475 175.793 271.621 175.357V169.913C272.741 170.508 273.906 170.954 275.125 171.252C276.366 171.549 277.524 171.698 278.599 171.698C280.163 171.698 280.946 171.292 280.946 170.478C280.946 170.141 280.823 169.854 280.579 169.616C280.358 169.358 280.012 169.12 279.543 168.902C279.078 168.664 278.335 168.326 277.319 167.89C275.35 167.057 273.917 166.145 273.022 165.154C272.151 164.162 271.712 162.932 271.712 161.465C271.712 160.235 272.058 159.144 272.748 158.192C273.461 157.221 274.446 156.467 275.704 155.931C276.964 155.396 278.415 155.128 280.062 155.128C281.402 155.128 282.591 155.237 283.626 155.456C284.662 155.654 285.668 155.981 286.643 156.437V161.703C284.875 160.751 283.068 160.275 281.218 160.275C280.408 160.275 279.757 160.394 279.269 160.632C278.782 160.85 278.538 161.177 278.538 161.613C278.538 162.05 278.752 162.407 279.178 162.684C279.625 162.942 280.457 163.309 281.676 163.785L282.347 164.053C283.79 164.628 284.897 165.203 285.668 165.778C286.46 166.333 287.03 166.988 287.374 167.742C287.72 168.475 287.893 169.407 287.893 170.538C287.893 172.501 287.16 174.038 285.699 175.149C284.236 176.26 282.033 176.814 279.087 176.814ZM289.726 155.574H296.034V163.636L302.585 155.574H310.02L301.824 165.659L310.599 176.369H303.164L296.034 167.682V176.369H289.726V155.574ZM319.287 149.089H325.411L322.577 154.444H317.184L319.287 149.089ZM312.431 155.574H327.879V160.751H318.738V163.607H325.32V168.336H318.738V171.192H327.879V176.369H312.431V155.574ZM339.151 155.574H349.053C351.612 155.574 353.635 156.209 355.116 157.478C356.6 158.728 357.342 160.542 357.342 162.922C357.342 164.469 357.005 165.788 356.335 166.879C355.686 167.97 354.75 168.802 353.531 169.378L357.097 176.369H350.637L347.529 170.27H345.458V176.369H339.151V155.574ZM347.803 165.391C348.778 165.391 349.532 165.213 350.058 164.856C350.607 164.479 350.881 163.835 350.881 162.922C350.881 162.01 350.607 161.375 350.058 161.018C349.532 160.642 348.778 160.453 347.803 160.453H345.458V165.391H347.803ZM359.177 155.574H374.625V160.751H365.484V163.607H372.066V168.336H365.484V171.192H374.625V176.369H359.177V155.574ZM376.138 155.574H385.949C388.51 155.574 390.54 156.219 392.044 157.508C393.568 158.777 394.329 160.602 394.329 162.982C394.329 165.362 393.568 167.196 392.044 168.485C390.54 169.774 388.51 170.419 385.949 170.419H382.445V176.369H376.138V155.574ZM384.762 165.54C385.737 165.54 386.498 165.352 387.047 164.975C387.596 164.598 387.868 163.934 387.868 162.982C387.868 162.05 387.596 161.395 387.047 161.018C386.498 160.642 385.737 160.453 384.762 160.453H382.445V165.54H384.762ZM405.676 176.814C403.441 176.814 401.582 176.408 400.101 175.595C398.618 174.782 397.51 173.662 396.779 172.233C396.068 170.806 395.713 169.169 395.713 167.325V155.574H402.02V167.266C402.02 168.535 402.325 169.497 402.935 170.151C403.564 170.806 404.478 171.133 405.676 171.133C406.875 171.133 407.779 170.806 408.388 170.151C409.017 169.497 409.333 168.535 409.333 167.266V155.574H415.64V167.325C415.64 169.169 415.274 170.806 414.544 172.233C413.831 173.662 412.735 174.782 411.252 175.595C409.771 176.408 407.912 176.814 405.676 176.814ZM417.914 155.574H429.036C431.107 155.574 432.764 156.08 434.001 157.092C435.263 158.083 435.892 159.511 435.892 161.375C435.892 162.208 435.698 162.992 435.313 163.725C434.948 164.459 434.409 165.054 433.698 165.51C434.693 165.947 435.414 166.522 435.86 167.236C436.329 167.95 436.562 168.882 436.562 170.032C436.562 171.321 436.247 172.452 435.618 173.423C434.989 174.375 434.135 175.109 433.057 175.625C432.002 176.121 430.822 176.369 429.523 176.369H417.914V155.574ZM427.389 163.636C428.081 163.636 428.598 163.488 428.943 163.19C429.311 162.892 429.492 162.417 429.492 161.762C429.492 161.088 429.321 160.622 428.974 160.364C428.628 160.086 428.092 159.947 427.359 159.947H424.221V163.636H427.389ZM427.757 171.996C428.589 171.996 429.198 171.847 429.583 171.549C429.97 171.252 430.162 170.736 430.162 170.002C430.162 169.288 429.961 168.763 429.553 168.426C429.168 168.089 428.548 167.92 427.694 167.92H424.221V171.996H427.757ZM438.385 155.574H444.692V171.192H453.284V176.369H438.385V155.574ZM454.512 155.574H460.819V176.369H454.512V155.574ZM474.353 176.814C471.995 176.814 469.935 176.378 468.167 175.506C466.399 174.633 465.039 173.384 464.084 171.757C463.129 170.131 462.653 168.208 462.653 165.986C462.653 163.765 463.129 161.841 464.084 160.215C465.039 158.569 466.399 157.31 468.167 156.437C469.935 155.564 471.995 155.128 474.353 155.128C475.877 155.128 477.236 155.267 478.436 155.545C479.635 155.822 480.751 156.269 481.786 156.883V162.565C480.892 161.891 479.887 161.405 478.771 161.108C477.653 160.81 476.363 160.661 474.9 160.661C472.991 160.661 471.539 161.108 470.544 162C469.57 162.892 469.081 164.221 469.081 165.986C469.081 167.752 469.589 169.09 470.605 170.002C471.621 170.895 473.054 171.341 474.9 171.341C476.344 171.341 477.632 171.182 478.771 170.865C479.929 170.548 481.015 170.042 482.03 169.348V175C480.061 176.21 477.502 176.814 474.353 176.814ZM483.852 155.574H499.3V160.751H490.159V163.607H496.74V168.336H490.159V171.192H499.3V176.369H483.852V155.574Z" fill="#FF0000" fill-opacity="0.64" shape-rendering="crispEdges"/>
</g>
<g style="mix-blend-mode:saturation" filter="url(#filter2_d_1957_4)">
<path d="M134 22.2347H157.087L173.593 65.1745L190.202 22.2347H213.187L184.04 93.5288H163.251L134 22.2347ZM234.428 0H255.426L245.711 18.3591H227.22L234.428 0ZM225.967 22.2347H247.592V93.5288H225.967V22.2347ZM278.475 39.9818H258.835V22.2347H319.739V39.9818H300.099V93.5288H278.475V39.9818ZM330.945 22.2347H383.911V39.9818H352.57V49.7732H375.135V65.9903H352.57V75.7819H383.911V93.5288H330.945V22.2347ZM404.922 95.0588C402.556 95.0588 400.013 94.7868 397.297 94.2429C394.65 93.7669 392.7 93.1889 391.447 92.5089V74.354C393.814 75.4418 396.669 75.9858 400.013 75.9858C402.868 75.9858 404.853 75.4078 405.969 74.2519C407.152 73.096 407.744 71.1581 407.744 68.4383V22.2347H429.368V70.8861C429.368 78.2297 427.28 84.1113 423.1 88.5311C418.991 92.8829 412.931 95.0588 404.922 95.0588ZM459.761 39.9818H440.122V22.2347H501.025V39.9818H481.386V93.5288H459.761V39.9818ZM512.232 22.2347H565.197V39.9818H533.856V49.7732H556.422V65.9903H533.856V75.7819H565.197V93.5288H512.232V22.2347Z" fill="#FF0000" fill-opacity="0.64" shape-rendering="crispEdges"/>
</g>
<path d="M12 161H74.9457V165.144H12V161Z" fill="#FF0000" fill-opacity="0.64"/>
<path d="M624 161H686.946V165.144H624V161Z" fill="#FF0000" fill-opacity="0.64"/>
<g filter="url(#filter3_d_1957_4)">
<path d="M66.5958 581.904H93.4699C97.5441 581.904 100.835 582.95 103.342 585.04C105.849 587.081 107.103 589.834 107.103 593.302C107.103 594.423 106.998 595.494 106.789 596.514C106.267 598.911 105.222 601.105 103.655 603.093C102.088 605.031 100.208 606.535 98.0142 607.606C101.932 609.137 103.891 611.992 103.891 616.175C103.891 617.142 103.76 618.315 103.499 619.692C102.454 624.69 100.156 628.566 96.604 631.319C93.1042 634.023 88.6383 635.374 83.2061 635.374H55L66.5958 581.904ZM86.4967 603.628C88.5861 603.628 90.336 603.118 91.7462 602.099C93.2088 601.078 94.1751 599.447 94.6452 597.203C94.8019 596.335 94.8803 595.596 94.8803 594.985C94.8803 593.404 94.3579 592.308 93.3132 591.695C92.3208 591.083 90.8321 590.777 88.8471 590.777H76.5463L73.8039 603.628H86.4967ZM82.1874 626.5C84.7469 626.5 86.7839 626.016 88.2988 625.048C89.8658 624.027 90.9366 622.268 91.5111 619.769C91.6678 618.903 91.7462 618.163 91.7462 617.55C91.7462 615.816 91.1716 614.567 90.0225 613.802C88.8733 612.986 87.1496 612.578 84.8514 612.578H71.8452L68.7896 626.5H82.1874ZM129.277 581.904H167.276L165.161 591.618H139.072L136.408 604.011H155.603L153.566 613.343H134.371L131.628 625.659H157.719L155.682 635.374H117.682L129.277 581.904ZM198.917 636.521C194.112 636.521 189.881 635.68 186.224 633.998C182.569 632.264 179.721 629.815 177.684 626.654C175.647 623.44 174.63 619.668 174.63 615.332C174.63 613.139 174.89 610.921 175.412 608.677C176.613 603.017 178.885 598.094 182.229 593.914C185.572 589.681 189.698 586.443 194.608 584.199C199.571 581.904 205.055 580.756 211.062 580.756C218.688 580.756 224.642 582.44 228.925 585.805L226.576 596.82C224.642 594.933 222.292 593.582 219.524 592.766C216.808 591.9 213.57 591.465 209.808 591.465C204.116 591.465 199.284 592.996 195.313 596.056C191.345 599.116 188.759 603.323 187.557 608.677C187.087 610.718 186.852 612.63 186.852 614.414C186.852 618.29 188.105 621.197 190.612 623.136C193.12 625.021 197.012 625.966 202.287 625.966C206.099 625.966 209.599 625.533 212.786 624.665C215.972 623.747 219.054 622.293 222.032 620.304L219.681 631.319C214.144 634.787 207.224 636.521 198.917 636.521ZM266.366 581.904H278.041L288.305 635.374H276.551L274.358 623.747H252.654L245.447 635.374H232.833L266.366 581.904ZM273.262 614.49L269.891 594.143L257.748 614.49H273.262ZM324.181 636.521C319.899 636.521 316.269 635.782 313.292 634.303C310.314 632.825 308.069 630.785 306.554 628.184C305.039 625.582 304.282 622.599 304.282 619.234C304.282 617.55 304.49 615.74 304.907 613.802L311.881 581.904H323.791L316.818 613.956C316.452 615.843 316.269 617.271 316.269 618.24C316.269 620.84 317.078 622.777 318.698 624.053C320.318 625.276 322.929 625.889 326.532 625.889C330.294 625.889 333.479 624.87 336.092 622.829C338.702 620.789 340.428 617.832 341.263 613.956L348.235 581.904H360.145L353.172 613.802C351.552 621.35 348.47 627.037 343.926 630.861C339.435 634.634 332.853 636.521 324.181 636.521ZM383.403 636.521C380.059 636.521 376.821 636.215 373.686 635.604C370.553 634.992 368.046 634.176 366.166 633.157L368.359 622.906C370.865 624.232 373.529 625.226 376.351 625.889C379.172 626.552 381.939 626.884 384.655 626.884C388.05 626.884 390.663 626.245 392.49 624.971C394.372 623.695 395.311 621.961 395.311 619.769C395.311 618.29 394.605 617.066 393.196 616.098C391.838 615.128 389.33 613.854 385.675 612.273C381.704 610.539 378.805 608.677 376.978 606.688C375.149 604.649 374.235 602.252 374.235 599.497C374.235 598.579 374.365 597.432 374.627 596.056C375.253 593.047 376.664 590.396 378.858 588.1C381.052 585.755 383.793 583.944 387.085 582.668C390.374 581.394 394.005 580.756 397.975 580.756C401.214 580.756 404.035 581.011 406.437 581.52C408.891 582.032 411.19 582.821 413.332 583.892L411.138 593.837C407.011 591.593 402.65 590.47 398.054 590.47C395.129 590.47 392.725 590.982 390.845 592.001C388.965 592.971 387.815 594.373 387.398 596.209C387.293 596.719 387.241 597.1 387.241 597.357C387.241 598.426 387.58 599.346 388.259 600.11C388.991 600.823 389.957 601.486 391.159 602.099C392.36 602.71 394.293 603.578 396.956 604.699C401.135 606.535 404.113 608.37 405.888 610.208C407.717 612.043 408.631 614.364 408.631 617.169C408.631 618.342 408.474 619.668 408.16 621.147C407.116 625.991 404.505 629.765 400.326 632.467C396.147 635.171 390.506 636.521 383.403 636.521ZM434.271 581.904H472.27L470.155 591.618H444.064L441.401 604.011H460.597L458.56 613.343H439.364L436.621 625.659H462.712L460.675 635.374H422.674L434.271 581.904ZM543.018 636.521C538.319 636.521 534.14 635.655 530.483 633.921C526.879 632.136 524.085 629.637 522.099 626.424C520.114 623.212 519.121 619.463 519.121 615.18C519.121 613.139 519.357 610.972 519.827 608.677C521.028 603.17 523.3 598.299 526.644 594.067C529.987 589.834 534.113 586.569 539.023 584.276C543.986 581.928 549.365 580.756 555.164 580.756C559.865 580.756 564.017 581.649 567.621 583.434C571.224 585.167 574.019 587.667 576.004 590.93C577.99 594.143 578.982 597.891 578.982 602.176C578.982 604.214 578.747 606.382 578.277 608.677C577.075 614.186 574.83 619.054 571.538 623.287C568.248 627.47 564.148 630.733 559.238 633.08C554.328 635.374 548.921 636.521 543.018 636.521ZM545.369 625.812C548.504 625.812 551.507 625.124 554.38 623.747C557.304 622.319 559.787 620.33 561.824 617.78C563.912 615.18 565.349 612.145 566.133 608.677C566.55 606.74 566.758 605.056 566.758 603.628C566.758 599.804 565.584 596.845 563.233 594.755C560.883 592.664 557.409 591.618 552.813 591.618C549.575 591.618 546.492 592.333 543.567 593.76C540.694 595.138 538.214 597.127 536.125 599.727C534.086 602.277 532.703 605.261 531.971 608.677C531.554 610.718 531.345 612.477 531.345 613.956C531.345 617.729 532.52 620.662 534.87 622.752C537.221 624.793 540.721 625.812 545.369 625.812ZM601.505 581.904H639.504L637.389 591.695H611.298L608.557 604.164H627.753L625.794 613.115H606.599L601.819 635.374H589.909L601.505 581.904ZM155.99 645.65H179.024C184.091 645.65 188.167 646.951 191.248 649.551C194.381 652.153 195.95 655.594 195.95 659.878C195.95 661.358 195.818 662.632 195.558 663.703C194.303 669.67 191.614 674.184 187.488 677.244C183.412 680.252 177.98 681.756 171.19 681.756H160.064L156.304 699.122H144.394L155.99 645.65ZM171.582 672.042C175.082 672.042 177.772 671.429 179.652 670.206C181.532 668.982 182.812 666.815 183.491 663.703C183.701 662.733 183.804 661.816 183.804 660.949C183.804 658.859 183.1 657.405 181.689 656.589C180.279 655.772 178.112 655.366 175.186 655.366H165.785L162.179 672.042H171.582ZM215.842 645.65H239.582C244.544 645.65 248.513 646.797 251.491 649.093C254.469 651.388 255.957 654.676 255.957 658.961C255.957 660.338 255.8 661.791 255.486 663.322C254.65 667.299 252.979 670.689 250.471 673.494C248.017 676.249 244.909 678.263 241.149 679.537L247.338 699.122H235.116L229.395 680.992H220.073L216.154 699.122H204.246L215.842 645.65ZM231.903 671.277C235.35 671.277 237.962 670.664 239.737 669.44C241.566 668.217 242.794 666.177 243.421 663.322C243.63 662.454 243.735 661.536 243.735 660.566C243.735 658.629 243.056 657.278 241.698 656.512C240.391 655.747 238.276 655.366 235.35 655.366H225.635L222.188 671.277H231.903ZM293.69 645.65H305.365L315.629 699.122H303.877L301.683 687.493H279.98L272.771 699.122H260.157L293.69 645.65ZM300.586 678.238L297.217 657.889L285.072 678.238H300.586ZM356.579 700.268C351.723 700.268 347.465 699.426 343.808 697.744C340.153 696.062 337.305 693.638 335.268 690.476C333.285 687.263 332.292 683.49 332.292 679.156C332.292 676.912 332.552 674.667 333.074 672.423C334.276 666.763 336.548 661.842 339.891 657.66C343.286 653.427 347.465 650.189 352.427 647.945C357.39 645.65 362.822 644.502 368.725 644.502C372.694 644.502 376.115 644.91 378.988 645.726C381.913 646.491 384.472 647.715 386.666 649.399L384.317 660.262C382.435 658.476 380.163 657.202 377.5 656.435C374.887 655.621 371.754 655.213 368.097 655.213C362.247 655.213 357.258 656.742 353.133 659.802C349.007 662.862 346.368 667.069 345.22 672.423C344.749 674.412 344.514 676.299 344.514 678.085C344.514 685.937 349.451 689.865 359.322 689.865C362.614 689.865 365.565 689.304 368.176 688.183L370.448 677.855H361.594L363.396 669.288H383.768L378.204 695.067C372.25 698.533 365.041 700.268 356.579 700.268ZM418.397 700.268C414.113 700.268 410.483 699.528 407.506 698.05C404.528 696.571 402.283 694.531 400.768 691.931C399.253 689.329 398.496 686.345 398.496 682.981C398.496 681.296 398.704 679.488 399.121 677.549L406.095 645.65H418.005L411.031 677.702C410.666 679.589 410.483 681.017 410.483 681.986C410.483 684.586 411.292 686.525 412.912 687.8C414.532 689.024 417.142 689.635 420.746 689.635C424.508 689.635 427.695 688.616 430.306 686.575C432.916 684.536 434.642 681.578 435.477 677.702L442.449 645.65H454.359L447.386 677.549C445.766 685.096 442.684 690.783 438.14 694.607C433.649 698.382 427.067 700.268 418.397 700.268ZM473.072 645.65H511.071L508.956 655.366H482.865L480.201 667.757H499.398L497.361 677.091H478.164L475.423 689.405H501.513L499.476 699.122H461.475L473.072 645.65Z" fill="#FF0000" fill-opacity="0.64" shape-rendering="crispEdges"/>
</g>
<g filter="url(#filter4_d_1957_4)">
<path d="M633.008 692.981C633.008 692.313 633.141 691.647 633.405 690.985C633.666 690.319 634.057 689.722 634.576 689.184C635.126 688.63 635.782 688.189 636.503 687.882C637.261 687.55 638.112 687.382 639.055 687.382C640.104 687.382 641.112 687.573 642.081 687.955C643.045 688.342 643.875 688.888 644.552 689.609C645.128 690.273 645.571 691.065 645.886 691.985C646.203 692.904 646.357 693.874 646.357 694.898C646.357 696.833 646.004 698.627 645.296 700.264C644.59 701.897 643.565 703.382 642.276 704.632C641.675 705.216 641.014 705.742 640.312 706.204C639.642 706.653 638.948 707.061 638.23 707.433C637.578 707.759 637.019 708.032 636.54 708.232C636.248 708.357 635.962 708.484 635.677 708.62L632.531 704.092C633.113 703.888 633.752 703.622 634.46 703.292C635.166 702.96 635.836 702.55 636.458 702.065C637.082 701.583 637.616 700.999 638.032 700.337C638.452 699.673 638.684 698.906 638.742 698.039C637.227 698.039 635.887 697.606 634.733 696.732C633.584 695.868 633.008 694.614 633.008 692.981Z" fill="#E02911"/>
</g>
<g filter="url(#filter5_d_1957_4)">
<path d="M651.652 692.981C651.652 692.315 651.785 691.647 652.041 690.985C652.304 690.319 652.697 689.722 653.22 689.184C653.749 688.649 654.386 688.21 655.144 687.882C655.905 687.552 656.75 687.382 657.697 687.382C658.746 687.382 659.754 687.573 660.719 687.955C661.69 688.342 662.513 688.888 663.192 689.609C663.774 690.273 664.217 691.065 664.53 691.985C664.841 692.906 664.999 693.876 664.999 694.898C665.02 696.74 664.66 698.564 663.94 700.264C663.23 701.897 662.204 703.38 660.914 704.632C660.311 705.216 659.653 705.742 658.947 706.204C658.279 706.656 657.584 707.067 656.865 707.433C656.212 707.763 655.653 708.032 655.176 708.232C654.884 708.357 654.598 708.486 654.314 708.62L651.173 704.092C651.747 703.89 652.384 703.622 653.094 703.292C653.802 702.96 654.47 702.55 655.098 702.065C655.724 701.579 656.25 701.003 656.666 700.337C657.088 699.673 657.325 698.907 657.374 698.039C655.926 698.064 654.514 697.602 653.369 696.732C652.228 695.868 651.652 694.614 651.652 692.983V692.981Z" fill="#E02911"/>
</g>
<g filter="url(#filter6_d_1957_4)">
<path d="M42.3477 570.773C42.3477 571.435 42.2149 572.101 41.9515 572.763C41.6877 573.434 41.289 574.049 40.7796 574.568C39.6011 575.741 37.9819 576.392 36.2985 576.369C35.2624 576.371 34.236 576.178 33.2762 575.797C32.338 575.432 31.4942 574.867 30.8062 574.146C30.2089 573.446 29.7557 572.639 29.4708 571.769C29.1543 570.83 28.9953 569.847 29.0001 568.857C29.0001 566.918 29.3544 565.126 30.0605 563.487C30.7674 561.854 31.7942 560.371 33.0827 559.12C33.6838 558.536 34.3425 558.009 35.0495 557.549C35.7177 557.099 36.4126 556.691 37.1303 556.322C37.7828 555.994 38.3467 555.723 38.8197 555.521C39.2928 555.322 39.5794 555.191 39.682 555.141L42.8232 559.663C42.17 559.9 41.5285 560.169 40.9007 560.465C40.1945 560.797 39.5259 561.203 38.8966 561.69C38.2675 562.174 37.7479 562.751 37.3283 563.415C36.9089 564.079 36.6759 564.848 36.6223 565.72C38.137 565.72 39.4746 566.153 40.6258 567.021C41.7722 567.887 42.3502 569.137 42.3502 570.773H42.3477Z" fill="#E02911"/>
</g>
<g filter="url(#filter7_d_1957_4)">
<path d="M60.9893 570.772C60.9779 572.188 60.4175 573.547 59.4211 574.571C58.8717 575.123 58.2182 575.564 57.4963 575.871C56.7365 576.203 55.8838 576.371 54.9423 576.371C53.9054 576.375 52.8779 576.18 51.9177 575.798C50.9795 575.432 50.1359 574.867 49.4476 574.146C48.8487 573.446 48.3953 572.639 48.1123 571.768C47.7942 570.83 47.6355 569.847 47.6418 568.857C47.6418 566.918 47.9912 565.126 48.7019 563.487C49.4079 561.854 50.4347 560.369 51.7242 559.119C52.2999 558.555 52.9523 558.034 53.6886 557.547C54.4204 557.064 55.1148 556.654 55.7695 556.318C56.422 555.992 56.9813 555.723 57.4566 555.523C57.9274 555.317 58.2186 555.189 58.3235 555.135L61.4624 559.659C60.8844 559.864 60.2459 560.133 59.5375 560.463C58.8314 560.797 58.1626 561.203 57.5406 561.686C56.917 562.169 56.3841 562.753 55.9652 563.413C55.5481 564.077 55.3128 564.846 55.2615 565.716C56.7762 565.716 58.1138 566.147 59.265 567.019C60.4137 567.887 60.9893 569.135 60.9893 570.772Z" fill="#E02911"/>
</g>
</g>
<defs>
<filter id="filter0_d_1957_4" x="0" y="347.077" width="693" height="113.059" filterUnits="userSpaceOnUse" color-interpolation-filters="sRGB">
<feFlood flood-opacity="0" result="BackgroundImageFix"/>
<feColorMatrix in="SourceAlpha" type="matrix" values="0 0 0 0 0 0 0 0 0 0 0 0 0 0 0 0 0 0 127 0" result="hardAlpha"/>
<feOffset dy="7"/>
<feGaussianBlur stdDeviation="4.5"/>
<feComposite in2="hardAlpha" operator="out"/>
<feColorMatrix type="matrix" values="0 0 0 0 0 0 0 0 0 0 0 0 0 0 0 0 0 0 0.25 0"/>
<feBlend mode="normal" in2="BackgroundImageFix" result="effect1_dropShadow_1957_4"/>
<feBlend mode="normal" in="SourceGraphic" in2="effect1_dropShadow_1957_4" result="shape"/>
</filter>
<filter id="filter1_d_1957_4" x="196" y="149" width="307.3" height="35.8145" filterUnits="userSpaceOnUse" color-interpolation-filters="sRGB">
<feFlood flood-opacity="0" result="BackgroundImageFix"/>
<feColorMatrix in="SourceAlpha" type="matrix" values="0 0 0 0 0 0 0 0 0 0 0 0 0 0 0 0 0 0 127 0" result="hardAlpha"/>
<feOffset dy="4"/>
<feGaussianBlur stdDeviation="2"/>
<feComposite in2="hardAlpha" operator="out"/>
<feColorMatrix type="matrix" values="0 0 0 0 0 0 0 0 0 0 0 0 0 0 0 0 0 0 0.25 0"/>
<feBlend mode="normal" in2="BackgroundImageFix" result="effect1_dropShadow_1957_4"/>
<feBlend mode="normal" in="SourceGraphic" in2="effect1_dropShadow_1957_4" result="shape"/>
</filter>
<filter id="filter2_d_1957_4" x="130" y="0" width="439.197" height="103.059" filterUnits="userSpaceOnUse" color-interpolation-filters="sRGB">
<feFlood flood-opacity="0" result="BackgroundImageFix"/>
<feColorMatrix in="SourceAlpha" type="matrix" values="0 0 0 0 0 0 0 0 0 0 0 0 0 0 0 0 0 0 127 0" result="hardAlpha"/>
<feOffset dy="4"/>
<feGaussianBlur stdDeviation="2"/>
<feComposite in2="hardAlpha" operator="out"/>
<feColorMatrix type="matrix" values="0 0 0 0 0 0 0 0 0 0 0 0 0 0 0 0 0 0 0.25 0"/>
<feBlend mode="normal" in2="BackgroundImageFix" result="effect1_dropShadow_1957_4"/>
<feBlend mode="normal" in="SourceGraphic" in2="effect1_dropShadow_1957_4" result="shape"/>
</filter>
<filter id="filter3_d_1957_4" x="51" y="580.756" width="592.504" height="127.512" filterUnits="userSpaceOnUse" color-interpolation-filters="sRGB">
<feFlood flood-opacity="0" result="BackgroundImageFix"/>
<feColorMatrix in="SourceAlpha" type="matrix" values="0 0 0 0 0 0 0 0 0 0 0 0 0 0 0 0 0 0 127 0" result="hardAlpha"/>
<feOffset dy="4"/>
<feGaussianBlur stdDeviation="2"/>
<feComposite in2="hardAlpha" operator="out"/>
<feColorMatrix type="matrix" values="0 0 0 0 0 0 0 0 0 0 0 0 0 0 0 0 0 0 0.25 0"/>
<feBlend mode="normal" in2="BackgroundImageFix" result="effect1_dropShadow_1957_4"/>
<feBlend mode="normal" in="SourceGraphic" in2="effect1_dropShadow_1957_4" result="shape"/>
</filter>
<filter id="filter4_d_1957_4" x="628.531" y="687.382" width="21.8262" height="29.2373" filterUnits="userSpaceOnUse" color-interpolation-filters="sRGB">
<feFlood flood-opacity="0" result="BackgroundImageFix"/>
<feColorMatrix in="SourceAlpha" type="matrix" values="0 0 0 0 0 0 0 0 0 0 0 0 0 0 0 0 0 0 127 0" result="hardAlpha"/>
<feOffset dy="4"/>
<feGaussianBlur stdDeviation="2"/>
<feComposite in2="hardAlpha" operator="out"/>
<feColorMatrix type="matrix" values="0 0 0 0 0 0 0 0 0 0 0 0 0 0 0 0 0 0 0.25 0"/>
<feBlend mode="normal" in2="BackgroundImageFix" result="effect1_dropShadow_1957_4"/>
<feBlend mode="normal" in="SourceGraphic" in2="effect1_dropShadow_1957_4" result="shape"/>
</filter>
<filter id="filter5_d_1957_4" x="647.173" y="687.382" width="21.8271" height="29.2373" filterUnits="userSpaceOnUse" color-interpolation-filters="sRGB">
<feFlood flood-opacity="0" result="BackgroundImageFix"/>
<feColorMatrix in="SourceAlpha" type="matrix" values="0 0 0 0 0 0 0 0 0 0 0 0 0 0 0 0 0 0 127 0" result="hardAlpha"/>
<feOffset dy="4"/>
<feGaussianBlur stdDeviation="2"/>
<feComposite in2="hardAlpha" operator="out"/>
<feColorMatrix type="matrix" values="0 0 0 0 0 0 0 0 0 0 0 0 0 0 0 0 0 0 0.25 0"/>
<feBlend mode="normal" in2="BackgroundImageFix" result="effect1_dropShadow_1957_4"/>
<feBlend mode="normal" in="SourceGraphic" in2="effect1_dropShadow_1957_4" result="shape"/>
</filter>
<filter id="filter6_d_1957_4" x="25" y="555.141" width="21.8232" height="29.2285" filterUnits="userSpaceOnUse" color-interpolation-filters="sRGB">
<feFlood flood-opacity="0" result="BackgroundImageFix"/>
<feColorMatrix in="SourceAlpha" type="matrix" values="0 0 0 0 0 0 0 0 0 0 0 0 0 0 0 0 0 0 127 0" result="hardAlpha"/>
<feOffset dy="4"/>
<feGaussianBlur stdDeviation="2"/>
<feComposite in2="hardAlpha" operator="out"/>
<feColorMatrix type="matrix" values="0 0 0 0 0 0 0 0 0 0 0 0 0 0 0 0 0 0 0.25 0"/>
<feBlend mode="normal" in2="BackgroundImageFix" result="effect1_dropShadow_1957_4"/>
<feBlend mode="normal" in="SourceGraphic" in2="effect1_dropShadow_1957_4" result="shape"/>
</filter>
<filter id="filter7_d_1957_4" x="43.6416" y="555.135" width="21.8208" height="29.2358" filterUnits="userSpaceOnUse" color-interpolation-filters="sRGB">
<feFlood flood-opacity="0" result="BackgroundImageFix"/>
<feColorMatrix in="SourceAlpha" type="matrix" values="0 0 0 0 0 0 0 0 0 0 0 0 0 0 0 0 0 0 127 0" result="hardAlpha"/>
<feOffset dy="4"/>
<feGaussianBlur stdDeviation="2"/>
<feComposite in2="hardAlpha" operator="out"/>
<feColorMatrix type="matrix" values="0 0 0 0 0 0 0 0 0 0 0 0 0 0 0 0 0 0 0.25 0"/>
<feBlend mode="normal" in2="BackgroundImageFix" result="effect1_dropShadow_1957_4"/>
<feBlend mode="normal" in="SourceGraphic" in2="effect1_dropShadow_1957_4" result="shape"/>
</filter>
</defs>
</svg>
