<svg style="display: none;" xmlns="http://www.w3.org/2000/svg" viewBox="0 0 17.5 14.66">
		<symbol id="social_fb" viewBox="0 0 8.67 18.94">
			<title>icon_facebook</title>
			<g  data-name="Слой 2"><g id="Layer_1" data-name="Layer 1"><path d="M6.28,3.36h2.4V0H5.79C2.66.18,1.54,2.39,1.95,6.11H0V9.63H2v9.31H5.8V9.63H8.65V6.11H5.79C5.77,5.07,5.75,3.71,6.28,3.36Z"/></g></g>
		</symbol>
	
		<symbol id="social_tw" viewBox="0 0 17.5 14.66">
			<title>icon_twitter</title>
			<g data-name="Слой 2"><g id="Layer_1" data-name="Layer 1"><g id="W6EeEF"><path d="M11.28.15A3.29,3.29,0,0,1,15,1.3c.69-.23,1.37-.47,2.07-.69a2.26,2.26,0,0,1-.88,1.73,1.64,1.64,0,0,0,1.34-.48,2.9,2.9,0,0,1-1.61,2c-.24,6.59-3.27,11-10.38,10.82H5c-.42,0-4.29-.45-5-1.84a6.57,6.57,0,0,0,4.84-1.15c-1-.29-2.76-.46-3.07-2.88A2.14,2.14,0,0,0,3,8.9C1.76,8.07.38,7.37.46,5.22a2,2,0,0,0,1.38.46C1.12,5.44-.19,2.4.92.84,2.79,2.65,4.77,4.36,8.29,4.53,8.51,2.29,9.46.79,11.28.15Z"/></g></g></g>
		</symbol>
	
		<symbol id="social_yt" viewBox="0 0 19.98 14.02">
			<title>icon_youtoobe</title>
			<g id="Слой_2" data-name="Слой 2"><g id="Layer_1" data-name="Layer 1"><path d="M17.14,0H2.83A2.84,2.84,0,0,0,0,2.83v8.35A2.84,2.84,0,0,0,2.83,14H17.14A2.84,2.84,0,0,0,20,11.18V2.83A2.84,2.84,0,0,0,17.14,0ZM7,10.39V3.62L13.8,7Z" fill="white"/></g></g>
		</symbol>
	
		<symbol id="footer__logo" viewBox="0 0 154.38 195.33">
			<defs><style>.footer__logo-1{stroke:#231f20;stroke-miterlimit:10;}</style></defs>
			<title>icon_academy</title><g id="Layer_1" data-name="Layer 1"><path class="footer__logo-1" d="M78,.59,77.19.5.5,8.54V149.11l76.69,45.63,76.69-45.63V8.54Zm65.86,142.82L77.19,183.07,10.53,143.41V85.79L76.91,125.3l.11,7.16-45.53-27.1-.07,7,45.71,27.47.11,7.35-45.7-27.19-.07,7,45.71,27.47,46.15-27.62v-7l-.06,0V97.1l20.57-12.28Zm-.05-66.06L125.56,88.09l-8.42,5L77,69.17l-.07,7,34.32,20.41-.3.18-.74.44L105.33,100,77,83.16l-.07,7,22.36,13.3L94,106.94l-.13.08L77,97.06l-.07,7L88,110.54l-11.29,6.78-66-39.26L76.82,38.31h0Zm.05-7-67-39.51h0L10.53,70.31V17.58l66.66-7,66.66,7Z"/></g>
		</symbol>
	
		<symbol id="form_mail" viewBox="0 0 16 12" width="16" height="12">
			<title>form_mail</title><path d="M8,10a2.32,2.32,0,0,1-1-.34L0,6v7a1,1,0,0,0,1,1H15a1,1,0,0,0,1-1V6L9,9.66A2.32,2.32,0,0,1,8,10Zm7-8H1A1,1,0,0,0,0,3v.76L8,8l8-4.21V3A1,1,0,0,0,15,2Z" transform="translate(0 -2)"/>
		</symbol>
	
		<symbol id="form_phone" viewBox="0 0 18 18" width="18" height="18"><defs><style>.form_phone-1{fill:#010101;}</style></defs><title>form_phone</title><g id="Page-1"><g id="Icons-Communication"><g id="phone"><path id="Shape" class="form_phone-1" d="M3.6,7.8a15.57,15.57,0,0,0,6.6,6.6l2.2-2.2a.8.8,0,0,1,1-.2,10.45,10.45,0,0,0,3.6.6,1,1,0,0,1,1,1V17a1,1,0,0,1-1,1A17,17,0,0,1,0,1,.94.94,0,0,1,1,0H4.5a.94.94,0,0,1,1,1,11.33,11.33,0,0,0,.6,3.6,1.23,1.23,0,0,1-.2,1L3.6,7.8Z"/></g></g></g>
		</symbol>
	
		<symbol id="form_tick" viewBox="0 0 23.05 16.25"><defs><style>.form_tick-1{fill:#231f20;}</style></defs><title>Ресурс 1</title><g id="Layer_2" data-name="Layer 2"><path class="form_tick-1" d="M22.8,1.3,21.75.25a.85.85,0,0,0-1.2,0L8.69,12.1,2.5,5.91a.85.85,0,0,0-1.2,0L.25,7a.85.85,0,0,0,0,1.2L8.09,16A.87.87,0,0,0,9.3,16L22.8,2.5A.85.85,0,0,0,22.8,1.3Z"/></g></symbol>
	
		<symbol id="foto_like" viewBox="0 0 22 20">
			<defs><style>.foto_like-1{fill: transparent}</style></defs>
			<title>foto_like</title>
			<g id="Layer_1" data-name="Layer 1"><g id="Page-1"><g id="Core"><g id="thumb-up"><g id="Shape">
				<path class="foto_like-1" d="M8,19a1,1,0,0,1-1-1V8a.81.81,0,0,1,.2-.6l.06,0,6-6,.29.27a1,1,0,0,1,.17.45v.19L12.46,8H20a.93.93,0,0,1,.9,1v2a1.84,1.84,0,0,1,0,.3l-3,7.11A1,1,0,0,1,17,19ZM1,19V9H3V19Z"/>
				<path d="M12.38,3.65l-.64,2.93L11.22,9H19.9v2.06L17,18H8V8H8l4.37-4.37M2,10v0M13.2,0,6.6,6.6A1.68,1.68,0,0,0,6,8V18a2,2,0,0,0,2,2h9a2,2,0,0,0,1.8-1.2l3-7.1a1.69,1.69,0,0,0,.1-.7V9A1.92,1.92,0,0,0,20,7H13.7l1-4.6V2.1A2.1,2.1,0,0,0,14.3,1L13.2,0ZM4,8H0V20H4V8ZM22,9V9Zm0,0h0Z"/></g></g></g></g></g>
		</symbol>
	
		<symbol id="video_fullscreen" xmlns="http://www.w3.org/2000/svg" viewBox="0 0 20 20" width="20" height="20">
			<title>video_fullscreen</title>
			<g id="Layer_1" data-name="Layer 1"><polygon class="video_fullscreen-1" points="0 0 0 3 0 6 3 6 3 3 6 3 6 0 3 0 0 0"/><polygon class="video_fullscreen-1" points="3 14 0 14 0 17 0 20 3 20 6 20 6 17 3 17 3 14"/><polygon class="video_fullscreen-1" points="17 0 14 0 14 3 17 3 17 6 20 6 20 3 20 0 17 0"/><polygon class="video_fullscreen-1" points="17 17 14 17 14 20 17 20 20 20 20 17 20 14 17 14 17 17"/></g>
		</symbol>
	
		<symbol id="video_play" viewBox="0 0 30 33.75" width="30" height="33">
			<title>video_play</title><g id="Layer_1" data-name="Layer 1"><polygon class="video_play-1" points="0 33.75 0 0 30 16.88 0 33.75"/></g>
		</symbol>
	
		<symbol id="video_replay" viewBox="0 0 16 20" width="16" height="20">
			<title>video_replay</title><g id="Layer_1" data-name="Layer 1"><path class="video_replay-1" d="M8,4V0L3,5l5,5V6a6,6,0,1,1-6,6H0A8,8,0,1,0,8,4Z"/></g>
		</symbol>
	
		<symbol id="video_rewind" viewBox="0 0 30 22.36" width="30" height="22">
			<title>video_rewind</title><g id="Layer_1" data-name="Layer 1"><polygon class="video_rewind-1" points="0 11.18 19.87 0 19.87 5.7 30 0 30 22.36 19.87 16.66 19.87 22.36 0 11.18"/></g>
		</symbol>
	
		<symbol id="video_forward" viewBox="0 0 30 22.36" width="30" height="22">
			<title>video_forward</title>
			<g id="Layer_1" data-name="Layer 1"><polygon class="video_forward-1" points="30 11.18 10.13 0 10.13 5.7 0 0 0 22.36 10.13 16.66 10.13 22.36 30 11.18"/></g>
		</symbol>
	
		<symbol id="video_subtitle" viewBox="0 0 32 20" width="32" height="20">
			<title>video_subtitle</title>
			<g id="Layer_1" data-name="Layer 1"><path class="video_subtitle-1" d="M29,0H3A3,3,0,0,0,0,3V17a3,3,0,0,0,3,3H29a3,3,0,0,0,3-3V3A3,3,0,0,0,29,0ZM14.4,15.85a8.58,8.58,0,0,1-1.68.16,6,6,0,0,1-2-.32,4.21,4.21,0,0,1-1.65-1A5.13,5.13,0,0,1,8,12.79,8.12,8.12,0,0,1,7.55,10,7.56,7.56,0,0,1,8,7.15,5.2,5.2,0,0,1,9.25,5.3a4.53,4.53,0,0,1,1.68-1A5.86,5.86,0,0,1,12.78,4a9,9,0,0,1,1.68.13,6.07,6.07,0,0,1,1.13.31l-.45,1.92a3.31,3.31,0,0,0-.9-.26A8.27,8.27,0,0,0,13,6a2.76,2.76,0,0,0-2.21,1,4.59,4.59,0,0,0-.84,3,6.27,6.27,0,0,0,.2,1.63,3.51,3.51,0,0,0,.6,1.26,2.78,2.78,0,0,0,1,.81,3.19,3.19,0,0,0,1.4.29,4.55,4.55,0,0,0,1.26-.15,3.71,3.71,0,0,0,.89-.38l.46,1.84A3.48,3.48,0,0,1,14.4,15.85Zm8.7,0a8.59,8.59,0,0,1-1.68.16,6,6,0,0,1-2-.32,4.21,4.21,0,0,1-1.65-1,5.13,5.13,0,0,1-1.13-1.87A8.12,8.12,0,0,1,16.25,10a7.56,7.56,0,0,1,.47-2.85A5.2,5.2,0,0,1,17.94,5.3a4.53,4.53,0,0,1,1.68-1A5.86,5.86,0,0,1,21.47,4a9,9,0,0,1,1.68.13,6,6,0,0,1,1.13.31l-.45,1.92a3.29,3.29,0,0,0-.9-.26A8.28,8.28,0,0,0,21.67,6a2.76,2.76,0,0,0-2.21,1,4.59,4.59,0,0,0-.84,3,6.28,6.28,0,0,0,.2,1.63,3.51,3.51,0,0,0,.6,1.26,2.77,2.77,0,0,0,1,.81,3.19,3.19,0,0,0,1.4.29,4.55,4.55,0,0,0,1.26-.15,3.71,3.71,0,0,0,.89-.38l.46,1.84A3.48,3.48,0,0,1,23.1,15.85Z"/></g>
		</symbol>

		<symbol id="intro" viewBox="0 0 459.76 350.15"><defs><style>.intro-1{fill:#766458;}.intro-2{fill:#81b3d3;}.intro-3{fill:#fff;}</style></defs><title>intro</title>
			<g id="intro__welcome"><path class="intro-2" d="M163.18,0h7.71l-1.21,44.92H155.16l-2-18.54-2,18.54H136.62L135.47,0h7.65l.64,37.15h.83L149.36,0h7.58l4.91,37.15h.76Z"/><path class="intro-2" d="M195,37.15v7.77H174.1V0H195V7.7H181.78V18.54h10.57v7.7H181.78V37.15Z"/><path class="intro-2" d="M216.37,37.15v7.77H198.09V0h7.65V37.15Z"/><path class="intro-2" d="M232.62,28.36l7.71-1.8v13.6a4.8,4.8,0,0,1-4.71,4.75H224.14a4.76,4.76,0,0,1-4.71-4.75V4.75A4.72,4.72,0,0,1,224.12,0h11.49a4.76,4.76,0,0,1,4.71,4.75v9.11l-7.71,1.8v-8h-5.54V37.15h5.54V28.36Z"/><path class="intro-2" d="M261.09,0a4.76,4.76,0,0,1,4.72,4.75V40.17a4.81,4.81,0,0,1-4.72,4.75H249.62a4.76,4.76,0,0,1-4.71-4.75V4.75A4.72,4.72,0,0,1,249.6,0h11.49Zm-3,7.7h-5.54V37.15h5.54Z"/><path class="intro-2" d="M290.84,0h7.58V44.92h-7.65V22.84l-3.06,11.42h-7.45l-3-11.42V44.92h-7.65V0h7.58L284,21.69Z"/><path class="intro-2" d="M323.13,37.15v7.77h-20.9V0h20.9V7.7H309.88V18.54h10.58v7.7H309.88V37.15Z"/></g>
			<g id="intro__gorgeous"><path class="intro-1" d="M165.42,70l-.2.23a6.45,6.45,0,0,1-4.52,2.22l2.82-4.86c1.81-3.14.14-6.1-2.68-6.1-2.3,0-4.09.92-5.81,3.92L153.56,68l-1.23,2.1-.15.18c-2.16,2.51-4.26,4.49-5.59,4.49-.66,0-1-.46-.35-1.64l6.42-11.2h2.45l.86-1.44H153.5l2.82-4.89h-3l-2.82,4.89h-2.7l-.86,1.44h2.73l-6,10.42c-1.27,2.22-.37,4.26,2,4.26,1.74,0,3.66-1.31,5.51-3.08,0,3.82,5.3,4.56,8.54.46h.66a9.08,9.08,0,0,0,6.16-3A2.57,2.57,0,0,0,165.42,70Zm-6.39.2h-.14A1.77,1.77,0,0,0,157.13,72v0a2,2,0,0,0,.29,1v.06c-1.41,2.42-4.84,2-3.05-1.15L156.61,68,158,65.51c2.1-3.57,5-2.16,3.17.95Z"/><path class="intro-1" d="M206.88,70l-.2.23c-2.16,2.51-4.92,4.49-7,4.49-1.84,0-2.94-1.15-1.55-3.57l.29-.52c1.93.81,5.56.43,7.8-3.46l.43-.75c1.61-2.76.06-4.84-2.39-4.84A6.33,6.33,0,0,0,198.61,65l-2.91,5-.17.2c-2.16,2.5-4.26,4.49-5.59,4.49-.66,0-1-.46-.35-1.64l4.32-7.57c1.29-2.27.06-3.92-1.61-3.92-1.3,0-2.68.72-4.18,2.27l4.78-8.32h-3L181.57,70l-.17.19c-2.16,2.51-4.26,4.49-5.59,4.49-.66,0-1-.46-.35-1.64l6.42-11.2h2.45l.86-1.44h-2.48l2.82-4.89h-3l-2.82,4.9H177l-.86,1.44h2.73l-6,10.42c-1.27,2.22-.37,4.26,2,4.26a6.7,6.7,0,0,0,3.82-1.63L178,76.27h3l4.55-7.92c4.61-5.79,6.65-5,5.35-2.82L187,72.3c-1.27,2.22-.37,4.26,2,4.26,1.78,0,3.76-1.37,5.65-3.22.14,1.86,1.65,3.22,4.05,3.22,3.4,0,6.77-2.65,9.24-5.53A2.55,2.55,0,0,0,206.88,70Zm-5.7-4.2c1.73-3,4.78-2.48,3,.63l-.43.75c-1.44,2.45-3.37,2.39-4.49,2Z"/><path class="intro-1" d="M316,70l-.2.23a18.8,18.8,0,0,1-3.6,3.25c1-2.85.75-7.23,2.59-11.06l-2.25-1.21c-1.24,1.7-3.94,5.62-6.65,8.78h0l-.2.23c-2.16,2.51-4.26,4.49-5.59,4.49-.66,0-1-.46-.34-1.64l6.39-11.2h-3l-5.33,9.3c-2.27,2.07-4,3.22-4.61,3s0-1.44.38-2.07l5.84-10.19h-3L291.8,70l-.2.23a6.45,6.45,0,0,1-4.52,2.22l2.82-4.87c1.81-3.14.15-6.1-2.68-6.1-2.3,0-4.09.92-5.82,3.92L279.94,68l-1.23,2.1-.15.18c-2.16,2.51-4.92,4.49-7,4.49-1.84,0-2.94-1.15-1.56-3.57l.29-.52c1.93.81,5.56.43,7.8-3.45l.43-.75c1.61-2.76.06-4.84-2.39-4.84A6.34,6.34,0,0,0,270.5,65l-2.9,5-.17.2c-2.48,2.85-4.61,4.69-7,5.7l6.71-11.46h-1.76a3.17,3.17,0,0,0-3.14-2.88,6.65,6.65,0,0,0-5.1,3.44l-2.87,5h0l-.2.23c-2.16,2.5-4.26,4.49-5.59,4.49-.66,0-1-.46-.35-1.64l3-5.24a3.06,3.06,0,0,0-.43-4.06l-1.67-2a1.17,1.17,0,0,1,0-1.65l.15-.13-1.55-1.7c-1.7,1.52-1.84,3.23-.78,4.61l.26.35c-1.32,1.87-3.11,4.4-5.07,6.71h0l-.2.23a6.46,6.46,0,0,1-4.52,2.22l2.82-4.87c1.81-3.14.14-6.1-2.68-6.1-2.3,0-4.09.92-5.81,3.92L230.19,68,229,70.06l-.15.17c-2.48,2.85-4.61,4.69-7,5.7l6.71-11.46H226.8a3.17,3.17,0,0,0-3.14-2.88A6.65,6.65,0,0,0,218.54,65l-4.2,7.26c-1.27,2.22-.37,4.26,2,4.26a5.71,5.71,0,0,0,2.85-1l-.8,1.48c-4,1.24-6.56,2.88-6.56,5.12,0,2.88,4.4,3.48,6.56-.2L220.66,78a18.24,18.24,0,0,0,7.18-4.48c0,3.83,5.29,4.58,8.54.48H237a9.08,9.08,0,0,0,6.18-3h0c1.44-1.67,2.56-3.17,5-6.42l.4.49a1.47,1.47,0,0,1,.17,1.7l-3.17,5.5c-1.27,2.22-.37,4.26,2,4.26,1.52,0,3.18-1,4.8-2.43a2.31,2.31,0,0,0,2.6,2.43,5.71,5.71,0,0,0,2.85-1L257,77c-4,1.24-6.56,2.88-6.56,5.12,0,2.88,4.4,3.48,6.56-.2L259.27,78a18.44,18.44,0,0,0,7.32-4.62c.13,1.88,1.65,3.24,4.06,3.24s4.86-1.37,7-3.2c-.12,3.92,5.27,4.72,8.54.58h.66a8.39,8.39,0,0,0,3.33-.86c-.81,2.08-.06,3.48,1.65,3.48s3.48-1.5,4.92-2.88a2.34,2.34,0,0,0,2.56,2.88c2.48,0,5.33-2.65,7.8-5.53h0c1.7-2,3.2-4.06,4.26-5.47-1.18,3.11-.55,8.69-3.4,8.69a1.67,1.67,0,0,1-1.41-1.09l-1.87,1a3.27,3.27,0,0,0,3.28,2.42,7.46,7.46,0,0,0,.83-.06h.09c3-.4,6.07-2.82,8.32-5.44A1.89,1.89,0,0,0,316,70Zm-43-4.2c1.73-3,4.78-2.48,3,.63l-.43.75c-1.44,2.45-3.37,2.39-4.49,2ZM215.89,81.4c-.63,1.12-1.64,1-1.64.14s.72-1.67,3-2.56Zm1.38-6.68c-.66,0-1-.46-.35-1.64l4.18-7.29c1.61-2.79,4.81-2.07,3.34.63l-2.27,4C220.35,73.31,218.54,74.72,217.27,74.72Zm18.4-4.52h-.15A1.77,1.77,0,0,0,233.76,72v0a2,2,0,0,0,.29,1v.06c-1.41,2.42-4.84,2-3.05-1.15L233.25,68l1.44-2.45c2.1-3.57,5-2.16,3.17.95ZM254.5,81.4c-.63,1.12-1.64,1-1.64.14s.72-1.67,3-2.56Zm1.38-6.68c-.66,0-1-.46-.35-1.64l4.18-7.29c1.61-2.79,4.81-2.07,3.34.63l-2.27,4c-1.78,2.89-3.64,4.3-4.91,4.3Zm29.54-4.52h-.15A1.77,1.77,0,0,0,283.51,72v0a2,2,0,0,0,.29,1v.06c-1.41,2.42-4.84,2-3-1.15L283,68l1.44-2.45c2.1-3.57,5-2.16,3.17.95Z"/><rect class="intro-1" x="101.42" y="66.82" width="28.92" height="1.96"/><rect class="intro-1" x="328.42" y="66.82" width="28.92" height="1.96"/></g>
			<g id="intro__sedona"><path class="intro-3" d="M44.47,157.61a20.46,20.46,0,0,0-12.9-5c-3.57,0-8.34,2.08-8.34,6.25,0,4.37,5.26,6.06,8.64,7.15l5,1.49c10.42,3.08,18.46,8.34,18.46,20.45,0,7.45-1.79,15.09-7.74,20.15s-13.7,7-21.24,7A46.18,46.18,0,0,1,0,206.64L8.34,191c4.87,4.27,10.62,7.74,17.27,7.74,4.57,0,9.43-2.28,9.43-7.54,0-5.46-7.64-7.34-11.81-8.54C11,179.15,3,176,3,161.48c0-15.19,10.82-25.11,25.81-25.11a51.19,51.19,0,0,1,23.43,6.15Z"/><path class="intro-3" d="M91.83,154.83v12.51h21.94v16.48H91.83v12.9H115V213.2H72.38V138.35H115v16.48Z"/><path class="intro-3" d="M129.42,138.35H157c20.84,0,38,16.38,38,37.42s-17.27,37.42-38,37.42H129.42Zm19.46,58.36h4.37c11.61,0,21.54-6.35,21.54-20.94,0-13.4-8.83-20.94-21.34-20.94h-4.56Z"/><path class="intro-3" d="M286.87,174.38c0,24.22-17.37,41.29-41.39,41.29s-41.39-17.07-41.39-41.29c0-22.63,19.85-38.51,41.39-38.51S286.87,151.75,286.87,174.38Zm-62.53.1c0,12.9,9.53,22.33,21.14,22.33s21.14-9.43,21.14-22.33c0-10.32-9.53-19.75-21.14-19.75s-21.14,9.43-21.14,19.75Z"/><path class="intro-3" d="M297.24,138.35h19.45l35.64,45.76h.2V138.35H372v74.84H352.52l-35.63-45.86h-.2v45.86H297.24Z"/><path class="intro-3" d="M407.34,200.19l-5.16,13H381.54l28.79-74.84h21.24l28.19,74.84H439l-4.86-13Zm13.6-38.71h-.2l-8,23.82h16.18Z"/></g>
			<g id="intro__canyon">
				<path class="intro-3" d="M108.08,287.74c7.66-2.59,8.24-12.18.69-12.18-2.08,0-4.56,1.46-6.27,4.45L92.29,297.66a14.72,14.72,0,0,1-1.46,2.15c-2.63-3.61-1.86-9,1.82-11.38l-1.53-1.93c-8,5.07-5.62,19.69,7.66,19.69C110.12,306.19,115.37,292.59,108.08,287.74Zm-9.37,15.53A10.93,10.93,0,0,1,93.24,302a19.74,19.74,0,0,0,1.9-2.7l6.38-11,1,.11c8.92,1.83,5.38,14.92-3.81,14.92ZM102.79,286l3.06-5.25c2.77-4.78,6.31-2,4.41,1.6C108.81,285.08,106.66,285.92,102.79,286Z"/>
				<path class="intro-3" d="M140.16,300c-.63,2.25.57,4.08,3.15,4.08,1.53,0,3.43-1,5.25-2.48.18,1.46,1.35,2.48,3.28,2.48s4.23-1.39,6.39-3.36c-.42,2,.54,3.36,2.41,3.36,2.08,0,4.41-1.9,6.24-3.65-.36,2,.84,3.65,3.25,3.65,3.14,0,6.75-3.35,9.88-7l-.1-.15c2.1-2.44,3.95-5,5.27-6.78-1.5,3.94-.69,11-4.3,11a2.12,2.12,0,0,1-1.79-1.39L176.71,301a4.14,4.14,0,0,0,4.16,3.06,5.45,5.45,0,0,0,1.06-.07H182c2.79-.37,5.55-2.06,7.94-4.23.06,2.5,2,4.33,5.14,4.33,4.3,0,8.57-3.35,11.71-7a3.29,3.29,0,0,0-1.42-1.31l-.26.29c-2.73,3.17-6.24,5.69-8.9,5.69-2.33,0-3.72-1.46-2-4.52l.36-.66c2.44,1,7,.55,9.88-4.38l.55-1c2-3.5.07-6.13-3-6.13a8,8,0,0,0-7.11,4.38l-3.68,6.32h-.1l-.26.29a23.7,23.7,0,0,1-4.56,4.12c1.2-3.61.95-9.15,3.28-14l-2.84-1.53c-1.57,2.15-5,7.11-8.42,11.12l.11.14-.14.15c-2.73,3.17-5.4,5.69-7.08,5.69-.84,0-1.31-.58-.44-2.08l8.1-14.19h-3.79l-6.75,11.78c-2.88,2.63-5.1,4.08-5.83,3.76-.95-.4,0-1.82.48-2.62l7.4-12.91h-3.79l-6,10.45-.29-.16-.25.29c-2.73,3.17-5.4,5.69-7.08,5.69-.84,0-1.31-.58-.44-2.08L158.69,289h-2.15a3.94,3.94,0,0,0-4-3.83c-2,0-4.89,1.61-6.49,4.38l-3.85,6.64a2.85,2.85,0,0,0-.58-.36l-.26.29c-2.73,3.17-6.24,5.69-8.9,5.69-2.33,0-3.72-1.46-2-4.52l3.9-6.78c2.19-3.76,6.05-3.14,3.79.8l-.55,1h3.1l.55-1c2-3.5.07-6.13-3-6.13a8,8,0,0,0-7.11,4.38L127.38,296a2.41,2.41,0,0,0-.35-.19l-.26.29c-2.73,3.17-6.24,5.69-8.9,5.69-2.33,0-3.72-1.46-2-4.52l.36-.66c2.44,1,7,.55,9.88-4.37l.55-1c2-3.5.07-6.13-3-6.13a8,8,0,0,0-7.11,4.38l-4,6.82c-2.37,4-.33,7.77,4.16,7.77,3.34,0,6.66-2,9.44-4.63-.1,2.65,1.87,4.63,5.14,4.63S137.51,302.34,140.16,300Zm58-9.56c2.19-3.76,6.05-3.14,3.79.8l-.55,1c-1.82,3.1-4.27,3-5.69,2.52ZM144,299.67l5.29-9.23c2-3.54,6.09-2.63,4.23.8l-3,5.18c-2.3,3.61-4.56,5.32-6.13,5.32C143.6,301.74,143.12,301.16,144,299.67Zm-24.18-9.23c2.19-3.76,6.05-3.14,3.79.8l-.55,1c-1.82,3.1-4.27,3-5.69,2.52Z"/>
				<path class="intro-3" d="M248.4,304.08c4.3,0,8.57-3.35,11.71-7a3.27,3.27,0,0,0-1.42-1.31l-.25.29c-2.74,3.17-6.24,5.69-8.9,5.69-2.33,0-3.72-1.46-2-4.52l.37-.66c2.44,1,7,.55,9.88-4.38l.55-1c2-3.5.07-6.13-3-6.13a8,8,0,0,0-7.11,4.38l-3.69,6.34-.11-.06-.26.29c-2.73,3.17-5.4,5.69-7.07,5.69-.84,0-1.31-.58-.44-2.08l5.47-9.59c1.64-2.88.07-5-2-5-1.64,0-3.39.91-5.29,2.88l6.05-10.54H237L226.35,296a2.43,2.43,0,0,0-.43-.25l-.26.29c-2.74,3.17-5.4,5.69-7.08,5.69-.84,0-1.31-.58-.44-2.08l8.13-14.19h3.1l1.09-1.82h-3.14l3.57-6.2H227.1l-3.57,6.2H220.1l-1.1,1.84h3.46l-7.62,13.2c-1.6,2.81-.47,5.4,2.59,5.4,1.88,0,3.94-1.22,6-3l-1.5,2.61h3.83l5.76-10c5.84-7.33,8.42-6.38,6.78-3.57l-4.92,8.57c-1.6,2.81-.47,5.4,2.59,5.4,2.3,0,4.86-1.81,7.3-4.22C243.36,302.3,245.29,304.08,248.4,304.08Zm3.06-13.64c2.19-3.76,6.06-3.14,3.79.8l-.55,1c-1.82,3.1-4.27,3-5.69,2.52Z"/>
				<path class="intro-3" d="M363.42,295.77l-.26.29c-2.73,3.17-5.4,5.69-7.07,5.69-.84,0-1.31-.58-.44-2.08l12.84-22.21H364.7l-5.58,9.63a4.11,4.11,0,0,0-3.47-2c-2,0-4.89,1.6-6.49,4.38l-3.71,6.41-.24-.13L345,296c-2.73,3.17-5.4,5.69-7.07,5.69-.84,0-1.31-.58-.44-2.08l5.47-9.59c1.64-2.88.07-5-2-5-1.64,0-3.35.88-5.25,2.85l1.42-2.48h-3.79L327.18,296a2.57,2.57,0,0,0-.36-.2l-.26.29c-2.73,3.17-5.4,5.69-7.07,5.69-.84,0-1.31-.58-.44-2.08L325.18,289H323a3.94,3.94,0,0,0-4-3.83c-2,0-4.89,1.6-6.49,4.38l-3.67,6.33-.21.23c-2.73,3.17-5.4,5.69-7.07,5.69-.84,0-1.31-.58-.44-2.08L305,293c1.31-2.3.69-3.65-.55-5.14l-2.12-2.55a1.48,1.48,0,0,1,.1-2.09l.12-.1-2-2.15c-2.15,1.93-2.33,4.08-1,5.83l.33.44c-1.68,2.37-3.94,5.58-6.42,8.5a3.42,3.42,0,0,0,.26.32c-3.12,3.59-5.78,5.92-8.76,7.19l4.81-8.24H286l-.4.66c-2,3.54-4.3,6-7.26,6-2.59,0-3.06-2.59-.8-6.46l1.06-1.86a13.62,13.62,0,0,0,2.15.18c13.49,0,20-18,8.13-18-2.08,0-4.56,1.46-6.27,4.45l-5.91,10.17a6.11,6.11,0,0,1-3.39-5.4,6,6,0,0,1,2.44-4.78l-1.24-2.23a8.36,8.36,0,0,0,.88,14.62l-1.13,2c-2.66,4.6-2.19,9.7,3.17,9.7a7.6,7.6,0,0,0,4.12-1.2l-1,1.71c-5.14,1.57-8.31,3.65-8.31,6.49,0,3.65,5.58,4.41,8.31-.25l2.92-5c3.94-1.24,7.81-3.94,12-8.75a2.3,2.3,0,0,0-.24-.36c1.68-2,3.11-3.89,6-7.78l.51.62a1.86,1.86,0,0,1,.22,2.15l-4,7c-1.61,2.81-.47,5.4,2.59,5.4,1.91,0,4-1.24,6-3,0,1.75,1.15,3,3.31,3,1.53,0,3.43-1,5.25-2.48.18,1.46,1.35,2.48,3.28,2.48s3.79-1.13,5.74-2.79l-1.4,2.42h3.83l5.8-10.1c5.8-7.26,8.39-6.31,6.75-3.5l-4.92,8.57c-1.6,2.81-.47,5.4,2.59,5.4,2,0,4.23-1.39,6.38-3.35-.2,1.9,1,3.35,3.29,3.35,1.53,0,3.43-1,5.25-2.48.18,1.46,1.35,2.48,3.28,2.48,3.14,0,6.75-3.35,9.88-7A3.3,3.3,0,0,0,363.42,295.77Zm-78-14.15c1.13-1.93,2.37-2.77,3.43-2.77,6,0,1.79,12.25-8.13,12.25H280Zm-8.06,28.59c-.8,1.42-2.08,1.2-2.08.18s.88-2.11,3.79-3.25Zm39.69-13.78c-2.3,3.61-4.56,5.32-6.13,5.32-.84,0-1.31-.58-.44-2.08l5.29-9.23c2-3.54,6.09-2.62,4.23.8Zm36.7-.22c-2.3,3.76-4.63,5.54-6.24,5.54-.84,0-1.31-.58-.44-2.08l5.29-9.23c2-3.54,6.09-2.62,4.23.8h0Z"/>
				<path class="intro-3" d="M236.71,331.76l-.25.29c-2.73,3.17-5.4,5.69-7.07,5.69-.84,0-1.31-.58-.44-2.08l5.47-9.59c1.64-2.88.07-5-2-5-1.64,0-3.35.88-5.25,2.84l1.42-2.48H224.8L218.69,332a2.73,2.73,0,0,0-.48-.29L218,332a8.18,8.18,0,0,1-5.73,2.81l3.57-6.16c2.3-4,.18-7.73-3.39-7.73-2.92,0-5.18,1.17-7.37,5l-1.86,3.25L201.5,332a2.5,2.5,0,0,0-.34-.19l-.26.29c-3.14,3.61-5.8,5.94-8.79,7.22l10.39-17.8h-3.79L192,333.15c-2.92,2.7-5.18,4.19-5.91,3.86-.95-.4,0-1.82.47-2.62l7.4-12.91h-3.79l-6,10.52a2.53,2.53,0,0,0-.33-.19l-.25.29c-2.73,3.17-5.4,5.69-7.07,5.69-.84,0-1.31-.58-.44-2.08l5.47-9.59c1.64-2.88.07-5-2-5-1.64,0-3.35.88-5.25,2.84l1.42-2.48h-3.79L165.78,332a2.62,2.62,0,0,0-.36-.2l-.25.29c-2.73,3.17-5.4,5.69-7.08,5.69-.84,0-1.31-.58-.44-2.08L163.78,325h-2.15a3.94,3.94,0,0,0-4-3.83c-2,0-4.89,1.6-6.49,4.38l-3.92,6.76a2.16,2.16,0,0,0-.83-.49l-.26.29c-2.73,3.17-6.09,5.69-9.85,5.69-2.59,0-4.16-2.59-1.9-6.45l1.06-1.86a13.64,13.64,0,0,0,2.15.18c4,0,8.64-2.08,11.63-7.29a10.51,10.51,0,0,0,1.53-5.1c0-3.43-2.23-5.65-5-5.65-2.08,0-4.56,1.46-6.27,4.45l-5.91,10.18a6.11,6.11,0,0,1-3.39-5.4,6,6,0,0,1,2.44-4.78l-1.24-2.23a8.36,8.36,0,0,0,.88,14.62l-1.13,2c-2.66,4.6-1.09,9.7,4.27,9.7,4.24,0,7.35-1.89,10-4.37-.83,2.38.37,4.37,3.06,4.37,1.53,0,3.43-1,5.25-2.48.18,1.46,1.35,2.48,3.28,2.48s3.79-1.13,5.74-2.78l-1.4,2.42h3.83l5.8-10.1c5.8-7.26,8.39-6.31,6.75-3.5l-4.92,8.57c-1.6,2.81-.47,5.4,2.59,5.4,2,0,4.28-1.42,6.47-3.42-.46,2.09.51,3.42,2.4,3.42s3.9-1.53,5.62-3.06l-2.08,3.57c-5.14,1.53-8.35,3.65-8.35,6.49,0,3.65,5.58,4.41,8.31-.25l2.92-5a23.92,23.92,0,0,0,9.56-6.2c-.52,5.3,6.53,6.5,10.79,1.13h.84a11.07,11.07,0,0,0,5-1.46l-2.55,4.41H218l5.8-10.1c5.8-7.26,8.39-6.31,6.75-3.5l-4.92,8.57c-1.6,2.81-.48,5.4,2.59,5.4s6.75-3.35,9.88-7A3.29,3.29,0,0,0,236.71,331.76Zm-94.39-14.15c1.13-1.93,2.37-2.77,3.43-2.77,1.42,0,2.08,1,2.08,2.33,0,3.54-4.3,9.92-10.21,9.92h-.77Zm13.36,14.81c-2.3,3.61-4.56,5.32-6.13,5.32-.84,0-1.31-.58-.44-2.08l5.29-9.23c2-3.54,6.09-2.62,4.23.8Zm28.85,13.78c-.8,1.42-2.08,1.2-2.08.18s.91-2.11,3.83-3.25ZM210.06,332h-.18a2.24,2.24,0,0,0-2.23,2.25h0a2.47,2.47,0,0,0,.37,1.27v.07c-1.79,3.06-6.13,2.48-3.87-1.46l2.88-5,1.82-3.1c2.66-4.52,6.31-2.73,4,1.2Z"/>
				<path class="intro-3" d="M324.62,333.08a2.4,2.4,0,0,0-1.42-1.31l-.26.29a23.62,23.62,0,0,1-4.56,4.12c1.2-3.61,1-9.15,3.28-14l-2.85-1.53c-1.57,2.15-5,7.11-8.42,11.12h0l-.25.29c-2.74,3.17-5.4,5.69-7.08,5.69-.84,0-1.64-.84-1.64-2.55v-1.57c2.66.33,5.47-1.42,7.26-4.52l1-1.75c3.54-6-2.23-8.06-6.09-4.52l5.4-9.37H305.2l-10.82,18.77a3.06,3.06,0,0,0-.69-.46l-.26.29c-2.73,3.17-6.24,5.69-8.9,5.69-2.33,0-3.72-1.46-2-4.52l3.9-6.78c2.19-3.76,6-3.14,3.79.8l-.55,1h3.1l.55-1c2-3.5.07-6.13-3-6.13a8,8,0,0,0-7.11,4.38l-3.73,6.4-.23-.13-.26.29c-2.73,3.17-5.4,5.69-7.07,5.69-.84,0-1.31-.58-.44-2.08l8.1-14.19h-3.79L269,333.26c-2.88,2.63-5.1,4.08-5.84,3.76-1-.4,0-1.82.47-2.62l7.4-12.91h-3.79l-7.37,12.74a22.67,22.67,0,0,1-2.45,2c1.2-3.61,1-9.15,3.28-14l-2.84-1.53c-1.57,2.15-10.32,13.75-13.75,17.76a5.5,5.5,0,0,0,1.42,1.31c2.15-2.48,9.37-11.78,10.72-13.57-1.5,3.94-.69,11-4.3,11a2.12,2.12,0,0,1-1.79-1.39L247.84,337a4.13,4.13,0,0,0,4.16,3.06,10.43,10.43,0,0,0,1.06-.07h.11a13.17,13.17,0,0,0,5.63-2.38,2.29,2.29,0,0,0,2.51,2.49c2.08,0,4.41-1.9,6.23-3.65-.36,2,.84,3.65,3.25,3.65s5-1.89,7.47-4.38c0,2.52,2,4.38,5.14,4.38s6.14-1.72,8.78-4l-2.11,3.67h3.83l4.34-7.55v3c0,3.24.62,4.89,3.68,4.89s6.75-3.35,9.88-7h0c2.15-2.48,4-5.14,5.4-6.93-1.49,3.94-.69,11-4.3,11a2.12,2.12,0,0,1-1.79-1.39L308.76,337a4.14,4.14,0,0,0,4.16,3.06A10.59,10.59,0,0,0,314,340h.11C318,339.46,321.78,336.4,324.62,333.08Zm-25.19-3,1.09-1.9c4.38-6.09,7.37-4.41,6-2.12l-1.82,3.14c-1.11,2-4.43,3.37-5.27.89Z"/>
				<path class="intro-3" d="M324.47,335.66a2.18,2.18,0,0,0-2.19,2.17s0,0,0,.06a2.15,2.15,0,0,0,2.11,2.19h.08a2.18,2.18,0,0,0,2.22-2.14s0,0,0-.05a2.21,2.21,0,0,0-2.19-2.23Z"/>
				<polygon class="intro-3" points="324.65 334.17 328.49 334.17 340.37 313.46 336.58 313.46 324.65 334.17"/>
				<path class="intro-3" d="M80.41,277.58a2.47,2.47,0,0,1-.17.88,2.4,2.4,0,0,1-.51.8,2.6,2.6,0,0,1-.83.57,2.65,2.65,0,0,1-1.1.22,3.44,3.44,0,0,1-1.3-.25,3,3,0,0,1-1.06-.73,3.1,3.1,0,0,1-.57-1,4,4,0,0,1-.2-1.29,5.92,5.92,0,0,1,1.76-4.3,5.77,5.77,0,0,1,.85-.69,9.14,9.14,0,0,1,.9-.54l.73-.35.37-.17,1.35,2c-.25.09-.52.21-.83.35a4.63,4.63,0,0,0-.86.54,3,3,0,0,0-.68.76,2.15,2.15,0,0,0-.3,1,2.74,2.74,0,0,1,1.73.58A2,2,0,0,1,80.41,277.58Zm7.87,0a2.42,2.42,0,0,1-.17.88,2.38,2.38,0,0,1-.51.8,2.58,2.58,0,0,1-.83.57,2.66,2.66,0,0,1-1.1.22,3.43,3.43,0,0,1-1.3-.25,2.94,2.94,0,0,1-1.07-.73,3.15,3.15,0,0,1-.57-1,4,4,0,0,1-.2-1.29,5.92,5.92,0,0,1,1.76-4.3,5.6,5.6,0,0,1,.85-.69,9,9,0,0,1,.9-.54l.73-.35.37-.17,1.35,2c-.25.09-.52.21-.83.35a4.57,4.57,0,0,0-.86.54,2.88,2.88,0,0,0-.68.76,2.13,2.13,0,0,0-.31,1,2.74,2.74,0,0,1,1.73.57A2,2,0,0,1,88.28,277.58Z"/>
				<path class="intro-3" d="M353.44,336.52a2.46,2.46,0,0,1,.17-.88,2.4,2.4,0,0,1,.51-.8,2.58,2.58,0,0,1,.83-.57,2.66,2.66,0,0,1,1.1-.22,3.45,3.45,0,0,1,1.3.25,2.92,2.92,0,0,1,1.06.73,3.11,3.11,0,0,1,.58,1,4.06,4.06,0,0,1,.2,1.29,5.91,5.91,0,0,1-1.76,4.3,5.66,5.66,0,0,1-.85.69,8.11,8.11,0,0,1-.9.54,6.61,6.61,0,0,1-.73.35l-.37.17-1.35-2c.25-.09.52-.21.83-.35a4.6,4.6,0,0,0,.86-.54,2.92,2.92,0,0,0,.68-.76,2.13,2.13,0,0,0,.3-1,2.73,2.73,0,0,1-1.72-.58A2,2,0,0,1,353.44,336.52Zm-7.87,0a2.42,2.42,0,0,1,.17-.88,2.39,2.39,0,0,1,.51-.8,2.59,2.59,0,0,1,.83-.57,2.66,2.66,0,0,1,1.1-.22,3.46,3.46,0,0,1,1.3.25,2.94,2.94,0,0,1,1.06.73,3.14,3.14,0,0,1,.57,1,4,4,0,0,1,.2,1.29,5.92,5.92,0,0,1-1.76,4.3,5.74,5.74,0,0,1-.85.69,9.34,9.34,0,0,1-.9.54,6.61,6.61,0,0,1-.73.35l-.37.17-1.36-2c.25-.09.53-.21.83-.35a4.56,4.56,0,0,0,.86-.54,2.94,2.94,0,0,0,.68-.76,2.16,2.16,0,0,0,.3-1,2.75,2.75,0,0,1-1.73-.58A2,2,0,0,1,345.57,336.52Z"/>
			</g>
		</symbol>

		<symbol id="intro_text" viewBox="0 0 459.75 79.8">>
		<title>intro_text</title>
			<g id="Layer_1" data-name="Layer 1">
				<path class="intro-3" d="M44.47,21.74a20.46,20.46,0,0,0-12.9-5c-3.57,0-8.34,2.08-8.34,6.25,0,4.37,5.26,6.06,8.64,7.15l5,1.49C47.25,34.74,55.29,40,55.29,52.11c0,7.45-1.79,15.09-7.74,20.15s-13.7,7-21.24,7A46.18,46.18,0,0,1,0,70.77L8.34,55.09C13.2,59.36,19,62.83,25.61,62.83c4.57,0,9.43-2.28,9.43-7.54,0-5.46-7.64-7.34-11.81-8.54C11,43.27,3,40.1,3,25.61,3,10.42,13.8.5,28.79.5A51.19,51.19,0,0,1,52.21,6.65Z"/>
				<path class="intro-3" d="M91.83,19V31.46h21.94V47.94H91.83v12.9H115V77.32H72.38V2.48H115V19H91.83Z"/>
				<path class="intro-3" d="M129.42,2.48H157c20.84,0,38,16.38,38,37.42s-17.27,37.42-38,37.42H129.42Zm19.46,58.36h4.37c11.61,0,21.54-6.35,21.54-20.94,0-13.4-8.83-20.94-21.34-20.94h-4.56Z"/>
				<path class="intro-3" d="M286.87,38.51c0,24.22-17.37,41.29-41.39,41.29s-41.39-17.07-41.39-41.29C204.09,15.88,223.94,0,245.48,0S286.87,15.88,286.87,38.51Zm-62.53.1c0,12.9,9.53,22.33,21.14,22.33s21.14-9.43,21.14-22.33c0-10.32-9.53-19.75-21.14-19.75S224.34,28.29,224.34,38.61Z"/>
				<path class="intro-3" d="M297.24,2.48h19.45l35.64,45.76h.2V2.48H372V77.32H352.52L316.89,31.46h-.2V77.32H297.24Z"/>
				<path class="intro-3" d="M407.34,64.32l-5.16,13H381.54L410.32,2.48h21.24l28.19,74.84H439l-4.86-13Zm13.6-38.71h-.2l-8,23.82h16.18Z"/>
			</g>
		</symbol>
		
	</svg>